<?xml version="1.0" standalone="no"?>
<!DOCTYPE svg PUBLIC "-//W3C//DTD SVG 1.1//EN" "http://www.w3.org/Graphics/SVG/1.1/DTD/svg11.dtd" >
<svg xmlns="http://www.w3.org/2000/svg">
<metadata>
Created by FontPrep 20130207 at Tue Sep 30 22:26:16 2014
 By Ferran Gimeno Segura
Copyright (c) 2009-13 by Village Type &#38; Design LLC. All rights reserved.
</metadata>
<defs>
<font id="2803947e1a907b3ab910522fdca9d190" horiz-adv-x='1024' >
  <font-face 
    font-family="Copernicus-BookItalic"
    font-weight="525"
    font-style="italic"
    font-stretch="normal"
    units-per-em="2048"
    panose-1="2 0 0 0 0 0 0 0 0 0"
    ascent="1536"
    descent="-512"
    x-height="1091"
    cap-height="1597"
    bbox="-389 -629 2806 2144"
    underline-thickness="61"
    underline-position="-144"
    unicode-range="U+0020-F614"
  />
<missing-glyph horiz-adv-x="1966" 
d="M184 1597h1598v-1597h-1598v1597zM412 135h1142l-571 572zM983 891l571 571h-1142zM328 1362v-1126l563 563zM1638 236v1126l-563 -563z" />
    <glyph glyph-name="ff" unicode="ff" horiz-adv-x="1359" 
d="M510 -211q0 -188 102 -188q85 0 137 115t95 425l114 842h-489l-129 -846q-51 -337 -167 -493t-302 -156q-133 0 -197 50q-63 50 -63 110q0 105 74 133h67q13 -207 160 -207q162 0 230 236q26 86 44 213l131 960h-155l18 88h148l10 70q29 212 146 353q117 140 292 140
q86 0 136 -42t50 -110t-61 -106h-63q-6 82 -37 122t-103 40q-144 0 -188 -285l-27 -182h486l14 94q29 216 155 355t308 139q104 0 151 -42q47 -41 47 -97q1 -91 -61 -129h-63q-13 172 -164 172q-78 0 -128 -66t-73 -219l-31 -207h293l-18 -88h-289l-125 -817
q-52 -340 -146 -495q-94 -154 -284 -154q-82 0 -138 40q-57 40 -57 114t76 118h74z" />
    <glyph glyph-name="ffi" unicode="ffi" horiz-adv-x="1972" 
d="M1599 1071q142 0 142 -103q1 -119 -67 -411t-68 -401q0 -57 51 -58q74 0 192 168l49 -33q-131 -255 -307 -253q-69 0 -105 36t-36 92q0 131 68 417q67 302 67 405q0 53 -57 53h-418l-125 -817q-52 -340 -146 -495q-94 -154 -284 -154q-82 0 -138 40q-57 40 -57 114
t76 118h74q0 -188 102 -188q85 0 137 115t95 425l114 842h-489l-129 -846q-51 -337 -167 -493t-302 -156q-133 0 -197 50q-63 50 -63 110q0 105 74 133h67q13 -207 160 -207q162 0 230 236q26 86 44 213l131 960h-155l18 88h148l10 70q29 212 146 353q117 140 292 140
q86 0 136 -42t50 -110t-61 -106h-63q-6 82 -37 122t-103 40q-144 0 -188 -285l-27 -182h486l14 92q33 214 175 354q141 140 337 140q115 0 168 -44q53 -43 53 -99q0 -98 -59 -134h-72q-8 183 -168 183q-161 0 -230 -187q-26 -68 -42 -168l-21 -137h475z" />
    <glyph glyph-name="ffl" unicode="ffl" horiz-adv-x="1966" 
d="M1452 129q0 105 64 447q64 341 105 549q40 208 52 311q-29 70 -89 102t-132 33q-123 0 -201 -84t-106 -279l-21 -137h293l-18 -88h-289l-125 -817q-52 -340 -146 -495q-94 -154 -284 -154q-82 0 -138 40q-57 40 -57 114t76 118h74q0 -188 102 -188q85 0 137 115t95 425
l114 842h-489l-129 -846q-51 -337 -167 -493t-302 -156q-133 0 -197 50q-63 50 -63 110q0 105 74 133h67q13 -207 160 -207q162 0 230 236q26 86 44 213l131 960h-155l18 88h148l10 70q29 212 146 353q117 140 292 140q86 0 136 -42t50 -110t-61 -106h-63q-6 82 -37 122
t-103 40q-144 0 -188 -285l-27 -182h486l14 92q33 214 175 354q141 140 335 140q129 0 205 -66l114 68h41q-20 -240 -135 -813q-114 -573 -114 -690q0 -57 49 -58q76 0 194 168l47 -33q-126 -255 -305 -253q-137 0 -137 149z" />
    <glyph glyph-name="fi" unicode="fi" horiz-adv-x="1331" 
d="M958 1071q142 0 142 -103q0 -119 -68 -411t-67 -401q0 -57 51 -58q74 0 192 168l49 -33q-131 -255 -307 -253q-68 0 -104 36t-37 92q0 131 68 417q67 302 67 405q0 53 -57 53h-418l-129 -846q-51 -337 -167 -493t-302 -156q-133 0 -197 50q-63 50 -63 110q0 105 74 133
h67q13 -207 160 -207q162 0 230 236q26 86 44 213l131 960h-155l18 88h148l14 92q33 214 175 354q141 140 337 140q115 0 168 -44q53 -43 53 -99q0 -98 -59 -134h-72q-8 183 -169 183q-160 0 -229 -187q-26 -68 -42 -168l-21 -137h475z" />
    <glyph glyph-name="fl" unicode="fl" horiz-adv-x="1325" 
d="M852 1657q129 0 205 -66l114 68h41q-20 -240 -135 -813q-114 -573 -114 -690q0 -57 49 -58q76 0 194 168l47 -33q-126 -255 -305 -253q-137 0 -137 149q1 105 65 447q64 341 104 549t52 311q-29 70 -89 102t-132 33q-123 0 -201 -84t-106 -279l-21 -137h293l-18 -88h-289
l-129 -846q-51 -337 -167 -493t-302 -156q-133 0 -197 50q-63 50 -63 110q0 105 74 133h67q13 -207 160 -207q162 0 230 236q26 86 44 213l131 960h-155l18 88h148l14 92q33 214 175 354q141 140 335 140z" />
    <glyph glyph-name=".notdef" horiz-adv-x="1966" 
d="M184 1597h1598v-1597h-1598v1597zM412 135h1142l-571 572zM983 891l571 571h-1142zM328 1362v-1126l563 563zM1638 236v1126l-563 -563z" />
    <glyph glyph-name=".null" horiz-adv-x="0" 
 />
    <glyph glyph-name="nonmarkingreturn" horiz-adv-x="681" 
 />
    <glyph glyph-name="space" unicode=" " horiz-adv-x="409" 
 />
    <glyph glyph-name="exclam" unicode="!" horiz-adv-x="645" 
d="M571 1503l-114 -598q-76 -388 -90 -502h-78q10 97 17 235t16 267l32 598l11 94h217zM162 109q0 53 38 92t91 39t92 -39t39 -92t-39 -91t-92 -38t-91 38t-38 91z" />
    <glyph glyph-name="quotedbl" unicode="&#x22;" horiz-adv-x="681" 
d="M231 1073l11 524h194l-117 -524h-88zM543 1073l10 524h195l-117 -524h-88z" />
    <glyph glyph-name="numbersign" unicode="#" horiz-adv-x="1386" 
d="M1112 1116h231l-10 -86h-250l-149 -450h252l-10 -86h-271l-164 -494h-94l164 494h-375l-164 -494h-94l164 494h-221l10 86h240l151 450h-243l10 86h262l160 481h94l-162 -481h377l160 481h94zM465 580h375l151 450h-377z" />
    <glyph glyph-name="dollar" unicode="$" horiz-adv-x="1261" 
d="M739 1618h21q12 0 24 -2l50 237h84l-52 -245q182 -25 314 -119l-41 -326h-47q-41 282 -246 342l-125 -606q209 -116 292 -210q109 -121 107 -281q0 -204 -146 -316t-382 -112l-60 2l-49 -238h-84l50 246q-215 33 -345 147l35 375h51q29 -190 100 -288t181 -132l139 680
l-16 10q-256 140 -307 301q-19 57 -19 138t33 156q66 151 243 211q87 30 195 30zM578 74h28q162 0 258 72t97 232q0 161 -158 275q-51 37 -117 76l-135 -653q14 -2 27 -2zM498 1448q-80 -76 -80 -192t54 -182t173 -134l119 582l-41 2q-145 0 -225 -76z" />
    <glyph glyph-name="percent" unicode="%" horiz-adv-x="2072" 
d="M510 0h-115l1237 1597h115zM611 1618q174 0 269 -94t95 -281t-101 -331t-276 -144q-174 0 -269 94t-95 282t101 331q102 143 276 143zM827 1290q0 240 -202 244q-129 0 -194 -151q-50 -116 -50 -287t104 -225q39 -19 105 -19q121 0 187 150q50 116 50 288zM1761 502
q0 243 -202 243q-128 0 -194 -150q-50 -116 -50 -288t104 -224q39 -19 105 -19t112 42q124 115 125 396zM1814 735q95 -94 95 -281t-102 -331q-102 -145 -289 -143q-160 0 -255 94t-95 281t101 330q102 144 276 144t269 -94z" />
    <glyph glyph-name="ampersand" unicode="&#x26;" horiz-adv-x="1916" 
d="M1024 1340q0 83 -54 140q-54 56 -172 56q-117 0 -194 -78t-79 -183q-1 -105 50 -163t166 -76l-18 -55q-215 -39 -342 -156t-127 -306t154 -309t395 -120q304 0 475 176q74 76 107 166q34 90 34 172q0 166 -95 258t-249 92q-78 0 -128 -39t-50 -92t41 -84t149 -30v-45
q1 -41 -37 -70t-98 -29t-100 46t-39 150q0 104 74 196q92 118 256 118q86 0 160 -34q73 -33 141 -73t131 -73t134 -33t121 39t50 93t-41 84t-149 30v45q0 41 37 70q38 29 98 29q59 0 99 -47t40 -115q0 -218 -170 -315q-59 -34 -134 -34t-130 25t-103 55q78 -70 78 -215
q0 -104 -43 -216t-134 -203q-207 -207 -572 -207q-316 0 -495 136t-179 357q0 183 142 330q117 118 296 172q-70 33 -110 99t-41 146q0 164 133 281t322 117q188 0 276 -62t88 -165q0 -53 -31 -91t-74 -51h-69q10 57 10 91z" />
    <glyph glyph-name="quotesingle" unicode="'" horiz-adv-x="370" 
d="M231 1073l11 524h194l-117 -524h-88z" />
    <glyph glyph-name="parenleft" unicode="(" horiz-adv-x="808" 
d="M317 563q1 -160 21 -260q39 -190 158 -353q57 -79 133 -159l-78 -57q-172 168 -255 358t-83 432q0 710 578 1176l67 -55q-541 -453 -541 -1082z" />
    <glyph glyph-name="parenright" unicode=")" horiz-adv-x="808" 
d="M571 870q0 160 -20 260q-53 265 -291 512l78 58q172 -168 255 -358t83 -433q0 -707 -578 -1175l-67 55q540 452 540 1081z" />
    <glyph glyph-name="asterisk" unicode="*" horiz-adv-x="776" 
d="M248 997l-55 54l206 204l-241 154l41 66l254 -142l75 289l80 -16l-49 -291l287 18l8 -73l-287 -35l107 -277l-78 -26l-125 264z" />
    <glyph glyph-name="plus" unicode="+" 
d="M629 532h-496l14 105h496l62 500h114l-61 -500h495l-14 -105h-496l-61 -501h-115z" />
    <glyph glyph-name="comma" unicode="," horiz-adv-x="645" 
d="M284 240q118 0 151 -123q9 -35 9 -87t-30 -111q-30 -60 -85 -107q-119 -103 -300 -119l14 78q121 16 204 81q83 66 83 140h-76q-92 23 -92 122q0 52 37 89t85 37z" />
    <glyph glyph-name="hyphen" unicode="-" horiz-adv-x="712" 
d="M127 633l16 119h508l-16 -119h-508z" />
    <glyph glyph-name="period" unicode="." horiz-adv-x="645" 
d="M162 109q0 53 38 92t91 39t92 -39t39 -92t-39 -91t-92 -38t-91 38t-38 91z" />
    <glyph glyph-name="slash" unicode="/" horiz-adv-x="774" 
d="M43 -248h-113l834 1948h115z" />
    <glyph glyph-name="zero" unicode="0" 
d="M1151 962q0 240 -81 391q-92 173 -267 173q-221 0 -360 -223q-113 -185 -146 -453q-14 -93 -14 -205q0 -251 81 -400q92 -173 282 -173q108 0 197 63q229 162 296 621q12 104 12 206zM622 -20q-132 0 -234 58q-290 166 -290 626q0 140 41 311q89 368 346 550
q133 93 296 93t265 -58t166 -152q126 -184 123 -460q0 -224 -73 -435q-127 -371 -408 -491q-100 -42 -232 -42z" />
    <glyph glyph-name="one" unicode="1" 
d="M770 214q0 -44 28 -70q51 -48 199 -60l158 -10l-8 -74h-985l8 74q92 6 168 12q243 19 258 150l137 1128h-405l6 45l119 16q198 26 258 48q59 22 104 55t100 90h23l-160 -1319q-8 -41 -8 -85z" />
    <glyph glyph-name="two" unicode="2" 
d="M676 135q164 0 228 32t110 80q47 48 100 130h53l-125 -377h-989l2 27q435 389 570 517q237 227 310 354t74 280q1 152 -82 226t-220 73q-205 0 -353 -148q-43 -43 -88 -92l-39 43q96 157 212 240q142 98 338 98t312 -112q117 -112 116 -272t-73 -288t-197 -255
q-124 -126 -288 -261t-348 -295h377z" />
    <glyph glyph-name="three" unicode="3" 
d="M781 1489q-91 0 -150 -22t-128 -68t-173 -174l-43 47q204 346 534 346q181 0 271 -90t90 -238t-147 -268q-110 -90 -265 -143q183 -8 298 -120q114 -112 114 -278q0 -236 -175 -370t-406 -132q-231 1 -353 107q-123 106 -123 236t117 178h88q-19 -70 -19 -134
q0 -131 78 -217t243 -86q166 -1 270 101t104 295q0 147 -96 245q-96 99 -242 99q-74 0 -158 -27l-18 66q239 79 360 169q151 112 149 269q0 100 -64 155q-65 54 -156 54z" />
    <glyph glyph-name="four" unicode="4" 
d="M874 504l97 796l-774 -796h677zM862 410h-817l8 67l1073 1120h41l-133 -1093h271l-13 -94h-270l-16 -140q-6 -49 -7 -67q-1 -84 61 -108t169 -27l-8 -68h-658l8 68q128 5 175 27q46 23 68 57t28 86z" />
    <glyph glyph-name="five" unicode="5" 
d="M338 368q0 -203 166 -279q57 -26 139 -26q167 0 268 106t101 277q0 246 -198 353q-163 88 -462 90l168 708h475q82 0 132 24t94 95h71l-133 -272h-588l-94 -416q279 -5 470 -124q99 -62 161 -162t61 -228q0 -243 -147 -390q-148 -146 -386 -145t-373 116
q-113 98 -112 227q1 130 117 178h88q-18 -67 -18 -132z" />
    <glyph glyph-name="six" unicode="6" 
d="M778 999q214 0 338 -127q123 -127 123 -327q0 -250 -159 -409t-398 -157q-240 1 -378 175t-138 421q0 361 274 645q286 292 779 398l24 -74q-309 -78 -531 -251q-256 -197 -337 -478q154 184 403 184zM702 883q-206 0 -348 -154q-12 -78 -12 -169q0 -212 82 -339
q92 -145 270 -145t272 119q95 119 95 305q1 186 -99 284t-260 99z" />
    <glyph glyph-name="seven" unicode="7" 
d="M547 1442q-80 0 -127 -32t-98 -114h-72l133 301h934l-6 -49l-832 -1548h-174l862 1442h-620z" />
    <glyph glyph-name="eight" unicode="8" 
d="M1245 1244q0 -149 -113 -254q-113 -104 -264 -146l84 -53q111 -70 172 -153t62 -220q0 -176 -126 -298q-149 -142 -386 -141t-382 125t-145 300t122 290t313 160l-33 20q-80 48 -138 134q-59 86 -59 185t29 172t85 129t138 90t191 34t192 -28q166 -54 228 -196
q30 -68 30 -150zM1024 412q0 168 -193 288l-188 119q-178 -78 -249 -178q-70 -100 -70 -238t94 -238q94 -101 251 -100q155 1 255 90t100 257zM1083 1234q0 207 -163 275q-52 23 -118 23q-131 0 -216 -80q-84 -80 -83 -190t48 -174t131 -117l135 -88q206 88 250 233
q16 52 16 118z" />
    <glyph glyph-name="nine" unicode="9" 
d="M172 1053q0 249 158 407t398 158t379 -174q138 -174 138 -422q0 -364 -281 -651t-771 -391l-25 73q305 77 530 250q254 195 336 477q-152 -182 -401 -182q-212 0 -337 127q-124 126 -124 328zM709 715q208 0 346 153q14 70 14 164q0 217 -82 342q-94 148 -271 148
t-271 -119q-95 -119 -95 -305t100 -284t259 -99z" />
    <glyph glyph-name="colon" unicode=":" horiz-adv-x="645" 
d="M162 109q0 53 38 92t91 39t92 -39t39 -92t-39 -91t-92 -38t-91 38t-38 91zM254 768q0 53 38 92t91 39t92 -39t39 -92t-39 -91t-92 -38t-91 38t-38 91z" />
    <glyph glyph-name="semicolon" unicode=";" horiz-adv-x="645" 
d="M284 240q118 0 151 -123q9 -35 9 -87t-30 -111q-30 -60 -85 -107q-119 -103 -300 -119l14 78q121 16 204 81q83 66 83 140h-76q-92 23 -92 122q0 52 37 89t85 37zM254 768q0 53 38 92t91 39t92 -39t39 -92t-39 -91t-92 -38t-91 38t-38 91z" />
    <glyph glyph-name="less" unicode="&#x3c;" 
d="M231 580l299 -134l676 -313l-12 -113l-1044 500l14 129l1167 500l-12 -109l-754 -321z" />
    <glyph glyph-name="equal" unicode="=" 
d="M172 651l12 103h1106l-12 -103h-1106zM135 352l12 103h1106l-12 -103h-1106z" />
    <glyph glyph-name="greater" unicode="&#x3e;" 
d="M1227 590l-299 133l-676 313l12 113l1045 -500l-15 -129l-1167 -500l12 109l754 322z" />
    <glyph glyph-name="question" unicode="?" horiz-adv-x="1050" 
d="M1071 1268q0 -150 -89 -254q-64 -75 -223 -167t-213 -166q-55 -74 -57 -200v-69h-53q-51 99 -51 205q1 107 73 185t163 130t139 86q144 100 143 261q0 111 -65 181q-66 70 -189 70t-184 -66t-62 -166q0 -47 11 -94h-142q-39 43 -40 114t33 126q69 112 241 157
q171 44 327 -10t210 -181q28 -62 28 -142zM307 109q0 53 38 92t91 39t92 -39t39 -92t-39 -91t-92 -38t-91 38t-38 91z" />
    <glyph glyph-name="at" unicode="@" horiz-adv-x="2269" 
d="M1300 1059q-200 0 -332 -197t-130 -444q0 -92 21 -155q21 -62 83 -62q113 0 238 163t191 323q66 161 73 276q-40 96 -144 96zM1327 225q0 47 24 145t56 244h-8q-12 -29 -40 -96t-85 -144q-110 -148 -193 -207q-83 -58 -190 -58t-158 87t-51 225t48 269q48 130 132 232
t195 163t218 61t155 -35q48 -36 63 -73l135 123h51l-69 -209q-66 -260 -96 -463q-29 -204 -29 -243q0 -58 47 -58q207 0 348 179t141 458q0 356 -199 565q-199 210 -581 212q-207 0 -380 -82t-299 -224t-196 -333q-70 -189 -69 -397q0 -408 239 -656q242 -252 626 -252
q196 0 364 45t332 150l32 -66q-121 -98 -319 -161q-197 -64 -421 -64t-412 72q-378 146 -523 519q-72 183 -72 409t85 433q84 207 232 362t349 245t423 90t393 -62q347 -125 477 -448q65 -160 65 -338q0 -340 -187 -538q-186 -197 -494 -197q-158 0 -159 116z" />
    <glyph glyph-name="A" unicode="A" horiz-adv-x="1609" 
d="M1137 532h-686l-136 -256q-74 -145 -3 -182q49 -22 169 -26l-8 -68h-496l9 68q53 4 92 21t63 65l717 1343l-35 127h181l409 -1470q12 -46 47 -64t82 -22l-8 -68h-553l8 68q127 2 183 19t56 62t-22 130zM500 625h610l-207 753z" />
    <glyph glyph-name="B" unicode="B" horiz-adv-x="1566" 
d="M842 774h-269l-53 -446q-8 -82 -8 -133q0 -107 195 -107h90q328 0 427 199q34 70 33 166q0 321 -415 321zM803 864q222 0 339 83t115 267q0 146 -93 220t-253 73h-247l-78 -643h217zM940 1597q242 0 374 -95t132 -261q0 -198 -139 -308q-118 -94 -322 -112
q224 -15 344 -116q119 -101 119 -254q0 -219 -183 -335t-485 -116h-719l9 68q127 4 174 27q86 42 98 143l133 1091q6 50 6 82q0 93 -135 112q-43 5 -96 7l8 67h682z" />
    <glyph glyph-name="C" unicode="C" horiz-adv-x="1591" 
d="M975 1618q323 0 545 -162l-27 -323h-45q-31 189 -165 290t-304 101q-316 0 -491 -245q-156 -221 -156 -546t142 -493t364 -168q289 0 464 234q56 75 105 167h57l-88 -369q-142 -92 -398 -117q-73 -7 -140 -7q-309 0 -500 185t-193 525q0 164 50 329q104 351 409 515
q156 84 371 84z" />
    <glyph glyph-name="D" unicode="D" horiz-adv-x="1757" 
d="M481 1411q0 93 -135 112q-43 5 -96 7l8 67h707q366 0 565 -199q176 -178 176 -466q0 -219 -68 -392q-136 -346 -470 -477q-163 -63 -355 -63h-752l9 68q127 4 174 27q86 42 98 143l133 1091q6 49 6 82zM799 90q316 0 517 211q200 211 201 618t-327 542q-113 46 -268 46
h-258l-146 -1185q-8 -82 -8 -133t49 -75t158 -24h82z" />
    <glyph glyph-name="E" unicode="E" horiz-adv-x="1591" 
d="M481 1411q0 93 -135 112q-43 5 -96 7l8 67h1288l-39 -362h-41q-47 156 -108 214t-197 58h-497l-80 -649h456q78 0 120 55t73 160h55l-63 -518h-56q-6 104 -35 159q-30 54 -108 54h-453l-55 -446q-8 -82 -8 -121q0 -63 52 -87t177 -24h265q82 0 135 12q95 21 183 138
q44 57 105 149h54l-119 -389h-1301l9 68q127 4 174 27q86 42 98 143l133 1091q6 49 6 82z" />
    <glyph glyph-name="F" unicode="F" horiz-adv-x="1429" 
d="M1116 1507h-452l-86 -698h409q78 0 120 55t73 160h57l-63 -518h-58q-6 104 -35 158t-106 55h-408l-49 -391q-8 -82 -8 -116t11 -58q35 -74 249 -84l-8 -70h-701l9 68q127 4 174 27q86 42 98 143l133 1091q6 50 6 82q0 93 -135 112q-43 5 -96 7l8 67h1243l-39 -362h-41
q-47 156 -108 214t-197 58z" />
    <glyph glyph-name="G" unicode="G" horiz-adv-x="1662" 
d="M975 1618q323 0 545 -162l-27 -323h-45q-31 189 -165 290t-304 101q-316 0 -491 -245q-156 -221 -156 -546t142 -493t364 -168q117 0 221 37t168 108l28 240q4 33 5 49v24q0 75 -63 102q-47 20 -169 25l8 68h668l-8 -68q-128 -4 -176 -27q-48 -22 -70 -56t-27 -87
l-43 -350q-226 -159 -539 -158q-312 1 -503 186t-193 525q0 164 50 329q104 351 409 515q156 84 371 84z" />
    <glyph glyph-name="H" unicode="H" horiz-adv-x="1964" 
d="M1591 186q0 -95 135 -111q43 -5 97 -7l-8 -68h-668l8 68q129 5 175 27q88 43 97 143l64 528h-920l-59 -498q-6 -50 -6 -82q0 -66 55 -90t176 -28l-8 -68h-668l9 68q127 4 174 27q86 42 98 143l133 1091q6 50 6 82q0 93 -135 112q-43 5 -96 7l8 67h668l-8 -67
q-129 -5 -177 -28q-47 -23 -69 -56t-27 -86l-61 -502h919l58 471q6 50 6 82q-1 33 -17 57q-30 43 -95 51q-66 9 -120 11l8 67h668l-8 -67q-130 -5 -176 -28q-47 -23 -69 -56t-27 -86l-134 -1092q-6 -50 -6 -82z" />
    <glyph glyph-name="I" unicode="I" horiz-adv-x="878" 
d="M506 186q0 -66 55 -90t176 -28l-8 -68h-668l9 68q127 4 174 27q86 42 98 143l133 1091q6 50 6 82q0 93 -135 112q-43 5 -96 7l8 67h668l-8 -67q-129 -5 -177 -28q-47 -23 -69 -56t-27 -86l-133 -1092q-6 -50 -6 -82z" />
    <glyph glyph-name="J" unicode="J" horiz-adv-x="1114" 
d="M12 242q0 108 90 151h134q-29 -78 -29 -146q0 -67 44 -127t159 -60t183 74q68 75 91 274l111 921q4 33 4 49v25q0 74 -56 98t-176 29l8 67h668l-8 -67q-130 -5 -176 -28q-47 -23 -69 -56t-27 -86l-111 -918q-28 -229 -136 -346t-319 -116q-289 0 -362 160q-23 48 -23 102
z" />
    <glyph glyph-name="K" unicode="K" horiz-adv-x="1687" 
d="M1288 1460q0 22 -9 37q-12 22 -161 33l8 67h555l-8 -67q-99 -4 -156 -32q-57 -27 -137 -101l-592 -545l445 -535q108 -130 169 -174q60 -43 110 -59t112 -16l-8 -68h-293q-129 97 -250 246l-463 565l617 571q61 56 61 78zM506 186q0 -66 55 -90t176 -28l-8 -68h-668l9 68
q127 4 174 27q86 42 98 143l133 1091q6 50 6 82q0 93 -135 112q-43 5 -96 7l8 67h668l-8 -67q-129 -5 -177 -28q-47 -23 -69 -56t-27 -86l-133 -1092q-6 -50 -6 -82z" />
    <glyph glyph-name="L" unicode="L" horiz-adv-x="1478" 
d="M700 90h261q132 0 215 70t213 260h49l-127 -420h-1250l9 68q127 4 174 27q86 42 98 143l133 1091q6 50 6 82q0 93 -135 112q-43 5 -96 7l8 67h668l-8 -67q-129 -5 -177 -28q-47 -23 -69 -56t-27 -86l-127 -1038q-8 -82 -8 -133q0 -99 190 -99z" />
    <glyph glyph-name="M" unicode="M" horiz-adv-x="2181" 
d="M342 178q0 -61 47 -83t160 -27l-8 -68h-527l9 68q98 4 143 30t67 107l347 1157q0 93 -24 119q-41 43 -150 47l8 69h348q0 -49 22 -135l293 -1177l645 1247q12 27 21 65h350l-8 -69q-115 -4 -160 -40t-55 -126l45 -1157q4 -74 42 -104t136 -33l-8 -68h-588l8 68
q124 5 168 31q43 27 59 65t15 104l-39 1018l-678 -1286h-47l-321 1286l-308 -1024q-12 -54 -12 -84z" />
    <glyph glyph-name="N" unicode="N" horiz-adv-x="1892" 
d="M1579 1404q0 40 -16 64q-29 43 -119 55q-43 5 -96 7l8 67h608l-8 -67q-130 -5 -176 -28t-68 -56t-29 -86l-165 -1360h-66l-872 1303l-127 -1035q-7 -40 -7 -77q0 -71 63 -98q47 -20 169 -25l-8 -68h-609l9 68q127 4 174 27q86 42 98 143l141 1155q-71 93 -110 115
q-38 22 -125 22l8 67h332l862 -1298l123 1030q6 35 6 75z" />
    <glyph glyph-name="O" unicode="O" horiz-adv-x="1656" 
d="M1419 888q0 289 -129 463q-129 173 -348 173q-152 0 -266 -71q-226 -141 -305 -449q-39 -147 -39 -295q0 -291 129 -463t369 -172q132 0 244 70q226 140 306 450q39 146 39 294zM812 -20q-314 0 -490 185q-175 185 -177 511q0 182 57 352q117 354 419 511q153 79 319 79
q314 0 490 -186t176 -510q0 -182 -57 -353q-117 -355 -419 -511q-152 -78 -318 -78z" />
    <glyph glyph-name="P" unicode="P" horiz-adv-x="1482" 
d="M930 1597q573 0 573 -413q0 -244 -164 -370t-454 -126h-322l-45 -360q-8 -55 -8 -102q0 -48 11 -72q35 -74 249 -84l-8 -70h-701l9 68q127 4 174 27q86 42 98 143l133 1091q6 50 6 82q0 93 -135 112q-43 5 -96 7l8 67h672zM889 778q199 0 313 91t115 298q0 162 -97 251
t-294 89h-262l-91 -729h316z" />
    <glyph glyph-name="Q" unicode="Q" horiz-adv-x="1656" 
d="M1606 918q0 -168 -50 -329t-144 -289q-93 -128 -228 -212t-305 -102l319 -232q110 -81 233 -91q36 -3 72 -3h43v-39q-29 -18 -83 -42q-54 -23 -146 -23q-181 1 -326 145l-284 283q-255 24 -409 207q-153 183 -153 485q0 182 57 352q117 354 419 511q153 79 319 79
q314 0 490 -186q176 -185 176 -514zM1419 888q0 289 -129 463q-129 173 -348 173q-152 0 -266 -71q-226 -141 -305 -449q-39 -147 -39 -295q0 -291 129 -463t369 -172q132 0 244 70q226 140 306 450q39 146 39 294z" />
    <glyph glyph-name="R" unicode="R" horiz-adv-x="1673" 
d="M1264 1190q0 317 -379 317h-221l-84 -684h254q316 0 400 197q30 70 30 170zM506 186q0 -66 55 -90t176 -28l-8 -68h-668l9 68q127 4 174 27q86 42 98 143l133 1091q6 50 6 82q0 93 -135 112q-43 5 -96 7l8 67h633q275 0 417 -99t142 -286q0 -222 -151 -341t-371 -132
l274 -383q172 -245 304 -277q46 -11 104 -11l-8 -68h-312q-144 133 -250 291l-307 444h-164l-57 -467q-6 -50 -6 -82z" />
    <glyph glyph-name="S" unicode="S" horiz-adv-x="1261" 
d="M739 1618q265 0 441 -129l-41 -326h-47q-25 177 -119 269q-95 92 -245 92t-230 -76t-80 -205q0 -160 160 -261q52 -34 136 -80q209 -115 293 -208q115 -125 113 -286q0 -204 -146 -316t-382 -112q-154 0 -281 44t-207 113l35 375h51q51 -343 267 -416q68 -23 149 -22
q353 0 355 305q0 129 -97 224q-48 46 -116 88t-154 90q-172 96 -248 193t-78 238q0 183 129 294q128 112 342 112z" />
    <glyph glyph-name="T" unicode="T" horiz-adv-x="1523" 
d="M670 1511q-193 0 -280 -67q-48 -37 -89 -97t-96 -153h-51l84 403h1343l-14 -403h-43q-33 92 -58 154t-59 97q-35 36 -87 51t-140 15h-195l-151 -1243q-7 -58 -7 -86q0 -62 55 -86t177 -28l-8 -68h-668l8 68q128 5 175 27q86 42 98 143l155 1273h-149z" />
    <glyph glyph-name="U" unicode="U" horiz-adv-x="1753" 
d="M391 1411q0 93 -135 112q-43 5 -96 7l8 67h668l-9 -67q-129 -5 -175 -28t-68 -56t-29 -86l-90 -717q-12 -102 -12 -181q-1 -79 31 -151q61 -139 223 -190q78 -25 170 -25q247 0 373 134t155 376l86 723q6 34 6 75q0 40 -16 64q-29 43 -119 55q-43 5 -96 7l8 67h608
l-8 -67q-130 -5 -176 -28q-47 -23 -69 -56t-27 -86l-97 -795q-32 -277 -204 -432t-433 -153q-415 0 -537 273q-42 93 -42 220q0 57 14 178l82 678q6 49 6 82z" />
    <glyph glyph-name="V" unicode="V" horiz-adv-x="1562" 
d="M1372 1424q0 35 -10 52q-29 49 -209 54l8 67h522l-8 -67q-57 -6 -93 -22t-60 -64l-779 -1469h-53l-383 1469q-12 45 -43 64t-90 22l8 67h559l-8 -67q-127 -4 -185 -24t-58 -68q0 -47 12 -90l276 -1100l547 1050q47 91 47 126z" />
    <glyph glyph-name="W" unicode="W" horiz-adv-x="2293" 
d="M1286 1438q0 -47 12 -90l271 -1088l497 1038q46 95 47 128t-14 58q-25 41 -205 46l9 67h512l-9 -67q-57 -6 -94 -22t-59 -64l-723 -1469h-39l-277 1074l-528 -1074h-39l-340 1469q-20 84 -133 86l8 67h553l-8 -67q-127 -4 -185 -24t-58 -61q0 -40 12 -97l245 -1069
l441 897l-68 268q-12 45 -43 64t-90 22l8 67h549l-8 -67q-128 -4 -186 -24t-58 -68z" />
    <glyph glyph-name="X" unicode="X" horiz-adv-x="1646" 
d="M1348 1497q-15 33 -197 33l10 67h549l-12 -67q-72 0 -112 -24t-111 -103l-514 -563l413 -645q50 -77 89 -102q40 -25 116 -25l-8 -68h-608l8 68q137 0 173 13t45 27t9 48q0 33 -49 106l-303 477l-434 -473q-31 -35 -61 -77t-11 -85q12 -24 68 -30q55 -6 120 -6l-8 -68
h-543l9 68q76 0 125 27t112 100l570 626l-373 582q-54 82 -96 105q-42 22 -117 22l8 67h614l-8 -67q-135 0 -178 -18t-43 -63t45 -114l262 -415l373 409q76 85 76 117t-8 51z" />
    <glyph glyph-name="Y" unicode="Y" horiz-adv-x="1556" 
d="M846 219v-24q0 -75 55 -99t174 -28l-8 -68h-668l9 68q127 4 174 27q86 42 98 143l51 428l-424 780q-23 43 -51 61q-29 18 -82 23l8 67h574l-8 -67q-132 0 -182 -22t-50 -67t27 -91l311 -588l457 577q67 86 41 138q-26 53 -199 53l8 67h516l-8 -67q-53 -6 -85 -22t-68 -62
l-619 -774l-47 -404q-4 -33 -4 -49z" />
    <glyph glyph-name="Z" unicode="Z" horiz-adv-x="1476" 
d="M872 90q76 0 125 8t95 37t96 86q51 57 131 156h45l-117 -377h-1198l4 41l1184 1466h-551q-140 0 -218 -56t-157 -206h-45l51 352h1166l-4 -43l-1188 -1464h581z" />
    <glyph glyph-name="bracketleft" unicode="[" horiz-adv-x="681" 
d="M242 -180h245l-12 -86h-346l240 1966h346l-10 -86h-246z" />
    <glyph glyph-name="backslash" unicode="\" horiz-adv-x="774" 
d="M240 1700h108l354 -1948h-108z" />
    <glyph glyph-name="bracketright" unicode="]" horiz-adv-x="681" 
d="M508 1614h-246l10 86h346l-239 -1966h-346l12 86h246z" />
    <glyph glyph-name="asciicircum" unicode="^" horiz-adv-x="974" 
d="M209 819h-131l475 799h131l283 -799h-125l-236 686z" />
    <glyph glyph-name="underscore" unicode="_" horiz-adv-x="614" 
d="M-37 -410l17 109h532l-16 -109h-533z" />
    <glyph glyph-name="grave" unicode="`" horiz-adv-x="1228" 
d="M629 1638l172 -426h-68l-305 426h201z" />
    <glyph glyph-name="a" unicode="a" horiz-adv-x="1257" 
d="M346 78q59 0 121 51q115 96 247 329t169 449q-13 47 -59 80t-107 33q-101 0 -187 -66q-174 -133 -252 -401q-38 -127 -38 -239t23 -175q24 -61 83 -61zM748 119q0 109 81 413h-8q-104 -249 -259 -414q-127 -138 -257 -138q-227 0 -227 307q0 150 53 294q111 300 339 441
q112 70 212 70q181 0 231 -117l134 135h55l-72 -227q-78 -319 -112 -601q-10 -83 -10 -133t48 -51q70 0 195 168l47 -33q-131 -255 -307 -253q-143 0 -143 139z" />
    <glyph glyph-name="b" unicode="b" horiz-adv-x="1214" 
d="M969 778q1 106 -21 157q-22 50 -80 50q-154 0 -378 -292q-123 -161 -188 -325q-30 -77 -30 -127t18 -83q50 -94 181 -95q131 -2 222 67q180 136 245 412q31 130 31 236zM186 1526l2 33l299 100h43q-141 -844 -249 -1178h8q110 239 267 407q189 202 364 204
q214 0 216 -286q2 -136 -52 -286t-144 -270t-212 -195t-262 -75t-233 64q-92 65 -120 153q31 158 68 344q149 731 163 925z" />
    <glyph glyph-name="c" unicode="c" horiz-adv-x="923" 
d="M459 84q180 0 321 227l54 -37q-106 -202 -281 -270q-63 -24 -145 -24q-164 1 -252 115q-78 99 -78 253t42 288q85 272 300 396q104 60 226 60t186 -55q63 -55 63 -126q-1 -41 -21 -69t-45 -39h-67q-6 84 -47 139t-126 55q-160 0 -259 -187q-92 -170 -90 -394
q0 -166 50 -249t169 -83z" />
    <glyph glyph-name="d" unicode="d" horiz-adv-x="1288" 
d="M920 903q-53 117 -208 117q-83 0 -171 -66q-178 -133 -258 -401q-39 -127 -39 -250q0 -225 123 -225q106 0 262 205t251 472q28 79 40 148zM322 -20q-244 0 -244 311q0 146 54 290q113 301 348 441q116 70 237 70q68 0 128 -26t93 -73q10 55 39 198t45 275l-158 60l2 33
l303 100h41q-16 -82 -61 -306t-88 -457t-84 -454t-41 -282t49 -62q74 0 195 168l47 -33q-126 -255 -305 -253q-144 0 -144 157q0 86 82 393h-8q-62 -149 -166 -292q-104 -142 -191 -200t-173 -58z" />
    <glyph glyph-name="e" unicode="e" horiz-adv-x="964" 
d="M78 373q0 131 40 260q83 268 293 395q105 64 226 64t189 -50t67 -143q0 -94 -47 -161t-156 -136t-459 -188v-21q0 -238 138 -295q41 -16 88 -16q127 0 210 64t150 167l53 -37q-68 -135 -182 -216t-256 -80q-180 0 -267 103t-87 290zM598 1004q-136 0 -243 -162
q-90 -141 -117 -350q269 99 386 184t115 194q0 59 -33 97q-34 37 -108 37z" />
    <glyph glyph-name="f" unicode="f" horiz-adv-x="720" 
d="M-129 -512q-133 0 -197 50q-63 50 -63 110q0 105 74 133h67q13 -207 160 -207q162 0 230 236q26 86 44 213l131 960h-155l18 88h148l14 94q29 216 155 355t308 139q104 0 151 -42q48 -41 48 -97q1 -91 -62 -129h-63q-13 172 -164 172q-78 0 -128 -66t-73 -219l-31 -207
h293l-18 -88h-289l-129 -846q-51 -337 -167 -493t-302 -156z" />
    <glyph glyph-name="g" unicode="g" horiz-adv-x="1093" 
d="M991 905q0 95 -53 95q-45 -1 -86 -23q61 -77 61 -187q0 -213 -129 -349t-317 -136q-49 0 -96 10q-89 -51 -89 -103q0 -30 19 -44q18 -14 51 -25l299 -94q121 -41 164 -78q84 -72 84 -182q0 -135 -149 -218t-364 -83q-216 0 -353 82t-135 211q0 200 323 268
q-47 41 -47 109q0 97 139 180q-161 74 -161 279t131 340t317 135q139 0 221 -82q35 47 85 80q50 32 104 32t84 -28t30 -71q0 -44 -24 -76t-56 -42h-53zM51 -194q0 -121 97 -180q97 -60 266 -60t263 55q93 55 93 148q0 71 -49 99t-131 54l-316 101q-119 -41 -171 -93
q-52 -54 -52 -124zM768 774q0 240 -190 240q-109 0 -193 -107t-84 -284q1 -106 43 -173t149 -67t191 107t84 284z" />
    <glyph glyph-name="h" unicode="h" horiz-adv-x="1292" 
d="M768 102q0 100 58 315t81 335t23 156t-9 56t-44 19q-115 0 -320 -308q-120 -183 -220 -433q-48 -121 -81 -242h-143q46 228 132 703q87 475 122 763l-158 60l2 33l299 100h41q-167 -1014 -266 -1340h8q203 502 457 698q96 75 198 75q131 0 131 -150q0 -124 -77 -418
q-77 -293 -77 -359q1 -66 52 -67q74 0 192 168l50 -33q-131 -255 -308 -253q-67 0 -105 36q-38 34 -38 86z" />
    <glyph glyph-name="i" unicode="i" horiz-adv-x="749" 
d="M227 108q-1 128 67 415q68 288 68 401q0 43 -44 43t-103 -52q-58 -52 -113 -135l-57 31q73 145 162 212t166 68t111 -35t34 -104q0 -98 -49 -316q-86 -381 -86 -480q0 -57 51 -58q72 0 193 168l49 -33q-131 -255 -307 -253q-68 0 -105 36t-37 92zM596 1428q0 -48 -35 -88
t-86 -40t-84 32t-33 81t35 88t86 39t84 -32t33 -80z" />
    <glyph glyph-name="j" unicode="j" horiz-adv-x="636" 
d="M-82 -240q0 -194 87 -194q46 0 77 24q62 47 107 237q24 97 47 245l112 719q12 78 12 127t-38 49q-97 0 -220 -187l-57 31q73 145 162 212t166 68t111 -35t34 -98t-10 -133l-80 -514q-69 -454 -168 -639q-99 -184 -270 -184q-109 0 -162 47t-53 103q0 92 75 122h68z
M602 1428q0 -48 -35 -88t-86 -40t-84 32t-33 81t35 88t86 39t84 -32t33 -80z" />
    <glyph glyph-name="k" unicode="k" horiz-adv-x="1206" 
d="M844 1092q106 0 158 -52t53 -137q0 -229 -367 -399l123 -289q31 -73 51 -97t58 -24q95 0 204 168l52 -33q-142 -251 -318 -249q-66 0 -104 43t-70 127l-125 315q-115 -33 -227 -57l-78 -408h-141q37 201 76 408q143 739 178 1058l-158 60l2 33l299 100h41
q-78 -521 -154 -883q111 170 226 243t221 73zM778 983q-118 0 -276 -167q-55 -58 -123 -140l-37 -195q539 115 541 385q0 117 -105 117z" />
    <glyph glyph-name="l" unicode="l" horiz-adv-x="647" 
d="M133 129q0 105 107 653t122 684l-157 60l2 33l287 100h41q-20 -232 -135 -809q-115 -578 -115 -694q0 -57 49 -58q76 0 194 168l47 -33q-126 -255 -305 -253q-137 -1 -137 149z" />
    <glyph glyph-name="m" unicode="m" horiz-adv-x="1992" 
d="M965 983q-63 0 -145 -85q-172 -177 -327 -539q-77 -177 -133 -359h-143l152 848q8 36 8 78t-43 41q-43 0 -105 -53q-61 -53 -112 -134l-58 31q73 145 162 212t166 68q78 1 113 -35t35 -81t-29 -174l-115 -482h8q206 508 436 698q91 75 191 75q133 0 133 -150
q0 -95 -33 -213l-108 -410h8q207 511 432 697q92 76 195 76q129 0 129 -150q0 -114 -54 -323q-54 -208 -76 -307q-24 -99 -24 -156t49 -58q74 0 195 168l47 -33q-131 -255 -305 -253q-143 0 -144 139q0 83 58 298t81 335t23 156t-8 56t-37 19q-63 0 -144 -85
q-170 -178 -326 -539q-77 -177 -130 -359h-143q154 742 162 913q0 70 -41 70z" />
    <glyph glyph-name="n" unicode="n" horiz-adv-x="1396" 
d="M1016 -20q-142 0 -142 141q0 70 62 316q62 245 80 339q18 96 18 132t-9 56t-44 19q-73 0 -200 -146q-127 -151 -209 -313q-150 -296 -212 -524h-143l152 848q8 36 8 78t-43 41q-43 0 -105 -53q-61 -53 -112 -134l-58 31q73 145 162 212t166 68q78 1 113 -35t35 -81
t-29 -174l-117 -482h8q202 499 457 698q96 75 199 75q131 0 131 -150q0 -114 -54 -323q-54 -208 -76 -307q-24 -99 -24 -156t51 -58q72 0 193 168l49 -33q-131 -255 -307 -253z" />
    <glyph glyph-name="o" unicode="o" horiz-adv-x="1048" 
d="M453 68q160 0 260 177t100 421q0 336 -217 338q-82 0 -149 -50q-131 -99 -186 -324q-25 -108 -25 -245t53 -227t164 -90zM436 -20q-110 0 -174 30q-184 89 -184 361q0 127 38 256q80 272 281 400q102 65 213 65q191 0 275 -106t85 -260q1 -153 -37 -282t-110 -232
q-72 -104 -174 -168q-103 -64 -213 -64z" />
    <glyph glyph-name="p" unicode="p" horiz-adv-x="1327" 
d="M592 57q123 0 214 69q176 134 245 415q31 131 31 237t-22 156q-22 49 -82 49q-109 0 -246 -144q-201 -217 -314 -515q-35 -92 -49 -172q33 -47 95 -71t128 -24zM486 1056q36 -36 36 -90t-28 -165l-88 -340h10q181 419 421 571q93 60 175 60t122 -23q114 -63 115 -270
q0 -139 -50 -289q-105 -315 -344 -459q-119 -71 -265 -71t-236 75q-59 -328 -59 -371t17 -71t64 -35q46 -8 81 -12l-11 -58h-491l10 58q85 5 115 20q53 27 65 97l209 1165q8 36 8 78t-44 41q-44 0 -103 -52q-58 -52 -113 -135l-55 31q138 276 336 281q67 0 103 -36z" />
    <glyph glyph-name="q" unicode="q" horiz-adv-x="1175" 
d="M322 -20q-244 0 -244 311q0 146 54 290q113 301 348 441q116 70 237 70q63 0 125 -29t92 -88l147 135h54l-72 -227q-33 -144 -128 -631t-95 -573q0 -87 97 -104q30 -5 64 -9l-10 -58h-491l10 58q83 4 113 20q53 27 65 97q99 608 172 847h-8q-62 -149 -166 -292
q-104 -142 -191 -200t-173 -58zM920 903q-53 117 -208 117q-83 0 -171 -66q-178 -133 -258 -401q-39 -127 -39 -250q0 -225 123 -225q106 0 262 205t251 472q28 79 40 148z" />
    <glyph glyph-name="r" unicode="r" horiz-adv-x="1021" 
d="M891 848q0 86 -57 86q-84 0 -221 -270q-138 -270 -253 -664h-143l152 848q8 36 8 78t-43 41q-43 0 -105 -53q-61 -53 -112 -134l-58 31q78 156 169 218q91 63 164 63t105 -36q31 -36 31 -83t-28 -172l-109 -482h8q90 246 171 414q172 357 348 359q121 0 120 -113
q0 -45 -28 -80t-58 -51h-61z" />
    <glyph glyph-name="s" unicode="s" horiz-adv-x="839" 
d="M31 177q0 83 75 108h46q16 -102 72 -165t150 -63t133 41q40 42 40 104q0 99 -93 215q-40 48 -118 126q-150 149 -150 275t86 200t228 74t211 -52q68 -52 67 -131q0 -33 -17 -59t-46 -37h-53q-10 80 -64 136q-54 57 -132 57q-76 0 -112 -36t-37 -89q0 -53 27 -103
q43 -79 154 -194q180 -188 180 -321q0 -134 -95 -209q-95 -74 -245 -74t-229 57q-78 57 -78 140z" />
    <glyph glyph-name="t" unicode="t" horiz-adv-x="806" 
d="M307 152q0 -66 55 -66q66 0 146 66t143 163l56 -36q-126 -207 -280 -276q-54 -24 -112 -23q-147 0 -147 149q0 51 12 129l123 725h-149l12 55q92 41 162 109t141 153h35l-41 -229h282l-16 -88h-283l-124 -713q-15 -88 -15 -118z" />
    <glyph glyph-name="u" unicode="u" horiz-adv-x="1337" 
d="M831 112q0 62 37 214t109 426h-8q-139 -343 -231 -483q-93 -140 -183 -215t-197 -74q-72 0 -110 45t-39 144q0 99 76 391q76 293 75 364q0 43 -44 43t-103 -52q-58 -52 -113 -135l-57 31q73 145 162 212t166 68q79 1 113 -35t34 -103t-80 -372q-78 -316 -79 -404
q-1 -89 69 -89q122 0 286 291t290 692h147q-160 -752 -160 -915q0 -57 51 -58q68 0 193 168l47 -33q-131 -255 -307 -253q-68 0 -106 36q-38 34 -38 96z" />
    <glyph glyph-name="v" unicode="v" horiz-adv-x="1122" 
d="M920 823q0 76 -50 111t-127 35v47q40 74 139 75t139 -55t40 -142q0 -167 -187 -444q-148 -224 -370 -470h-70q-30 269 -73 520q-43 252 -61 319q-20 67 -36 103t-61 36t-84 -43t-84 -114l-55 30q107 214 216 249q152 49 211 -97q72 -202 123 -652q12 -105 17 -188
q373 429 373 680z" />
    <glyph glyph-name="w" unicode="w" horiz-adv-x="1677" 
d="M1473 823q-1 76 -49 111t-126 35v47q40 74 139 75t139 -55t40 -142q0 -170 -156 -426t-364 -488h-80q-55 576 -101 737h-8q-91 -308 -407 -737h-84q-81 710 -108 808q-28 98 -44 134t-61 36t-84 -43t-84 -114l-55 30q107 214 216 249q152 49 211 -97q71 -200 110 -654
q9 -105 13 -188q124 166 196 317q134 276 134 408q0 52 -26 108t-54 85q69 52 135 25q65 -23 99 -162q52 -223 85 -463t38 -324q221 260 307 523q29 89 29 165z" />
    <glyph glyph-name="x" unicode="x" horiz-adv-x="1175" 
d="M848 90q79 0 203 166l41 -41q-74 -123 -144 -179t-154 -56t-129 66q-44 66 -69 214l-29 172q-106 -229 -201 -341q-95 -111 -208 -111t-151 70q-13 24 -13 59q0 80 78 120h37q17 -122 106 -120q137 0 330 426l-33 186q-27 148 -48 189q-20 42 -38 50t-41 9
q-79 0 -190 -174l-52 34q134 257 310 263q88 0 126 -73t62 -216l18 -111q92 194 151 264q58 70 112 103t118 33t106 -32t42 -98t-74 -120h-49q-15 121 -94 121q-98 0 -215 -228q-37 -70 -76 -155l55 -273q28 -138 44 -168q15 -31 31 -40t38 -9z" />
    <glyph glyph-name="y" unicode="y" horiz-adv-x="1136" 
d="M920 680q0 158 -56 224q-56 67 -159 67v45q46 76 147 76q100 0 146 -71t46 -165q0 -281 -145 -584q-55 -115 -149 -266q-266 -427 -543 -498q-83 -20 -151 -20q-196 0 -261 103q-20 34 -20 76t21 73q22 31 57 41h55q25 -189 205 -191q117 0 209 50t184 159
q-20 230 -84 548q-63 318 -117 482q-15 59 -35 95t-65 34q-45 0 -84 -43t-84 -114l-57 30q106 213 218 249q153 50 216 -95q61 -153 125 -485q63 -332 79 -563q135 217 219 401q83 184 83 342z" />
    <glyph glyph-name="z" unicode="z" horiz-adv-x="1118" 
d="M25 57q0 77 43 141t155 146l672 494q-93 3 -211 40q-120 38 -184 54t-127 16q-105 0 -105 -84q0 -58 62 -88l-25 -57q-47 18 -82 56t-35 99q0 104 66 160t182 58q68 0 126 -18t120 -41q169 -66 297 -77v113q12 23 39 23q61 0 61 -77t-46 -138t-154 -144l-695 -510
q67 23 136 23t123 -20q53 -20 105 -46q134 -65 226 -65q136 0 135 94q0 33 -17 52t-46 42l28 49q45 -24 78 -60t33 -117q1 -81 -65 -138t-172 -57t-176 24q-71 24 -132 52q-61 30 -118 54q-56 24 -114 24t-83 -19v-113q-13 -22 -41 -22q-59 0 -59 77z" />
    <glyph glyph-name="braceleft" unicode="{" horiz-adv-x="839" 
d="M102 762q332 0 332 307l-12 213q0 188 84 287q109 131 371 131l-11 -86q-282 0 -328 -183q-27 -109 -9 -259q7 -56 8 -109q1 -115 -61 -211t-197 -135q186 -59 186 -248q0 -51 -16 -103t-51 -156t-35 -198q-1 -94 63 -143t221 -49l-10 -86q-300 0 -357 167
q-36 106 -2 236q15 61 33 117q49 154 49 210q0 99 -60 153t-208 55z" />
    <glyph glyph-name="bar" unicode="|" horiz-adv-x="526" 
d="M229 -248h-106l237 1948h107z" />
    <glyph glyph-name="braceright" unicode="}" horiz-adv-x="839" 
d="M782 672q-331 0 -331 -307l12 -213q0 -186 -84 -287q-109 -131 -371 -131l10 86q283 0 329 183q15 60 15 140l-14 228q0 115 62 211t196 135q-186 59 -186 248q0 51 16 103t34 108t36 115q16 60 16 141q0 82 -63 132t-221 50l10 86q300 0 357 -167q36 -107 2 -237
q-15 -61 -48 -162t-34 -155q-1 -105 60 -161q62 -56 208 -56z" />
    <glyph glyph-name="asciitilde" unicode="~" horiz-adv-x="1071" 
d="M336 801q80 1 139 -19t115 -43t107 -42t103 -19t78 27t60 92h74q-42 -100 -102 -169t-140 -69q-80 -1 -139 19t-115 44t-107 43q-53 19 -103 19t-77 -28t-61 -93h-74q42 100 102 169t140 69z" />
    <glyph glyph-name="nonbreakingspace" unicode="&#xa0;" horiz-adv-x="491" 
 />
    <glyph glyph-name="exclamdown" unicode="&#xa1;" horiz-adv-x="645" 
d="M127 -397l115 598q67 342 90 501h78q-10 -98 -18 -235t-15 -266l-33 -598l-10 -95h-217zM537 997q0 -53 -38 -92t-91 -39t-93 39q-39 39 -39 92t39 91t93 38t91 -38q38 -38 38 -91z" />
    <glyph glyph-name="cent" unicode="&#xa2;" horiz-adv-x="1093" 
d="M555 289h23q161 0 303 149q43 45 77 97l64 -39q-118 -211 -326 -287q-74 -27 -159 -27h-35l-58 -194h-90l62 209q-138 35 -205 143q-66 108 -67 258q-1 148 38 280q80 269 308 405q114 67 266 79l73 248h89l-72 -248q129 -8 188 -66q60 -58 60 -114q1 -87 -76 -125h-80
q-9 151 -125 194l-281 -960q10 -2 23 -2zM315 631q0 -250 136 -316l276 949q-106 -4 -184 -61q-149 -107 -203 -343q-25 -110 -25 -229z" />
    <glyph glyph-name="sterling" unicode="&#xa3;" horiz-adv-x="1572" 
d="M1470 261q0 -148 -89 -215t-236 -66q-198 0 -461 174q-66 43 -119 75q-103 -251 -332 -249q-109 0 -163 56t-54 156t76 163t181 63t182 -43l90 399h-254l12 86h260l72 316q49 218 171 330t333 112q141 0 225 -62t84 -159q0 -39 -20 -70t-52 -41h-119q11 44 11 74
q0 120 -88 161q-33 15 -86 15q-193 0 -283 -389l-78 -287h445l-15 -86h-452l-119 -448q61 -25 132 -59q70 -33 142 -65q304 -134 432 -30q56 45 56 128t-72 138l39 45q149 -74 149 -222zM123 192q1 -118 117 -118q58 0 110 50q53 50 82 167q-64 35 -145 36q-82 1 -123 -38
t-41 -97z" />
    <glyph glyph-name="currency" unicode="&#xa4;" horiz-adv-x="1288" 
d="M164 596q0 212 127 352l-96 111l84 71l98 -110q121 80 296 80t300 -103l151 136l70 -80l-150 -133q74 -109 74 -250q0 -211 -127 -353l96 -110l-83 -72l-99 111q-121 -80 -294 -80t-302 100l-151 -133l-70 80l150 133q-74 108 -74 250zM961 662q0 162 -74 254t-227 92
t-247 -123q-93 -123 -92 -283t75 -252t226 -92q153 0 246 121t93 283z" />
    <glyph glyph-name="yen" unicode="&#xa5;" horiz-adv-x="1501" 
d="M1276 1438q0 26 -8 43q-24 49 -197 49l8 67h516l-8 -67q-53 -6 -86 -22t-67 -62l-447 -598h361l-11 -84h-413l-68 -92l-6 -39h471l-8 -82h-471l-33 -283q-4 -33 -4 -49v-24q0 -75 55 -99t174 -28l-8 -68h-664l9 68q127 4 174 27q86 42 98 143l37 313h-457l8 82h459l4 33
l-49 98h-397l10 84h346l-293 598q-20 41 -50 60t-83 24l8 67h570l-8 -67q-132 0 -182 -22t-50 -67t27 -91l270 -588l416 577q16 25 32 49q15 24 15 50z" />
    <glyph glyph-name="brokenbar" unicode="&#xa6;" horiz-adv-x="526" 
d="M229 -248h-106l102 832h107zM367 868h-107l100 832h107z" />
    <glyph glyph-name="section" unicode="&#xa7;" horiz-adv-x="1044" 
d="M913 1440q0 131 -139 131q-113 0 -167 -67q-54 -68 -54 -180t44 -213t97 -215q54 -114 98 -250t44 -300q0 -338 -160 -583q-80 -123 -201 -199t-282 -76q-203 0 -258 110q-15 32 -15 66q0 92 107 137h114q-14 -25 -14 -77q0 -131 137 -132q113 0 167 67t54 179t-44 215
q-44 102 -96 215q-140 304 -140 524q0 362 157 608q176 275 501 275q126 0 192 -53q65 -52 65 -118t-36 -96t-72 -44h-115q16 29 16 76zM293 840q0 -170 45 -300t98 -250q52 -120 98 -231t46 -194t-23 -125q82 98 135 256t53 328t-45 301t-98 251t-98 230t-45 191
q0 80 22 128q-82 -98 -135 -257t-53 -328z" />
    <glyph glyph-name="dieresis" unicode="&#xa8;" horiz-adv-x="1228" 
d="M405 1286q-51 0 -83 32t-33 81q0 49 35 88t86 39t84 -32q32 -32 32 -81t-35 -88t-86 -39zM815 1286q-51 0 -84 32t-33 81t35 88t86 39t84 -32t33 -81t-35 -88t-86 -39z" />
    <glyph glyph-name="copyright" unicode="&#xa9;" horiz-adv-x="1822" 
d="M131 799q0 169 65 319q132 305 435 435q149 65 319 65t320 -65q305 -132 435 -435q65 -150 65 -320t-66 -319q-131 -305 -434 -435q-150 -64 -320 -64t-320 64q-304 131 -434 435q-65 150 -65 320zM193 798q0 -157 59 -294q58 -136 162 -240t241 -164t294 -59
q157 0 295 59q282 120 405 404q59 137 59 294t-59 295q-120 281 -405 404q-138 59 -295 59t-294 -59t-240 -163t-163 -241q-60 -138 -59 -295zM934 365q139 1 226 71t153 189h45l-66 -252q-163 -88 -372 -87q-210 1 -340 119q-131 118 -129 322q0 234 156 414t419 180
q204 0 348 -104l-24 -218h-39q-29 123 -98 181t-184 59q-210 0 -314 -151q-103 -151 -103 -347t92 -286t230 -90z" />
    <glyph glyph-name="ordfeminine" unicode="&#xaa;" horiz-adv-x="907" 
d="M264 959q0 -168 78 -168t180 153q138 193 172 414q-30 70 -104 70q-138 -1 -232 -151t-94 -318zM606 809q0 38 24 145t32 140h-5q-38 -98 -107 -199q-127 -188 -257 -188q-166 0 -166 219t141 393q139 172 327 172q99 0 144 -80l92 92h52l-52 -160q-25 -107 -54 -268
t-32 -237q0 -39 31 -39q50 0 129 106l39 -26q-99 -172 -229 -172q-109 0 -109 102z" />
    <glyph glyph-name="guillemotleft" unicode="&#xab;" horiz-adv-x="950" 
d="M133 571l393 390h76l-311 -400l213 -399h-76l-297 389zM457 571l391 390h76l-312 -400l213 -399h-75l-295 389z" />
    <glyph glyph-name="logicalnot" unicode="&#xac;" 
d="M1184 1075h-996l11 96h1106l-93 -745h-106z" />
    <glyph glyph-name="uni00AD" unicode="&#xad;" horiz-adv-x="712" 
d="M127 633l16 119h508l-16 -119h-508z" />
    <glyph glyph-name="registered" unicode="&#xae;" horiz-adv-x="964" 
d="M184 1236q0 157 110 269q110 113 269 113q157 0 269 -112t112 -268q0 -158 -112 -269t-271 -111q-78 0 -146 30q-140 60 -201 200q-30 68 -30 148zM562 905q133 0 230 98t97 233t-95 234q-96 99 -230 99t-230 -98t-96 -234t96 -234q95 -98 228 -98zM604 1462
q156 0 156 -108q0 -59 -44 -89t-91 -36l75 -103q25 -33 41 -49t39 -16l-2 -33h-86q-39 34 -80 92l-67 101h-41l-10 -82q-5 -25 -5 -42q0 -36 50 -36l-4 -33h-181l4 33q35 0 43 11t13 40l30 242q9 55 0 65q-10 10 -41 11l5 32h196zM563 1255q117 0 117 99q0 68 -86 67h-64
l-22 -166h55z" />
    <glyph glyph-name="macron" unicode="&#xaf;" horiz-adv-x="1228" 
d="M350 1442h541l-12 -107h-541z" />
    <glyph glyph-name="degree" unicode="&#xb0;" horiz-adv-x="995" 
d="M765 1458q-60 68 -176 68t-197 -90q-81 -92 -81 -220q1 -130 61 -198t175 -68t198 92q82 92 81 219q-1 129 -61 197zM548 858q-172 0 -265 98t-93 257q0 160 114 283q114 122 284 122t265 -98t93 -242q0 -177 -113 -298q-113 -122 -285 -122z" />
    <glyph glyph-name="plusminus" unicode="&#xb1;" 
d="M684 672h-496l13 104h495l45 361h115l-45 -361h496l-13 -104h-495l-45 -361h-115zM121 119l12 98h1106l-12 -98h-1106z" />
    <glyph glyph-name="twosuperior" unicode="&#xb2;" horiz-adv-x="784" 
d="M459 721q101 0 145 25t107 122h45l-80 -262h-637l4 29q180 160 292 263q209 192 251 305q20 56 20 132t-47 119t-129 43t-134 -32q-51 -32 -112 -99l-32 29q53 92 133 153q81 62 209 62t199 -68t71 -166t-39 -172q-65 -124 -271 -299q-95 -80 -208 -184h213z" />
    <glyph glyph-name="threesuperior" unicode="&#xb3;" horiz-adv-x="802" 
d="M629 1387q0 55 -37 89t-110 34q-124 -1 -238 -142l-35 33q125 206 332 209q117 0 177 -56t60 -149q0 -94 -83 -160q-52 -42 -158 -78q115 -14 178 -85t63 -163t-33 -151q-63 -112 -202 -155q-67 -19 -141 -19q-150 0 -224 64q-75 64 -78 147q0 45 23 75t53 42h78
q-10 -58 -10 -88q0 -70 41 -125t137 -55t151 60q55 62 55 164t-51 161q-52 58 -143 59q-36 0 -90 -13l-12 43q204 66 272 168q24 38 25 91z" />
    <glyph glyph-name="acute" unicode="&#xb4;" horiz-adv-x="1228" 
d="M872 1638l-448 -426h-68l297 426h219z" />
    <glyph glyph-name="paragraph" unicode="&#xb6;" horiz-adv-x="1462" 
d="M211 1137q0 232 164 347t426 113h645l-8 -71q-115 -4 -180 -34t-76 -132l-228 -1852h-94l246 2022h-197l-245 -2022h-97l152 1246q-236 0 -372 98t-136 285z" />
    <glyph glyph-name="periodcentered" unicode="&#xb7;" horiz-adv-x="651" 
d="M233 674q0 53 38 92t91 39q52 0 92 -39t40 -92t-39 -91t-93 -38t-91 38q-38 38 -38 91z" />
    <glyph glyph-name="cedilla" unicode="&#xb8;" horiz-adv-x="1228" 
d="M721 -326q0 130 -223 152l104 199h60l-56 -111q157 -22 210 -125q19 -37 20 -86q0 -109 -69 -162t-148 -53q-140 0 -224 82l39 45q75 -49 164 -49q45 0 84 24t39 84z" />
    <glyph glyph-name="onesuperior" unicode="&#xb9;" horiz-adv-x="694" 
d="M481 738q-1 -26 15 -39q36 -30 200 -37l-6 -56h-606l4 56q131 5 174 17q42 13 62 31t24 52l78 641h-248l4 47l76 12q161 24 235 86q30 25 60 62h35l-103 -826q-4 -20 -4 -46z" />
    <glyph glyph-name="ordmasculine" unicode="&#xba;" horiz-adv-x="768" 
d="M406 772q105 0 170 127t65 297q0 229 -133 229q-106 0 -171 -127t-67 -299q0 -227 136 -227zM515 1491q269 0 269 -299q0 -76 -27 -165q-61 -193 -205 -277q-75 -44 -155 -43q-270 1 -270 299q0 76 28 164q60 191 205 277q74 44 155 44z" />
    <glyph glyph-name="guillemotright" unicode="&#xbb;" horiz-adv-x="950" 
d="M539 551l-396 -389h-75l311 399l-213 400h76l299 -390zM860 551l-395 -389h-74l311 399l-213 400h74l299 -390z" />
    <glyph glyph-name="onequarter" unicode="&#xbc;" horiz-adv-x="1875" 
d="M481 738q-1 -26 15 -39q36 -30 200 -37l-6 -56h-606l4 56q131 5 174 17q42 13 62 31t24 52l78 641h-248l4 47l76 12q161 24 235 86q30 25 60 62h35l-103 -826q-4 -20 -4 -46zM1673 1597h115l-1309 -1597h-114zM1513 330l56 461l-441 -461h385zM1473 0l30 258h-489l4 53
l643 680h70l-80 -661h161l-10 -72h-162l-30 -258h-137z" />
    <glyph glyph-name="onehalf" unicode="&#xbd;" horiz-adv-x="2015" 
d="M1628 115q101 0 135 19q58 33 117 128h45l-80 -262h-637l4 29q180 160 292 263q209 192 251 305q21 56 21 132t-47 119t-109 43q-136 0 -217 -81q-25 -24 -49 -50l-33 28q53 92 133 154t209 62t200 -68t71 -166t-40 -172t-108 -146t-163 -153q-95 -80 -208 -184h213z
M481 738q-1 -26 15 -39q36 -30 200 -37l-6 -56h-606l4 56q131 5 174 17q42 13 62 31t24 52l78 641h-248l4 47l76 12q161 24 235 86q30 25 60 62h35l-103 -826q-4 -20 -4 -46zM1673 1597h115l-1309 -1597h-114z" />
    <glyph glyph-name="threequarters" unicode="&#xbe;" horiz-adv-x="1890" 
d="M629 1387q0 55 -37 89t-110 34q-124 -1 -238 -142l-35 33q125 206 332 209q117 0 177 -56t60 -149q0 -94 -83 -160q-52 -42 -158 -78q115 -14 178 -85t63 -163t-33 -151q-63 -112 -202 -155q-67 -19 -141 -19q-150 0 -224 64q-75 64 -78 147q0 45 23 75t53 42h78
q-10 -58 -10 -88q0 -70 41 -125t137 -55t151 60q55 62 55 164t-51 161q-52 58 -143 59q-36 0 -90 -13l-12 43q204 66 272 168q24 38 25 91zM1688 1597h114l-1308 -1597h-115zM1528 330l55 461l-440 -461h385zM1487 0l31 258h-490l4 53l643 680h70l-80 -661h162l-10 -72h-162
l-31 -258h-137z" />
    <glyph glyph-name="questiondown" unicode="&#xbf;" horiz-adv-x="1050" 
d="M88 -203q0 221 192 350q60 41 132 82q141 81 199 156q57 76 59 205v69h53q51 -99 51 -205t-72 -184t-164 -132q-165 -95 -207 -145q-75 -90 -75 -201t66 -181t188 -70t184 66q61 66 62 166q0 57 -11 94h142q39 -43 40 -114q2 -135 -119 -216q-121 -82 -310 -83t-299 97
q-111 98 -111 246zM852 963q0 -53 -38 -93t-91 -39q-53 0 -92 39q-39 38 -39 92t39 92t92 38t91 -38t38 -91z" />
    <glyph glyph-name="Agrave" unicode="&#xc0;" horiz-adv-x="1609" 
d="M1137 532h-686l-136 -256q-74 -145 -3 -182q49 -22 169 -26l-8 -68h-496l9 68q53 4 92 21t63 65l717 1343l-35 127h181l409 -1470q12 -46 47 -64t82 -22l-8 -68h-553l8 68q127 2 183 19t56 62t-22 130zM500 625h610l-207 753zM797 2109l172 -426h-68l-305 426h201z" />
    <glyph glyph-name="Aacute" unicode="&#xc1;" horiz-adv-x="1609" 
d="M1137 532h-686l-136 -256q-74 -145 -3 -182q49 -22 169 -26l-8 -68h-496l9 68q53 4 92 21t63 65l717 1343l-35 127h181l409 -1470q12 -46 47 -64t82 -22l-8 -68h-553l8 68q127 2 183 19t56 62t-22 130zM500 625h610l-207 753zM1425 2109l-448 -426h-68l297 426h219z" />
    <glyph glyph-name="Acircumflex" unicode="&#xc2;" horiz-adv-x="1609" 
d="M1137 532h-686l-136 -256q-74 -145 -3 -182q49 -22 169 -26l-8 -68h-496l9 68q53 4 92 21t63 65l717 1343l-35 127h181l409 -1470q12 -46 47 -64t82 -22l-8 -68h-553l8 68q127 2 183 19t56 62t-22 130zM500 625h610l-207 753zM1303 1683h-70l-248 281l-334 -281h-69
l356 426h115z" />
    <glyph glyph-name="Atilde" unicode="&#xc3;" horiz-adv-x="1609" 
d="M1137 532h-686l-136 -256q-74 -145 -3 -182q49 -22 169 -26l-8 -68h-496l9 68q53 4 92 21t63 65l717 1343l-35 127h181l409 -1470q12 -46 47 -64t82 -22l-8 -68h-553l8 68q127 2 183 19t56 62t-22 130zM500 625h610l-207 753zM1094 1735q-45 0 -80 20t-67 45
q-31 25 -63 45q-32 21 -77 21t-81 -26t-79 -91l-72 12q113 226 287 228q45 -1 80 -21t67 -45q31 -25 63 -45t77 -20t81 26t79 90l71 -12q-114 -227 -286 -227z" />
    <glyph glyph-name="Adieresis" unicode="&#xc4;" horiz-adv-x="1609" 
d="M1137 532h-686l-136 -256q-74 -145 -3 -182q49 -22 169 -26l-8 -68h-496l9 68q53 4 92 21t63 65l717 1343l-35 127h181l409 -1470q12 -46 47 -64t82 -22l-8 -68h-553l8 68q127 2 183 19t56 62t-22 130zM500 625h610l-207 753zM768 1747q-51 0 -84 32t-33 81t35 88t86 39
t84 -32t33 -81t-35 -88t-86 -39zM1178 1747q-51 0 -84 32t-33 81t35 88t86 39t84 -32q32 -32 32 -81t-34 -88t-86 -39z" />
    <glyph glyph-name="Aring" unicode="&#xc5;" horiz-adv-x="1609" 
d="M1137 532h-686l-136 -256q-74 -145 -3 -182q49 -22 169 -26l-8 -68h-496l9 68q53 4 92 21t63 65l717 1343l-35 127h181l409 -1470q12 -46 47 -64t82 -22l-8 -68h-553l8 68q127 2 183 19t56 62t-22 130zM500 625h610l-207 753zM846 1866q0 -123 110 -123q76 0 111 54
t35 126q0 123 -111 123q-77 0 -111 -54t-34 -126zM994 2126q104 0 156 -58t52 -156q0 -100 -72 -174t-176 -75q-104 0 -156 57t-52 157q0 101 71 175q73 74 177 74z" />
    <glyph glyph-name="AE" unicode="&#xc6;" horiz-adv-x="2301" 
d="M1749 858q78 0 120 55t73 160h55l-64 -518h-55q-6 105 -36 159t-107 54h-451l41 -524q8 -93 68 -124q61 -30 202 -30h117q82 0 135 12q96 22 184 138q44 57 105 149h53l-118 -389h-1178l8 70q123 5 171 23q48 19 70 44t21 66v28q0 14 -2 37l-20 262h-645l-158 -254
q-39 -64 -39 -101t6 -53q13 -33 71 -41q58 -9 126 -11l-8 -70h-517l9 70q47 8 87 24t68 60l883 1341q-61 28 -201 33l8 69h1426l-41 -362h-41q-47 156 -108 214t-197 58h-643l51 -649h471zM1069 1403l-510 -782h576l-62 782h-4z" />
    <glyph glyph-name="Ccedilla" unicode="&#xc7;" horiz-adv-x="1591" 
d="M975 1618q323 0 545 -162l-27 -323h-45q-31 189 -165 290t-304 101q-316 0 -491 -245q-156 -221 -156 -546t142 -493t364 -168q289 0 464 234q56 75 105 167h57l-88 -369q-142 -92 -398 -117q-73 -7 -140 -7l-33 -66q157 -22 210 -125q19 -37 19 -86q0 -109 -68 -162
t-148 -53q-140 0 -224 82l39 45q75 -49 164 -49q45 0 84 24t39 84q0 130 -224 152l82 156q-286 16 -458 201q-173 184 -175 507q0 164 50 329q104 351 409 515q156 84 371 84z" />
    <glyph glyph-name="Egrave" unicode="&#xc8;" horiz-adv-x="1591" 
d="M850 2109l172 -426h-68l-305 426h201zM481 1411q0 93 -135 112q-43 5 -96 7l8 67h1288l-39 -362h-41q-47 156 -108 214t-197 58h-497l-80 -649h456q78 0 120 55t73 160h55l-63 -518h-56q-6 104 -35 159q-30 54 -108 54h-453l-55 -446q-8 -82 -8 -121q0 -63 52 -87
t177 -24h265q82 0 135 12q95 21 183 138q44 57 105 149h54l-119 -389h-1301l9 68q127 4 174 27q86 42 98 143l133 1091q6 49 6 82z" />
    <glyph glyph-name="Eacute" unicode="&#xc9;" horiz-adv-x="1591" 
d="M1442 2109l-449 -426h-67l297 426h219zM481 1411q0 93 -135 112q-43 5 -96 7l8 67h1288l-39 -362h-41q-47 156 -108 214t-197 58h-497l-80 -649h456q78 0 120 55t73 160h55l-63 -518h-56q-6 104 -35 159q-30 54 -108 54h-453l-55 -446q-8 -82 -8 -121q0 -63 52 -87
t177 -24h265q82 0 135 12q95 21 183 138q44 57 105 149h54l-119 -389h-1301l9 68q127 4 174 27q86 42 98 143l133 1091q6 49 6 82z" />
    <glyph glyph-name="Ecircumflex" unicode="&#xca;" horiz-adv-x="1591" 
d="M481 1411q0 93 -135 112q-43 5 -96 7l8 67h1288l-39 -362h-41q-47 156 -108 214t-197 58h-497l-80 -649h456q78 0 120 55t73 160h55l-63 -518h-56q-6 104 -35 159q-30 54 -108 54h-453l-55 -446q-8 -82 -8 -121q0 -63 52 -87t177 -24h265q82 0 135 12q95 21 183 138
q44 57 105 149h54l-119 -389h-1301l9 68q127 4 174 27q86 42 98 143l133 1091q6 49 6 82zM1327 1683h-70l-247 281l-334 -281h-70l357 426h114z" />
    <glyph glyph-name="Edieresis" unicode="&#xcb;" horiz-adv-x="1591" 
d="M793 1747q-51 0 -84 32t-33 81t35 88t86 39t84 -32t33 -81t-36 -88q-34 -39 -85 -39zM1202 1747q-51 0 -84 32t-33 81t35 88t86 39t84 -32t33 -81t-35 -88t-86 -39zM481 1411q0 93 -135 112q-43 5 -96 7l8 67h1288l-39 -362h-41q-47 156 -108 214t-197 58h-497l-80 -649
h456q78 0 120 55t73 160h55l-63 -518h-56q-6 104 -35 159q-30 54 -108 54h-453l-55 -446q-8 -82 -8 -121q0 -63 52 -87t177 -24h265q82 0 135 12q95 21 183 138q44 57 105 149h54l-119 -389h-1301l9 68q127 4 174 27q86 42 98 143l133 1091q6 49 6 82z" />
    <glyph glyph-name="Igrave" unicode="&#xcc;" horiz-adv-x="878" 
d="M506 186q0 -66 55 -90t176 -28l-8 -68h-668l9 68q127 4 174 27q86 42 98 143l133 1091q6 50 6 82q0 93 -135 112q-43 5 -96 7l8 67h668l-8 -67q-129 -5 -177 -28q-47 -23 -69 -56t-27 -86l-133 -1092q-6 -50 -6 -82zM453 2109l172 -426h-68l-305 426h201z" />
    <glyph glyph-name="Iacute" unicode="&#xcd;" horiz-adv-x="878" 
d="M506 186q0 -66 55 -90t176 -28l-8 -68h-668l9 68q127 4 174 27q86 42 98 143l133 1091q6 50 6 82q0 93 -135 112q-43 5 -96 7l8 67h668l-8 -67q-129 -5 -177 -28q-47 -23 -69 -56t-27 -86l-133 -1092q-6 -50 -6 -82zM1081 2109l-448 -426h-68l297 426h219z" />
    <glyph glyph-name="Icircumflex" unicode="&#xce;" horiz-adv-x="878" 
d="M506 186q0 -66 55 -90t176 -28l-8 -68h-668l9 68q127 4 174 27q86 42 98 143l133 1091q6 50 6 82q0 93 -135 112q-43 5 -96 7l8 67h668l-8 -67q-129 -5 -177 -28q-47 -23 -69 -56t-27 -86l-133 -1092q-6 -50 -6 -82zM958 1683h-69l-248 281l-334 -281h-69l356 426h115z
" />
    <glyph glyph-name="Idieresis" unicode="&#xcf;" horiz-adv-x="878" 
d="M506 186q0 -66 55 -90t176 -28l-8 -68h-668l9 68q127 4 174 27q86 42 98 143l133 1091q6 50 6 82q0 93 -135 112q-43 5 -96 7l8 67h668l-8 -67q-129 -5 -177 -28q-47 -23 -69 -56t-27 -86l-133 -1092q-6 -50 -6 -82zM420 1747q-51 0 -84 32t-33 81t35 88t86 39t84 -32
t33 -81t-35 -88t-86 -39zM829 1747q-51 0 -84 32t-33 81t36 88q35 39 86 39t84 -32q32 -32 32 -81t-35 -88t-86 -39z" />
    <glyph glyph-name="Eth" unicode="&#xd0;" horiz-adv-x="1757" 
d="M481 1411q0 93 -135 112q-43 5 -96 7l8 67h707q366 0 565 -199q176 -178 176 -466q0 -219 -68 -392q-136 -346 -470 -477q-163 -63 -355 -63h-752l9 68q127 4 174 27q86 42 98 143l64 530h-234l10 90h236l57 471q6 49 6 82zM799 90q316 0 517 211q200 211 201 618
t-327 542q-113 46 -268 46h-258l-80 -649h522l-10 -90h-525l-53 -446q-8 -82 -8 -133t49 -75t158 -24h82z" />
    <glyph glyph-name="Ntilde" unicode="&#xd1;" horiz-adv-x="1892" 
d="M1255 1735q-45 0 -79 20t-67 45q-31 25 -63 45q-32 21 -77 21t-81 -26t-79 -91l-72 12q113 226 287 228q45 -1 80 -21q34 -20 66 -45t64 -45t77 -20t81 26t78 90l72 -12q-113 -227 -287 -227zM1579 1404q0 40 -16 64q-29 43 -119 55q-43 5 -96 7l8 67h608l-8 -67
q-130 -5 -176 -28t-68 -56t-29 -86l-165 -1360h-66l-872 1303l-127 -1035q-7 -40 -7 -77q0 -71 63 -98q47 -20 169 -25l-8 -68h-609l9 68q127 4 174 27q86 42 98 143l141 1155q-71 93 -110 115q-38 22 -125 22l8 67h332l862 -1298l123 1030q6 35 6 75z" />
    <glyph glyph-name="Ograve" unicode="&#xd2;" horiz-adv-x="1656" 
d="M831 2109l173 -426h-68l-305 426h200zM1419 888q0 289 -129 463q-129 173 -348 173q-152 0 -266 -71q-226 -141 -305 -449q-39 -147 -39 -295q0 -291 129 -463t369 -172q132 0 244 70q226 140 306 450q39 146 39 294zM812 -20q-314 0 -490 185q-175 185 -177 511
q0 182 57 352q117 354 419 511q153 79 319 79q314 0 490 -186t176 -510q0 -182 -57 -353q-117 -355 -419 -511q-152 -78 -318 -78z" />
    <glyph glyph-name="Oacute" unicode="&#xd3;" horiz-adv-x="1656" 
d="M1464 2109l-448 -426h-68l297 426h219zM1419 888q0 289 -129 463q-129 173 -348 173q-152 0 -266 -71q-226 -141 -305 -449q-39 -147 -39 -295q0 -291 129 -463t369 -172q132 0 244 70q226 140 306 450q39 146 39 294zM812 -20q-314 0 -490 185q-175 185 -177 511
q0 182 57 352q117 354 419 511q153 79 319 79q314 0 490 -186t176 -510q0 -182 -57 -353q-117 -355 -419 -511q-152 -78 -318 -78z" />
    <glyph glyph-name="Ocircumflex" unicode="&#xd4;" horiz-adv-x="1656" 
d="M1419 888q0 289 -129 463q-129 173 -348 173q-152 0 -266 -71q-226 -141 -305 -449q-39 -147 -39 -295q0 -291 129 -463t369 -172q132 0 244 70q226 140 306 450q39 146 39 294zM812 -20q-314 0 -490 185q-175 185 -177 511q0 182 57 352q117 354 419 511q153 79 319 79
q314 0 490 -186t176 -510q0 -182 -57 -353q-117 -355 -419 -511q-152 -78 -318 -78zM1348 1683h-70l-248 281l-334 -281h-69l356 426h115z" />
    <glyph glyph-name="Otilde" unicode="&#xd5;" horiz-adv-x="1656" 
d="M1149 1735q-45 0 -80 20t-67 45t-64 45q-32 21 -76 21q-45 0 -81 -26t-79 -91l-71 12q113 226 287 228q46 -1 80 -21t66 -45t64 -45t76 -20q45 0 81 26t79 90l72 -12q-113 -227 -287 -227zM1419 888q0 289 -129 463q-129 173 -348 173q-152 0 -266 -71
q-226 -141 -305 -449q-39 -147 -39 -295q0 -291 129 -463t369 -172q132 0 244 70q226 140 306 450q39 146 39 294zM812 -20q-314 0 -490 185q-175 185 -177 511q0 182 57 352q117 354 419 511q153 79 319 79q314 0 490 -186t176 -510q0 -182 -57 -353q-117 -355 -419 -511
q-152 -78 -318 -78z" />
    <glyph glyph-name="Odieresis" unicode="&#xd6;" horiz-adv-x="1656" 
d="M803 1747q-51 0 -84 32t-33 81t35 88t86 39t84 -32t33 -81t-35 -88t-86 -39zM1212 1747q-51 0 -84 32q-32 32 -32 81t34 88t86 39t84 -32t33 -81q0 -49 -35 -88t-86 -39zM1419 888q0 289 -129 463q-129 173 -348 173q-152 0 -266 -71q-226 -141 -305 -449
q-39 -147 -39 -295q0 -291 129 -463t369 -172q132 0 244 70q226 140 306 450q39 146 39 294zM812 -20q-314 0 -490 185q-175 185 -177 511q0 182 57 352q117 354 419 511q153 79 319 79q314 0 490 -186t176 -510q0 -182 -57 -353q-117 -355 -419 -511q-152 -78 -318 -78z
" />
    <glyph glyph-name="multiply" unicode="&#xd7;" 
d="M649 594l-387 434l80 70l385 -436l487 438l64 -76l-490 -438l383 -436l-79 -70l-379 440l-498 -446l-63 76z" />
    <glyph glyph-name="Oslash" unicode="&#xd8;" horiz-adv-x="1656" 
d="M1606 922q0 -182 -56 -352q-118 -356 -420 -512q-152 -78 -342 -78q-287 0 -458 176l-166 -176l-66 57l174 188q-127 179 -127 451q0 182 57 352q117 354 419 511q152 79 342 79q276 0 450 -170l160 170l69 -59l-169 -183q133 -182 133 -454zM809 74q285 0 456 257
q154 232 154 566q0 200 -67 350l-912 -973q131 -200 369 -200zM332 680q0 -176 63 -324l910 973q-134 195 -363 195q-152 0 -266 -71q-226 -141 -305 -449q-39 -148 -39 -324z" />
    <glyph glyph-name="Ugrave" unicode="&#xd9;" horiz-adv-x="1753" 
d="M940 2109l172 -426h-68l-305 426h201zM391 1411q0 93 -135 112q-43 5 -96 7l8 67h668l-9 -67q-129 -5 -175 -28t-68 -56t-29 -86l-90 -717q-12 -102 -12 -181q-1 -79 31 -151q61 -139 223 -190q78 -25 170 -25q247 0 373 134t155 376l86 723q6 34 6 75q0 40 -16 64
q-29 43 -119 55q-43 5 -96 7l8 67h608l-8 -67q-130 -5 -176 -28q-47 -23 -69 -56t-27 -86l-97 -795q-32 -277 -204 -432t-433 -153q-415 0 -537 273q-42 93 -42 220q0 57 14 178l82 678q6 49 6 82z" />
    <glyph glyph-name="Uacute" unicode="&#xda;" horiz-adv-x="1753" 
d="M1554 2109l-448 -426h-68l297 426h219zM391 1411q0 93 -135 112q-43 5 -96 7l8 67h668l-9 -67q-129 -5 -175 -28t-68 -56t-29 -86l-90 -717q-12 -102 -12 -181q-1 -79 31 -151q61 -139 223 -190q78 -25 170 -25q247 0 373 134t155 376l86 723q6 34 6 75q0 40 -16 64
q-29 43 -119 55q-43 5 -96 7l8 67h608l-8 -67q-130 -5 -176 -28q-47 -23 -69 -56t-27 -86l-97 -795q-32 -277 -204 -432t-433 -153q-415 0 -537 273q-42 93 -42 220q0 57 14 178l82 678q6 49 6 82z" />
    <glyph glyph-name="Ucircumflex" unicode="&#xdb;" horiz-adv-x="1753" 
d="M391 1411q0 93 -135 112q-43 5 -96 7l8 67h668l-9 -67q-129 -5 -175 -28t-68 -56t-29 -86l-90 -717q-12 -102 -12 -181q-1 -79 31 -151q61 -139 223 -190q78 -25 170 -25q247 0 373 134t155 376l86 723q6 34 6 75q0 40 -16 64q-29 43 -119 55q-43 5 -96 7l8 67h608
l-8 -67q-130 -5 -176 -28q-47 -23 -69 -56t-27 -86l-97 -795q-32 -277 -204 -432t-433 -153q-415 0 -537 273q-42 93 -42 220q0 57 14 178l82 678q6 49 6 82zM1427 1683h-69l-248 281l-334 -281h-69l356 426h115z" />
    <glyph glyph-name="Udieresis" unicode="&#xdc;" horiz-adv-x="1753" 
d="M889 1747q-51 0 -84 32t-33 81t35 88t86 39t84 -32t33 -81t-35 -88t-86 -39zM1298 1747q-51 0 -84 32q-32 32 -32 81t35 88t86 39t83 -32t33 -81q0 -49 -35 -88t-86 -39zM391 1411q0 93 -135 112q-43 5 -96 7l8 67h668l-9 -67q-129 -5 -175 -28t-68 -56t-29 -86l-90 -717
q-12 -102 -12 -181q-1 -79 31 -151q61 -139 223 -190q78 -25 170 -25q247 0 373 134t155 376l86 723q6 34 6 75q0 40 -16 64q-29 43 -119 55q-43 5 -96 7l8 67h608l-8 -67q-130 -5 -176 -28q-47 -23 -69 -56t-27 -86l-97 -795q-32 -277 -204 -432t-433 -153q-415 0 -537 273
q-42 93 -42 220q0 57 14 178l82 678q6 49 6 82z" />
    <glyph glyph-name="Yacute" unicode="&#xdd;" horiz-adv-x="1556" 
d="M846 219v-24q0 -75 55 -99t174 -28l-8 -68h-668l9 68q127 4 174 27q86 42 98 143l51 428l-424 780q-23 43 -51 61q-29 18 -82 23l8 67h574l-8 -67q-132 0 -182 -22t-50 -67t27 -91l311 -588l457 577q67 86 41 138q-26 53 -199 53l8 67h516l-8 -67q-53 -6 -85 -22t-68 -62
l-619 -774l-47 -404q-4 -33 -4 -49zM1430 2109l-449 -426h-68l297 426h220z" />
    <glyph glyph-name="Thorn" unicode="&#xde;" horiz-adv-x="1482" 
d="M827 444q312 0 414 219q35 75 35 177q0 170 -92 259t-297 89h-262l-93 -744h295zM506 183q0 -62 79 -90q56 -20 185 -25l-8 -68h-701l9 68q127 4 174 27q86 42 98 143l133 1091q6 50 6 82q0 93 -135 112q-43 5 -96 7l8 67h668l-8 -67q-129 -5 -177 -28q-47 -23 -69 -56
t-27 -86l-10 -82h252q451 0 554 -250q32 -78 32 -180t-40 -194q-81 -189 -300 -266q-109 -38 -246 -38h-367q-14 -138 -14 -167z" />
    <glyph glyph-name="germandbls" unicode="&#xdf;" horiz-adv-x="1331" 
d="M887 1659q161 0 259 -92t95 -219q0 -226 -246 -390q-72 -47 -149 -86q61 -41 128 -88q247 -173 247 -368q0 -194 -122 -316q-124 -122 -325 -120q-147 0 -225 57t-78 131q1 43 21 74t55 43h45q16 -103 72 -165t170 -62q112 0 189 76q77 77 77 206q0 198 -251 377
q-73 51 -151 102l11 49q225 108 307 192t84 249q0 117 -79 188q-79 72 -204 73t-205 -86t-104 -253l-168 -1094q-51 -337 -167 -493t-302 -156q-133 0 -197 50q-63 50 -63 110q0 105 74 133h67q13 -207 160 -207q162 0 230 236q26 86 44 213l131 960h-155l18 88h148l14 92
q39 228 188 362t357 134z" />
    <glyph glyph-name="agrave" unicode="&#xe0;" horiz-adv-x="1257" 
d="M346 78q59 0 121 51q115 96 247 329t169 449q-13 47 -59 80t-107 33q-101 0 -187 -66q-174 -133 -252 -401q-38 -127 -38 -239t23 -175q24 -61 83 -61zM748 119q0 109 81 413h-8q-104 -249 -259 -414q-127 -138 -257 -138q-227 0 -227 307q0 150 53 294q111 300 339 441
q112 70 212 70q181 0 231 -117l134 135h55l-72 -227q-78 -319 -112 -601q-10 -83 -10 -133t48 -51q70 0 195 168l47 -33q-131 -255 -307 -253q-143 0 -143 139zM561 1638l172 -426h-67l-306 426h201z" />
    <glyph glyph-name="aacute" unicode="&#xe1;" horiz-adv-x="1257" 
d="M346 78q59 0 121 51q115 96 247 329t169 449q-13 47 -59 80t-107 33q-101 0 -187 -66q-174 -133 -252 -401q-38 -127 -38 -239t23 -175q24 -61 83 -61zM748 119q0 109 81 413h-8q-104 -249 -259 -414q-127 -138 -257 -138q-227 0 -227 307q0 150 53 294q111 300 339 441
q112 70 212 70q181 0 231 -117l134 135h55l-72 -227q-78 -319 -112 -601q-10 -83 -10 -133t48 -51q70 0 195 168l47 -33q-131 -255 -307 -253q-143 0 -143 139zM1167 1638l-448 -426h-68l297 426h219z" />
    <glyph glyph-name="acircumflex" unicode="&#xe2;" horiz-adv-x="1257" 
d="M346 78q59 0 121 51q115 96 247 329t169 449q-13 47 -59 80t-107 33q-101 0 -187 -66q-174 -133 -252 -401q-38 -127 -38 -239t23 -175q24 -61 83 -61zM748 119q0 109 81 413h-8q-104 -249 -259 -414q-127 -138 -257 -138q-227 0 -227 307q0 150 53 294q111 300 339 441
q112 70 212 70q181 0 231 -117l134 135h55l-72 -227q-78 -319 -112 -601q-10 -83 -10 -133t48 -51q70 0 195 168l47 -33q-131 -255 -307 -253q-143 0 -143 139zM1071 1212h-70l-247 281l-334 -281h-70l357 426h114z" />
    <glyph glyph-name="atilde" unicode="&#xe3;" horiz-adv-x="1257" 
d="M346 78q59 0 121 51q115 96 247 329t169 449q-13 47 -59 80t-107 33q-101 0 -187 -66q-174 -133 -252 -401q-38 -127 -38 -239t23 -175q24 -61 83 -61zM748 119q0 109 81 413h-8q-104 -249 -259 -414q-127 -138 -257 -138q-227 0 -227 307q0 150 53 294q111 300 339 441
q112 70 212 70q181 0 231 -117l134 135h55l-72 -227q-78 -319 -112 -601q-10 -83 -10 -133t48 -51q70 0 195 168l47 -33q-131 -255 -307 -253q-143 0 -143 139zM563 1380q-45 0 -81 -26t-79 -90l-71 12q114 227 286 227q45 0 80 -20t67 -45q31 -25 63 -45q32 -21 77 -21
t81 26t79 91l72 -12q-113 -226 -287 -228q-45 1 -80 21t-67 45q-31 25 -63 45t-77 20z" />
    <glyph glyph-name="adieresis" unicode="&#xe4;" horiz-adv-x="1257" 
d="M346 78q59 0 121 51q115 96 247 329t169 449q-13 47 -59 80t-107 33q-101 0 -187 -66q-174 -133 -252 -401q-38 -127 -38 -239t23 -175q24 -61 83 -61zM748 119q0 109 81 413h-8q-104 -249 -259 -414q-127 -138 -257 -138q-227 0 -227 307q0 150 53 294q111 300 339 441
q112 70 212 70q181 0 231 -117l134 135h55l-72 -227q-78 -319 -112 -601q-10 -83 -10 -133t48 -51q70 0 195 168l47 -33q-131 -255 -307 -253q-143 0 -143 139zM530 1286q-51 0 -84 32q-32 32 -32 81t35 88t86 39t83 -32t33 -81q0 -49 -35 -88t-86 -39zM940 1286
q-51 0 -84 32t-33 81t35 88t86 39t84 -32t33 -81t-35 -88t-86 -39z" />
    <glyph glyph-name="aring" unicode="&#xe5;" horiz-adv-x="1257" 
d="M346 78q59 0 121 51q115 96 247 329t169 449q-13 47 -59 80t-107 33q-101 0 -187 -66q-174 -133 -252 -401q-38 -127 -38 -239t23 -175q24 -61 83 -61zM748 119q0 109 81 413h-8q-104 -249 -259 -414q-127 -138 -257 -138q-227 0 -227 307q0 150 53 294q111 300 339 441
q112 70 212 70q181 0 231 -117l134 135h55l-72 -227q-78 -319 -112 -601q-10 -83 -10 -133t48 -51q70 0 195 168l47 -33q-131 -255 -307 -253q-143 0 -143 139zM612 1391q0 -123 111 -123q76 0 111 54q34 54 34 126q0 123 -110 123q-76 0 -111 -54t-35 -126zM760 1651
q104 1 156 -57t53 -158q0 -100 -72 -174t-176 -74t-157 57q-52 57 -52 157t72 174q72 75 176 75z" />
    <glyph glyph-name="ae" unicode="&#xe6;" horiz-adv-x="1599" 
d="M78 296q0 153 56 297t146 255q90 112 200 178t212 66t173 -46q42 -26 83 -90q152 136 336 136q108 0 176 -50t68 -143q0 -94 -47 -161t-156 -136t-459 -188v-21q0 -238 138 -295q41 -16 88 -16q127 0 210 64t150 167l53 -37q-69 -135 -183 -216q-114 -80 -268 -80
t-240 89q-87 89 -99 250q-221 -342 -406 -339q-123 0 -177 82t-54 234zM346 78q58 0 110 39q121 90 261 327q21 272 178 457q-29 47 -70 83t-125 36t-170 -66q-88 -66 -152 -169t-102 -229q-36 -126 -36 -243t24 -176t82 -59zM1374 870q0 58 -34 96t-107 38
q-136 0 -235 -153t-126 -359q271 100 386 184q116 84 116 194z" />
    <glyph glyph-name="ccedilla" unicode="&#xe7;" horiz-adv-x="923" 
d="M469 -326q0 130 -223 152l84 162q-126 26 -189 128t-63 244t42 276q85 272 300 396q104 60 226 60t186 -55q63 -55 63 -126q-1 -41 -21 -69t-45 -39h-67q-6 84 -47 139t-126 55q-160 0 -259 -187q-92 -170 -90 -394q0 -166 50 -249t169 -83q180 0 321 227l54 -37
q-106 -202 -281 -270q-63 -24 -110 -24t-56 2l-33 -68q157 -22 210 -125q19 -37 20 -86q0 -109 -69 -162t-148 -53q-140 0 -224 82l39 45q75 -49 164 -49q45 0 84 24t39 84z" />
    <glyph glyph-name="egrave" unicode="&#xe8;" horiz-adv-x="964" 
d="M78 373q0 131 40 260q83 268 293 395q105 64 226 64t189 -50t67 -143q0 -94 -47 -161t-156 -136t-459 -188v-21q0 -238 138 -295q41 -16 88 -16q127 0 210 64t150 167l53 -37q-68 -135 -182 -216t-256 -80q-180 0 -267 103t-87 290zM598 1004q-136 0 -243 -162
q-90 -141 -117 -350q269 99 386 184t115 194q0 59 -33 97q-34 37 -108 37zM508 1638l172 -426h-68l-305 426h201z" />
    <glyph glyph-name="eacute" unicode="&#xe9;" horiz-adv-x="964" 
d="M1071 1638l-448 -426h-68l297 426h219zM78 373q0 131 40 260q83 268 293 395q105 64 226 64t189 -50t67 -143q0 -94 -47 -161t-156 -136t-459 -188v-21q0 -238 138 -295q41 -16 88 -16q127 0 210 64t150 167l53 -37q-68 -135 -182 -216t-256 -80q-180 0 -267 103t-87 290
zM598 1004q-136 0 -243 -162q-90 -141 -117 -350q269 99 386 184t115 194q0 59 -33 97q-34 37 -108 37z" />
    <glyph glyph-name="ecircumflex" unicode="&#xea;" horiz-adv-x="964" 
d="M985 1212h-70l-247 281l-334 -281h-70l357 426h114zM78 373q0 131 40 260q83 268 293 395q105 64 226 64t189 -50t67 -143q0 -94 -47 -161t-156 -136t-459 -188v-21q0 -238 138 -295q41 -16 88 -16q127 0 210 64t150 167l53 -37q-68 -135 -182 -216t-256 -80
q-180 0 -267 103t-87 290zM598 1004q-136 0 -243 -162q-90 -141 -117 -350q269 99 386 184t115 194q0 59 -33 97q-34 37 -108 37z" />
    <glyph glyph-name="edieresis" unicode="&#xeb;" horiz-adv-x="964" 
d="M459 1286q-51 0 -84 32t-33 81t35 88t86 39t84 -32t33 -81t-35 -88t-86 -39zM868 1286q-51 0 -84 32q-32 32 -32 81t34 88q35 39 86 39t84 -32t33 -81t-35 -88t-86 -39zM78 373q0 131 40 260q83 268 293 395q105 64 226 64t189 -50t67 -143q0 -94 -47 -161t-156 -136
t-459 -188v-21q0 -238 138 -295q41 -16 88 -16q127 0 210 64t150 167l53 -37q-68 -135 -182 -216t-256 -80q-180 0 -267 103t-87 290zM598 1004q-136 0 -243 -162q-90 -141 -117 -350q269 99 386 184t115 194q0 59 -33 97q-34 37 -108 37z" />
    <glyph glyph-name="igrave" unicode="&#xec;" horiz-adv-x="749" 
d="M227 108q-1 128 67 415q68 288 68 401q0 43 -44 43t-103 -52q-58 -52 -113 -135l-57 31q73 145 162 212t166 68t111 -35t34 -104q0 -98 -49 -316q-86 -381 -86 -480q0 -57 51 -58q72 0 193 168l49 -33q-131 -255 -307 -253q-68 0 -105 36t-37 92zM303 1638l172 -426h-67
l-306 426h201z" />
    <glyph glyph-name="iacute" unicode="&#xed;" horiz-adv-x="749" 
d="M911 1638l-448 -426h-68l297 426h219zM227 108q-1 128 67 415q68 288 68 401q0 43 -44 43t-103 -52q-58 -52 -113 -135l-57 31q73 145 162 212t166 68t111 -35t34 -104q0 -98 -49 -316q-86 -381 -86 -480q0 -57 51 -58q72 0 193 168l49 -33q-131 -255 -307 -253
q-68 0 -105 36t-37 92z" />
    <glyph glyph-name="icircumflex" unicode="&#xee;" horiz-adv-x="749" 
d="M795 1212h-70l-248 281l-334 -281h-69l356 426h115zM227 108q-1 128 67 415q68 288 68 401q0 43 -44 43t-103 -52q-58 -52 -113 -135l-57 31q73 145 162 212t166 68t111 -35t34 -104q0 -98 -49 -316q-86 -381 -86 -480q0 -57 51 -58q72 0 193 168l49 -33
q-131 -255 -307 -253q-68 0 -105 36t-37 92z" />
    <glyph glyph-name="idieresis" unicode="&#xef;" horiz-adv-x="749" 
d="M260 1286q-51 0 -84 32t-33 81t35 88t86 39t84 -32t33 -81t-35 -88t-86 -39zM670 1286q-51 0 -84 32t-33 81t35 88t86 39t84 -32t33 -81t-35 -88t-86 -39zM227 108q-1 128 67 415q68 288 68 401q0 43 -44 43t-103 -52q-58 -52 -113 -135l-57 31q73 145 162 212t166 68
t111 -35t34 -104q0 -98 -49 -316q-86 -381 -86 -480q0 -57 51 -58q72 0 193 168l49 -33q-131 -255 -307 -253q-68 0 -105 36t-37 92z" />
    <glyph glyph-name="eth" unicode="&#xf0;" horiz-adv-x="1048" 
d="M448 -20q-372 0 -370 416q0 110 39 239q81 266 281 394q99 62 223 63q57 0 111 -24t89 -67q-38 178 -139 336l-328 -127l-32 70l317 121q-88 120 -215 209v10l49 33q160 -94 264 -213l183 69l32 -67l-166 -64q187 -262 187 -655q0 -298 -145 -512q-71 -103 -171 -167
q-101 -64 -209 -64zM453 68q160 0 260 177t100 421q0 336 -217 338q-82 0 -149 -50q-131 -99 -186 -324q-25 -108 -25 -245t53 -227t164 -90z" />
    <glyph glyph-name="ntilde" unicode="&#xf1;" horiz-adv-x="1396" 
d="M1016 -20q-142 0 -142 141q0 70 62 316q62 245 80 339q18 96 18 132t-9 56t-44 19q-73 0 -200 -146q-127 -151 -209 -313q-150 -296 -212 -524h-143l152 848q8 36 8 78t-43 41q-43 0 -105 -53q-61 -53 -112 -134l-58 31q73 145 162 212t166 68q78 1 113 -35t35 -81
t-29 -174l-117 -482h8q202 499 457 698q96 75 199 75q131 0 131 -150q0 -114 -54 -323q-54 -208 -76 -307q-24 -99 -24 -156t51 -58q72 0 193 168l49 -33q-131 -255 -307 -253zM649 1380q-45 0 -81 -26t-79 -90l-71 12q114 227 287 227q45 0 79 -20t67 -45q31 -25 63 -45
q32 -21 77 -21t81 26t79 91l72 -12q-113 -226 -287 -228q-45 1 -80 21q-34 20 -66 45t-64 45t-77 20z" />
    <glyph glyph-name="ograve" unicode="&#xf2;" horiz-adv-x="1048" 
d="M453 68q160 0 260 177t100 421q0 336 -217 338q-82 0 -149 -50q-131 -99 -186 -324q-25 -108 -25 -245t53 -227t164 -90zM436 -20q-110 0 -174 30q-184 89 -184 361q0 127 38 256q80 272 281 400q102 65 213 65q191 0 275 -106t85 -260q1 -153 -37 -282t-110 -232
q-72 -104 -174 -168q-103 -64 -213 -64zM489 1638l173 -426h-68l-305 426h200z" />
    <glyph glyph-name="oacute" unicode="&#xf3;" horiz-adv-x="1048" 
d="M1118 1638l-448 -426h-68l297 426h219zM453 68q160 0 260 177t100 421q0 336 -217 338q-82 0 -149 -50q-131 -99 -186 -324q-25 -108 -25 -245t53 -227t164 -90zM436 -20q-110 0 -174 30q-184 89 -184 361q0 127 38 256q80 272 281 400q102 65 213 65q191 0 275 -106
t85 -260q1 -153 -37 -282t-110 -232q-72 -104 -174 -168q-103 -64 -213 -64z" />
    <glyph glyph-name="ocircumflex" unicode="&#xf4;" horiz-adv-x="1048" 
d="M985 1212h-70l-247 281l-334 -281h-70l357 426h114zM453 68q160 0 260 177t100 421q0 336 -217 338q-82 0 -149 -50q-131 -99 -186 -324q-25 -108 -25 -245t53 -227t164 -90zM436 -20q-110 0 -174 30q-184 89 -184 361q0 127 38 256q80 272 281 400q102 65 213 65
q191 0 275 -106t85 -260q1 -153 -37 -282t-110 -232q-72 -104 -174 -168q-103 -64 -213 -64z" />
    <glyph glyph-name="otilde" unicode="&#xf5;" horiz-adv-x="1048" 
d="M453 68q160 0 260 177t100 421q0 336 -217 338q-82 0 -149 -50q-131 -99 -186 -324q-25 -108 -25 -245t53 -227t164 -90zM436 -20q-110 0 -174 30q-184 89 -184 361q0 127 38 256q80 272 281 400q102 65 213 65q191 0 275 -106t85 -260q1 -153 -37 -282t-110 -232
q-72 -104 -174 -168q-103 -64 -213 -64zM496 1380q-44 0 -81 -26q-36 -26 -79 -90l-72 12q114 227 287 227q65 0 146 -65q32 -25 64 -45q33 -21 77 -21t81 26q36 26 78 91l72 -12q-113 -226 -287 -228q-45 1 -80 21q-34 20 -66 45t-64 45t-76 20z" />
    <glyph glyph-name="odieresis" unicode="&#xf6;" horiz-adv-x="1048" 
d="M465 1286q-51 0 -84 32t-33 81t35 88t86 39t84 -32t33 -81t-35 -88t-86 -39zM874 1286q-52 0 -84 32t-32 81t35 88t86 39t84 -32t33 -81t-36 -88q-35 -39 -86 -39zM453 68q160 0 260 177t100 421q0 336 -217 338q-82 0 -149 -50q-131 -99 -186 -324q-25 -108 -25 -245
t53 -227t164 -90zM436 -20q-110 0 -174 30q-184 89 -184 361q0 127 38 256q80 272 281 400q102 65 213 65q191 0 275 -106t85 -260q1 -153 -37 -282t-110 -232q-72 -104 -174 -168q-103 -64 -213 -64z" />
    <glyph glyph-name="divide" unicode="&#xf7;" 
d="M141 532l15 105h1106l-15 -105h-1106zM641 1038q0 47 35 81t84 34t85 -34t36 -81t-36 -81q-36 -33 -85 -33t-84 34t-35 80zM526 131q0 47 35 81t84 34t85 -34t36 -81t-36 -81t-85 -34t-84 34t-35 81z" />
    <glyph glyph-name="oslash" unicode="&#xf8;" horiz-adv-x="1048" 
d="M88 359q0 286 146 500q161 233 413 233q137 0 223 -80l101 125l67 -52l-114 -139q57 -100 57 -236q0 -284 -147 -498q-162 -232 -414 -232q-137 0 -221 77l-107 -129l-63 49l116 146q-57 97 -57 236zM272 630q-26 -107 -26 -210t14 -158l518 637q-57 104 -172 105
q-82 0 -148 -51q-133 -99 -186 -323zM463 68q160 0 261 179t99 419q0 82 -14 141l-518 -635q53 -104 172 -104z" />
    <glyph glyph-name="ugrave" unicode="&#xf9;" horiz-adv-x="1337" 
d="M831 112q0 62 37 214t109 426h-8q-139 -343 -231 -483q-93 -140 -183 -215t-197 -74q-72 0 -110 45t-39 144q0 99 76 391q76 293 75 364q0 43 -44 43t-103 -52q-58 -52 -113 -135l-57 31q73 145 162 212t166 68q79 1 113 -35t34 -103t-80 -372q-78 -316 -79 -404
q-1 -89 69 -89q122 0 286 291t290 692h147q-160 -752 -160 -915q0 -57 51 -58q68 0 193 168l47 -33q-131 -255 -307 -253q-68 0 -106 36q-38 34 -38 96zM623 1638l172 -426h-68l-305 426h201z" />
    <glyph glyph-name="uacute" unicode="&#xfa;" horiz-adv-x="1337" 
d="M1225 1638l-449 -426h-67l297 426h219zM831 112q0 62 37 214t109 426h-8q-139 -343 -231 -483q-93 -140 -183 -215t-197 -74q-72 0 -110 45t-39 144q0 99 76 391q76 293 75 364q0 43 -44 43t-103 -52q-58 -52 -113 -135l-57 31q73 145 162 212t166 68q79 1 113 -35
t34 -103t-80 -372q-78 -316 -79 -404q-1 -89 69 -89q122 0 286 291t290 692h147q-160 -752 -160 -915q0 -57 51 -58q68 0 193 168l47 -33q-131 -255 -307 -253q-68 0 -106 36q-38 34 -38 96z" />
    <glyph glyph-name="ucircumflex" unicode="&#xfb;" horiz-adv-x="1337" 
d="M1133 1212h-70l-248 281l-334 -281h-69l356 426h115zM831 112q0 62 37 214t109 426h-8q-139 -343 -231 -483q-93 -140 -183 -215t-197 -74q-72 0 -110 45t-39 144q0 99 76 391q76 293 75 364q0 43 -44 43t-103 -52q-58 -52 -113 -135l-57 31q73 145 162 212t166 68
q79 1 113 -35t34 -103t-80 -372q-78 -316 -79 -404q-1 -89 69 -89q122 0 286 291t290 692h147q-160 -752 -160 -915q0 -57 51 -58q68 0 193 168l47 -33q-131 -255 -307 -253q-68 0 -106 36q-38 34 -38 96z" />
    <glyph glyph-name="udieresis" unicode="&#xfc;" horiz-adv-x="1337" 
d="M598 1286q-51 0 -84 32t-33 81t35 88t86 39t84 -32t33 -81t-35 -88t-86 -39zM1008 1286q-51 0 -84 32t-33 81t35 88t86 39t84 -32q32 -32 32 -81t-34 -88t-86 -39zM831 112q0 62 37 214t109 426h-8q-139 -343 -231 -483q-93 -140 -183 -215t-197 -74q-72 0 -110 45
t-39 144q0 99 76 391q76 293 75 364q0 43 -44 43t-103 -52q-58 -52 -113 -135l-57 31q73 145 162 212t166 68q79 1 113 -35t34 -103t-80 -372q-78 -316 -79 -404q-1 -89 69 -89q122 0 286 291t290 692h147q-160 -752 -160 -915q0 -57 51 -58q68 0 193 168l47 -33
q-131 -255 -307 -253q-68 0 -106 36q-38 34 -38 96z" />
    <glyph glyph-name="yacute" unicode="&#xfd;" horiz-adv-x="1136" 
d="M920 680q0 158 -56 224q-56 67 -159 67v45q46 76 147 76q100 0 146 -71t46 -165q0 -281 -145 -584q-55 -115 -149 -266q-266 -427 -543 -498q-83 -20 -151 -20q-196 0 -261 103q-20 34 -20 76t21 73q22 31 57 41h55q25 -189 205 -191q117 0 209 50t184 159
q-20 230 -84 548q-63 318 -117 482q-15 59 -35 95t-65 34q-45 0 -84 -43t-84 -114l-57 30q106 213 218 249q153 50 216 -95q61 -153 125 -485q63 -332 79 -563q135 217 219 401q83 184 83 342zM1008 1638l-449 -426h-67l296 426h220z" />
    <glyph glyph-name="thorn" unicode="&#xfe;" horiz-adv-x="1204" 
d="M172 -316q0 -43 17 -71t64 -35q46 -8 81 -12l-10 -58h-492l10 58q85 5 115 20q52 26 66 97l321 1783l-158 60l2 33l299 100h43q-134 -753 -179 -938q-44 -186 -68 -260h10q181 419 421 571q92 60 174 60t124 -23q114 -63 114 -270q0 -139 -50 -289t-137 -268t-207 -191
q-120 -71 -266 -71t-235 75q-59 -328 -59 -371zM469 57q123 0 214 69q91 68 153 176t92 239t30 237t-21 156q-22 49 -82 49q-109 0 -246 -144q-201 -217 -314 -515q-35 -92 -49 -172q33 -47 95 -71t128 -24z" />
    <glyph glyph-name="ydieresis" unicode="&#xff;" horiz-adv-x="1136" 
d="M920 680q0 158 -56 224q-56 67 -159 67v45q46 76 147 76q100 0 146 -71t46 -165q0 -281 -145 -584q-55 -115 -149 -266q-266 -427 -543 -498q-83 -20 -151 -20q-196 0 -261 103q-20 34 -20 76t21 73q22 31 57 41h55q25 -189 205 -191q117 0 209 50t184 159
q-20 230 -84 548q-63 318 -117 482q-15 59 -35 95t-65 34q-45 0 -84 -43t-84 -114l-57 30q106 213 218 249q153 50 216 -95q61 -153 125 -485q63 -332 79 -563q135 217 219 401q83 184 83 342zM395 1286q-51 0 -84 32t-33 81t35 88t86 39t84 -32t33 -81t-35 -88t-86 -39z
M805 1286q-51 0 -84 32t-33 81t35 88t86 39t84 -32t33 -81t-35 -88t-86 -39z" />
    <glyph glyph-name="Amacron" unicode="&#x100;" horiz-adv-x="1609" 
d="M1137 532h-686l-136 -256q-74 -145 -3 -182q49 -22 169 -26l-8 -68h-496l9 68q53 4 92 21t63 65l717 1343l-35 127h181l409 -1470q12 -46 47 -64t82 -22l-8 -68h-553l8 68q127 2 183 19t56 62t-22 130zM500 625h610l-207 753zM692 1909h541l-12 -107h-541z" />
    <glyph glyph-name="amacron" unicode="&#x101;" horiz-adv-x="1257" 
d="M346 78q59 0 121 51q115 96 247 329t169 449q-13 47 -59 80t-107 33q-101 0 -187 -66q-174 -133 -252 -401q-38 -127 -38 -239t23 -175q24 -61 83 -61zM748 119q0 109 81 413h-8q-104 -249 -259 -414q-127 -138 -257 -138q-227 0 -227 307q0 150 53 294q111 300 339 441
q112 70 212 70q181 0 231 -117l134 135h55l-72 -227q-78 -319 -112 -601q-10 -83 -10 -133t48 -51q70 0 195 168l47 -33q-131 -255 -307 -253q-143 0 -143 139zM498 1442h540l-12 -107h-541z" />
    <glyph glyph-name="Abreve" unicode="&#x102;" horiz-adv-x="1609" 
d="M1137 532h-686l-136 -256q-74 -145 -3 -182q49 -22 169 -26l-8 -68h-496l9 68q53 4 92 21t63 65l717 1343l-35 127h181l409 -1470q12 -46 47 -64t82 -22l-8 -68h-553l8 68q127 2 183 19t56 62t-22 130zM500 625h610l-207 753zM1352 2114q-52 -408 -390 -408
q-331 0 -331 315q0 43 6 93h76q0 -291 245 -291q176 0 267 151q33 55 51 140h76z" />
    <glyph glyph-name="abreve" unicode="&#x103;" horiz-adv-x="1257" 
d="M346 78q59 0 121 51q115 96 247 329t169 449q-13 47 -59 80t-107 33q-101 0 -187 -66q-174 -133 -252 -401q-38 -127 -38 -239t23 -175q24 -61 83 -61zM748 119q0 109 81 413h-8q-104 -249 -259 -414q-127 -138 -257 -138q-227 0 -227 307q0 150 53 294q111 300 339 441
q112 70 212 70q181 0 231 -117l134 135h55l-72 -227q-78 -319 -112 -601q-10 -83 -10 -133t48 -51q70 0 195 168l47 -33q-131 -255 -307 -253q-143 0 -143 139zM498 1638q0 -290 245 -290q176 0 267 151q33 55 51 139h76q-25 -195 -121 -301t-269 -106q-331 0 -331 315
q0 43 6 92h76z" />
    <glyph glyph-name="Aogonek" unicode="&#x104;" horiz-adv-x="1609" 
d="M1379 -416q70 0 143 31l12 -51q-82 -76 -213 -76q-89 0 -155 51t-66 156t72 179t190 126h-381l8 68q127 2 183 19t56 62t-22 130l-69 253h-686l-136 -256q-74 -145 -3 -182q49 -22 169 -26l-8 -68h-496l9 68q53 4 92 21t63 65l717 1343l-35 127h181l409 -1470
q12 -46 47 -64t82 -22l-8 -68q-310 -93 -308 -284q0 -64 42 -98q41 -34 111 -34zM500 625h610l-207 753z" />
    <glyph glyph-name="aogonek" unicode="&#x105;" horiz-adv-x="1257" 
d="M905 -416q69 0 139 31l13 -51q-82 -76 -213 -76q-88 0 -152 50t-65 145q0 138 147 251q39 31 74 56q-100 18 -100 128t81 414h-8q-104 -249 -259 -414q-127 -138 -257 -138q-227 0 -227 307q0 150 53 294q111 300 339 441q112 70 212 70q181 0 231 -117l134 135h55
l-72 -227q-80 -326 -105 -527t-10 -219t41 -18q41 0 195 147l41 -41q-92 -98 -172 -169t-140 -128t-94 -109t-34 -112q0 -123 153 -123zM346 78q59 0 121 51q115 96 247 329t169 449q-13 47 -59 80t-107 33q-101 0 -187 -66q-174 -133 -252 -401q-38 -127 -38 -239t23 -175
q24 -61 83 -61z" />
    <glyph glyph-name="Cacute" unicode="&#x106;" horiz-adv-x="1591" 
d="M975 1618q323 0 545 -162l-27 -323h-45q-31 189 -165 290t-304 101q-316 0 -491 -245q-156 -221 -156 -546t142 -493t364 -168q289 0 464 234q56 75 105 167h57l-88 -369q-142 -92 -398 -117q-73 -7 -140 -7q-309 0 -500 185t-193 525q0 164 50 329q104 351 409 515
q156 84 371 84zM1436 2109l-449 -426h-67l297 426h219z" />
    <glyph glyph-name="cacute" unicode="&#x107;" horiz-adv-x="923" 
d="M1077 1638l-448 -426h-68l297 426h219zM459 84q180 0 321 227l54 -37q-106 -202 -281 -270q-63 -24 -145 -24q-164 1 -252 115q-78 99 -78 253t42 288q85 272 300 396q104 60 226 60t186 -55q63 -55 63 -126q-1 -41 -21 -69t-45 -39h-67q-6 84 -47 139t-126 55
q-160 0 -259 -187q-92 -170 -90 -394q0 -166 50 -249t169 -83z" />
    <glyph glyph-name="Ccircumflex" unicode="&#x108;" horiz-adv-x="1591" 
d="M975 1618q323 0 545 -162l-27 -323h-45q-31 189 -165 290t-304 101q-316 0 -491 -245q-156 -221 -156 -546t142 -493t364 -168q289 0 464 234q56 75 105 167h57l-88 -369q-142 -92 -398 -117q-73 -7 -140 -7q-309 0 -500 185t-193 525q0 164 50 329q104 351 409 515
q156 84 371 84zM1337 1683h-69l-248 281l-334 -281h-70l357 426h114z" />
    <glyph glyph-name="ccircumflex" unicode="&#x109;" horiz-adv-x="923" 
d="M999 1212h-69l-248 281l-334 -281h-69l356 426h115zM459 84q180 0 321 227l54 -37q-106 -202 -281 -270q-63 -24 -145 -24q-164 1 -252 115q-78 99 -78 253t42 288q85 272 300 396q104 60 226 60t186 -55q63 -55 63 -126q-1 -41 -21 -69t-45 -39h-67q-6 84 -47 139
t-126 55q-160 0 -259 -187q-92 -170 -90 -394q0 -166 50 -249t169 -83z" />
    <glyph glyph-name="Cdotaccent" unicode="&#x10a;" horiz-adv-x="1591" 
d="M991 1743q-51 0 -84 32q-33 33 -33 81t35 88t86 38q51 0 84 -32t33 -80q0 -49 -35 -88t-86 -39zM975 1618q323 0 545 -162l-27 -323h-45q-31 189 -165 290t-304 101q-316 0 -491 -245q-156 -221 -156 -546t142 -493t364 -168q289 0 464 234q56 75 105 167h57l-88 -369
q-142 -92 -398 -117q-73 -7 -140 -7q-309 0 -500 185t-193 525q0 164 50 329q104 351 409 515q156 84 371 84z" />
    <glyph glyph-name="cdotaccent" unicode="&#x10b;" horiz-adv-x="923" 
d="M459 84q180 0 321 227l54 -37q-106 -202 -281 -270q-63 -24 -145 -24q-164 1 -252 115q-78 99 -78 253t42 288q85 272 300 396q104 60 226 60t186 -55q63 -55 63 -126q-1 -41 -21 -69t-45 -39h-67q-6 84 -47 139t-126 55q-160 0 -259 -187q-92 -170 -90 -394
q0 -166 50 -249t169 -83zM670 1286q-51 0 -84 32t-33 81t35 88t86 39t84 -32t33 -81t-35 -88t-86 -39z" />
    <glyph glyph-name="Ccaron" unicode="&#x10c;" horiz-adv-x="1591" 
d="M975 1618q323 0 545 -162l-27 -323h-45q-31 189 -165 290t-304 101q-316 0 -491 -245q-156 -221 -156 -546t142 -493t364 -168q289 0 464 234q56 75 105 167h57l-88 -369q-142 -92 -398 -117q-73 -7 -140 -7q-309 0 -500 185t-193 525q0 164 50 329q104 351 409 515
q156 84 371 84zM676 2109h69l248 -280l334 280h70l-357 -426h-114z" />
    <glyph glyph-name="ccaron" unicode="&#x10d;" horiz-adv-x="923" 
d="M334 1638h69l248 -280l334 280h70l-357 -426h-114zM459 84q180 0 321 227l54 -37q-106 -202 -281 -270q-63 -24 -145 -24q-164 1 -252 115q-78 99 -78 253t42 288q85 272 300 396q104 60 226 60t186 -55q63 -55 63 -126q-1 -41 -21 -69t-45 -39h-67q-6 84 -47 139
t-126 55q-160 0 -259 -187q-92 -170 -90 -394q0 -166 50 -249t169 -83z" />
    <glyph glyph-name="Dcaron" unicode="&#x10e;" horiz-adv-x="1757" 
d="M684 2109h70l247 -280l334 280h70l-356 -426h-115zM481 1411q0 93 -135 112q-43 5 -96 7l8 67h707q366 0 565 -199q176 -178 176 -466q0 -219 -68 -392q-136 -346 -470 -477q-163 -63 -355 -63h-752l9 68q127 4 174 27q86 42 98 143l133 1091q6 49 6 82zM799 90
q316 0 517 211q200 211 201 618t-327 542q-113 46 -268 46h-258l-146 -1185q-8 -82 -8 -133t49 -75t158 -24h82z" />
    <glyph glyph-name="dcaron" unicode="&#x10f;" horiz-adv-x="1288" 
d="M1556 1638l-251 -426h-64l125 426h190zM920 903q-53 117 -208 117q-83 0 -171 -66q-178 -133 -258 -401q-39 -127 -39 -250q0 -225 123 -225q106 0 262 205t251 472q28 79 40 148zM322 -20q-244 0 -244 311q0 146 54 290q113 301 348 441q116 70 237 70q68 0 128 -26
t93 -73q10 55 39 198t45 275l-158 60l2 33l303 100h41q-16 -82 -61 -306t-88 -457t-84 -454t-41 -282t49 -62q74 0 195 168l47 -33q-126 -255 -305 -253q-144 0 -144 157q0 86 82 393h-8q-62 -149 -166 -292q-104 -142 -191 -200t-173 -58z" />
    <glyph glyph-name="Dcroat" unicode="&#x110;" horiz-adv-x="1757" 
d="M481 1411q0 93 -135 112q-43 5 -96 7l8 67h707q366 0 565 -199q176 -178 176 -466q0 -219 -68 -392q-136 -346 -470 -477q-163 -63 -355 -63h-752l9 68q127 4 174 27q86 42 98 143l64 530h-234l10 90h236l57 471q6 49 6 82zM799 90q316 0 517 211q200 211 201 618
t-327 542q-113 46 -268 46h-258l-80 -649h522l-10 -90h-525l-53 -446q-8 -82 -8 -133t49 -75t158 -24h82z" />
    <glyph glyph-name="dcroat" unicode="&#x111;" horiz-adv-x="1288" 
d="M322 -20q-244 0 -244 311q0 146 54 290q113 301 348 441q116 70 237 70q68 0 128 -26t93 -73q10 55 24 119t23 127h-381l17 78h378l23 149l-158 60l2 33l303 100h41l-69 -342h198l-16 -78h-197q-20 -109 -43 -227q-147 -751 -147 -863q0 -50 49 -51q74 0 195 168l47 -33
q-126 -255 -305 -253q-144 0 -144 157q0 86 82 393h-8q-62 -149 -166 -292q-104 -142 -191 -200t-173 -58zM920 903q-53 117 -208 117q-83 0 -171 -66q-178 -133 -258 -401q-39 -127 -39 -250q0 -225 123 -225q106 0 262 205t251 472q28 79 40 148z" />
    <glyph glyph-name="Emacron" unicode="&#x112;" horiz-adv-x="1591" 
d="M723 1909h541l-13 -107h-540zM481 1411q0 93 -135 112q-43 5 -96 7l8 67h1288l-39 -362h-41q-47 156 -108 214t-197 58h-497l-80 -649h456q78 0 120 55t73 160h55l-63 -518h-56q-6 104 -35 159q-30 54 -108 54h-453l-55 -446q-8 -82 -8 -121q0 -63 52 -87t177 -24h265
q82 0 135 12q95 21 183 138q44 57 105 149h54l-119 -389h-1301l9 68q127 4 174 27q86 42 98 143l133 1091q6 49 6 82z" />
    <glyph glyph-name="emacron" unicode="&#x113;" horiz-adv-x="964" 
d="M78 373q0 131 40 260q83 268 293 395q105 64 226 64t189 -50t67 -143q0 -94 -47 -161t-156 -136t-459 -188v-21q0 -238 138 -295q41 -16 88 -16q127 0 210 64t150 167l53 -37q-68 -135 -182 -216t-256 -80q-180 0 -267 103t-87 290zM598 1004q-136 0 -243 -162
q-90 -141 -117 -350q269 99 386 184t115 194q0 59 -33 97q-34 37 -108 37zM373 1442h540l-12 -107h-541z" />
    <glyph glyph-name="Ebreve" unicode="&#x114;" horiz-adv-x="1591" 
d="M1415 2114q-52 -408 -387 -408q-334 0 -334 315q0 43 6 93h76q0 -291 246 -291q175 0 266 151q33 55 51 140h76zM481 1411q0 93 -135 112q-43 5 -96 7l8 67h1288l-39 -362h-41q-47 156 -108 214t-197 58h-497l-80 -649h456q78 0 120 55t73 160h55l-63 -518h-56
q-6 104 -35 159q-30 54 -108 54h-453l-55 -446q-8 -82 -8 -121q0 -63 52 -87t177 -24h265q82 0 135 12q95 21 183 138q44 57 105 149h54l-119 -389h-1301l9 68q127 4 174 27q86 42 98 143l133 1091q6 49 6 82z" />
    <glyph glyph-name="ebreve" unicode="&#x115;" horiz-adv-x="964" 
d="M78 373q0 131 40 260q83 268 293 395q105 64 226 64t189 -50t67 -143q0 -94 -47 -161t-156 -136t-459 -188v-21q0 -238 138 -295q41 -16 88 -16q127 0 210 64t150 167l53 -37q-68 -135 -182 -216t-256 -80q-180 0 -267 103t-87 290zM598 1004q-136 0 -243 -162
q-90 -141 -117 -350q269 99 386 184t115 194q0 59 -33 97q-34 37 -108 37zM408 1638q0 -290 245 -290q176 0 267 151q33 55 51 139h76q-25 -195 -121 -301t-269 -106q-331 0 -331 315q0 43 6 92h76z" />
    <glyph glyph-name="Edotaccent" unicode="&#x116;" horiz-adv-x="1591" 
d="M997 1743q-51 0 -84 32q-33 33 -33 81t35 88q35 38 87 38t84 -32t32 -80q0 -49 -35 -88t-86 -39zM481 1411q0 93 -135 112q-43 5 -96 7l8 67h1288l-39 -362h-41q-47 156 -108 214t-197 58h-497l-80 -649h456q78 0 120 55t73 160h55l-63 -518h-56q-6 104 -35 159
q-30 54 -108 54h-453l-55 -446q-8 -82 -8 -121q0 -63 52 -87t177 -24h265q82 0 135 12q95 21 183 138q44 57 105 149h54l-119 -389h-1301l9 68q127 4 174 27q86 42 98 143l133 1091q6 49 6 82z" />
    <glyph glyph-name="edotaccent" unicode="&#x117;" horiz-adv-x="964" 
d="M78 373q0 131 40 260q83 268 293 395q105 64 226 64t189 -50t67 -143q0 -94 -47 -161t-156 -136t-459 -188v-21q0 -238 138 -295q41 -16 88 -16q127 0 210 64t150 167l53 -37q-68 -135 -182 -216t-256 -80q-180 0 -267 103t-87 290zM598 1004q-136 0 -243 -162
q-90 -141 -117 -350q269 99 386 184t115 194q0 59 -33 97q-34 37 -108 37zM666 1286q-51 0 -84 32t-33 81t35 88t86 39t84 -32q32 -32 32 -81t-34 -88t-86 -39z" />
    <glyph glyph-name="Eogonek" unicode="&#x118;" horiz-adv-x="1591" 
d="M1207 -416q70 0 143 31l12 -51q-82 -76 -213 -76q-90 0 -155 51q-66 51 -66 156t72 179t190 126h-1129l9 68q127 4 174 27q86 42 98 143l133 1091q6 50 6 82q0 93 -135 112q-43 5 -96 7l8 67h1288l-39 -362h-41q-47 156 -108 214t-197 58h-497l-80 -649h456q78 0 120 55
t73 160h55l-63 -518h-56q-6 104 -35 159q-30 54 -108 54h-453l-55 -446q-8 -82 -8 -121q0 -63 52 -87t177 -24h265q82 0 135 12q95 21 183 138q44 57 105 149h54l-119 -389q-310 -93 -308 -284q0 -64 42 -98q41 -34 111 -34z" />
    <glyph glyph-name="eogonek" unicode="&#x119;" horiz-adv-x="964" 
d="M78 373q0 131 40 260q83 268 293 395q105 64 226 64t189 -50t67 -143q0 -94 -47 -161t-156 -136t-459 -188v-21q0 -238 138 -295q41 -16 88 -16q127 0 210 64t150 167l53 -37q-96 -193 -276 -266q-172 -114 -172 -264q0 -82 41 -122t111 -40t143 31l12 -51
q-83 -76 -219 -76q-137 0 -193 111q-18 37 -18 86q0 177 150 295q-371 0 -371 393zM598 1004q-136 0 -243 -162q-90 -141 -117 -350q269 99 386 184t115 194q0 59 -33 97q-34 37 -108 37z" />
    <glyph glyph-name="Ecaron" unicode="&#x11a;" horiz-adv-x="1591" 
d="M664 2109h69l248 -280l334 280h69l-356 -426h-115zM481 1411q0 93 -135 112q-43 5 -96 7l8 67h1288l-39 -362h-41q-47 156 -108 214t-197 58h-497l-80 -649h456q78 0 120 55t73 160h55l-63 -518h-56q-6 104 -35 159q-30 54 -108 54h-453l-55 -446q-8 -82 -8 -121
q0 -63 52 -87t177 -24h265q82 0 135 12q95 21 183 138q44 57 105 149h54l-119 -389h-1301l9 68q127 4 174 27q86 42 98 143l133 1091q6 49 6 82z" />
    <glyph glyph-name="ecaron" unicode="&#x11b;" horiz-adv-x="964" 
d="M311 1638h70l248 -280l334 280h69l-356 -426h-115zM78 373q0 131 40 260q83 268 293 395q105 64 226 64t189 -50t67 -143q0 -94 -47 -161t-156 -136t-459 -188v-21q0 -238 138 -295q41 -16 88 -16q127 0 210 64t150 167l53 -37q-68 -135 -182 -216t-256 -80
q-180 0 -267 103t-87 290zM598 1004q-136 0 -243 -162q-90 -141 -117 -350q269 99 386 184t115 194q0 59 -33 97q-34 37 -108 37z" />
    <glyph glyph-name="Gcircumflex" unicode="&#x11c;" horiz-adv-x="1662" 
d="M975 1618q323 0 545 -162l-27 -323h-45q-31 189 -165 290t-304 101q-316 0 -491 -245q-156 -221 -156 -546t142 -493t364 -168q117 0 221 37t168 108l28 240q4 33 5 49v24q0 75 -63 102q-47 20 -169 25l8 68h668l-8 -68q-128 -4 -176 -27q-48 -22 -70 -56t-27 -87
l-43 -350q-226 -159 -539 -158q-312 1 -503 186t-193 525q0 164 50 329q104 351 409 515q156 84 371 84zM1317 1683h-70l-248 281l-333 -281h-70l356 426h115z" />
    <glyph glyph-name="gcircumflex" unicode="&#x11d;" horiz-adv-x="1093" 
d="M987 1212h-69l-248 281l-334 -281h-70l357 426h114zM991 905q0 95 -53 95q-45 -1 -86 -23q61 -77 61 -187q0 -213 -129 -349t-317 -136q-49 0 -96 10q-89 -51 -89 -103q0 -30 19 -44q18 -14 51 -25l299 -94q121 -41 164 -78q84 -72 84 -182q0 -135 -149 -218t-364 -83
q-216 0 -353 82t-135 211q0 200 323 268q-47 41 -47 109q0 97 139 180q-161 74 -161 279t131 340t317 135q139 0 221 -82q35 47 85 80q50 32 104 32t84 -28t30 -71q0 -44 -24 -76t-56 -42h-53zM51 -194q0 -121 97 -180q97 -60 266 -60t263 55q93 55 93 148q0 71 -49 99
t-131 54l-316 101q-119 -41 -171 -93q-52 -54 -52 -124zM768 774q0 240 -190 240q-109 0 -193 -107t-84 -284q1 -106 43 -173t149 -67t191 107t84 284z" />
    <glyph glyph-name="Gbreve" unicode="&#x11e;" horiz-adv-x="1662" 
d="M1389 2114q-52 -408 -390 -408q-331 0 -331 315q0 43 6 93h76q0 -291 245 -291q176 0 267 151q33 55 51 140h76zM975 1618q323 0 545 -162l-27 -323h-45q-31 189 -165 290t-304 101q-316 0 -491 -245q-156 -221 -156 -546t142 -493t364 -168q117 0 221 37t168 108l28 240
q4 33 5 49v24q0 75 -63 102q-47 20 -169 25l8 68h668l-8 -68q-128 -4 -176 -27q-48 -22 -70 -56t-27 -87l-43 -350q-226 -159 -539 -158q-312 1 -503 186t-193 525q0 164 50 329q104 351 409 515q156 84 371 84z" />
    <glyph glyph-name="gbreve" unicode="&#x11f;" horiz-adv-x="1093" 
d="M991 905q0 95 -53 95q-45 -1 -86 -23q61 -77 61 -187q0 -213 -129 -349t-317 -136q-49 0 -96 10q-89 -51 -89 -103q0 -30 19 -44q18 -14 51 -25l299 -94q121 -41 164 -78q84 -72 84 -182q0 -135 -149 -218t-364 -83q-216 0 -353 82t-135 211q0 200 323 268
q-47 41 -47 109q0 97 139 180q-161 74 -161 279t131 340t317 135q139 0 221 -82q35 47 85 80q50 32 104 32t84 -28t30 -71q0 -44 -24 -76t-56 -42h-53zM51 -194q0 -121 97 -180q97 -60 266 -60t263 55q93 55 93 148q0 71 -49 99t-131 54l-316 101q-119 -41 -171 -93
q-52 -54 -52 -124zM768 774q0 240 -190 240q-109 0 -193 -107t-84 -284q1 -106 43 -173t149 -67t191 107t84 284zM1036 1638q-52 -407 -387 -407q-334 0 -334 315q0 43 7 92h75q0 -290 246 -290q252 0 318 290h75z" />
    <glyph glyph-name="Gdotaccent" unicode="&#x120;" horiz-adv-x="1662" 
d="M983 1743q-51 0 -84 32q-33 33 -33 81t35 88t86 38q51 0 84 -32t33 -80q0 -49 -35 -88t-86 -39zM975 1618q323 0 545 -162l-27 -323h-45q-31 189 -165 290t-304 101q-316 0 -491 -245q-156 -221 -156 -546t142 -493t364 -168q117 0 221 37t168 108l28 240q4 33 5 49v24
q0 75 -63 102q-47 20 -169 25l8 68h668l-8 -68q-128 -4 -176 -27q-48 -22 -70 -56t-27 -87l-43 -350q-226 -159 -539 -158q-312 1 -503 186t-193 525q0 164 50 329q104 351 409 515q156 84 371 84z" />
    <glyph glyph-name="gdotaccent" unicode="&#x121;" horiz-adv-x="1093" 
d="M991 905q0 95 -53 95q-45 -1 -86 -23q61 -77 61 -187q0 -213 -129 -349t-317 -136q-49 0 -96 10q-89 -51 -89 -103q0 -30 19 -44q18 -14 51 -25l299 -94q121 -41 164 -78q84 -72 84 -182q0 -135 -149 -218t-364 -83q-216 0 -353 82t-135 211q0 200 323 268
q-47 41 -47 109q0 97 139 180q-161 74 -161 279t131 340t317 135q139 0 221 -82q35 47 85 80q50 32 104 32t84 -28t30 -71q0 -44 -24 -76t-56 -42h-53zM51 -194q0 -121 97 -180q97 -60 266 -60t263 55q93 55 93 148q0 71 -49 99t-131 54l-316 101q-119 -41 -171 -93
q-52 -54 -52 -124zM768 774q0 240 -190 240q-109 0 -193 -107t-84 -284q1 -106 43 -173t149 -67t191 107t84 284zM653 1286q-51 0 -84 32t-33 81t35 88t86 39t84 -32t33 -81t-35 -88t-86 -39z" />
    <glyph glyph-name="Gcommaaccent" unicode="&#x122;" horiz-adv-x="1662" 
d="M610 -229q0 49 33 82t97 33t96 -45q61 -81 17 -183t-153 -145q-55 -23 -129 -25l13 70q76 8 114 32t66 74h-64q-90 23 -90 107zM975 1618q323 0 545 -162l-27 -323h-45q-31 189 -165 290t-304 101q-316 0 -491 -245q-156 -221 -156 -546t142 -493t364 -168q117 0 221 37
t168 108l28 240q4 33 5 49v24q0 75 -63 102q-47 20 -169 25l8 68h668l-8 -68q-128 -4 -176 -27q-48 -22 -70 -56t-27 -87l-43 -350q-226 -159 -539 -158q-312 1 -503 186t-193 525q0 164 50 329q104 351 409 515q156 84 371 84z" />
    <glyph glyph-name="gcommaaccent" unicode="&#x123;" horiz-adv-x="1093" 
d="M768 1339q0 -49 -33 -82t-97 -33t-96 45q-32 44 -32 96q0 105 79 179t218 78l-12 -70q-76 -8 -115 -32t-66 -74h64q90 -23 90 -107zM991 905q0 95 -53 95q-45 -1 -86 -23q61 -77 61 -187q0 -213 -129 -349t-317 -136q-49 0 -96 10q-89 -51 -89 -103q0 -30 19 -44
q18 -14 51 -25l299 -94q121 -41 164 -78q84 -72 84 -182q0 -135 -149 -218t-364 -83q-216 0 -353 82t-135 211q0 200 323 268q-47 41 -47 109q0 97 139 180q-161 74 -161 279t131 340t317 135q139 0 221 -82q35 47 85 80q50 32 104 32t84 -28t30 -71q0 -44 -24 -76t-56 -42
h-53zM51 -194q0 -121 97 -180q97 -60 266 -60t263 55q93 55 93 148q0 71 -49 99t-131 54l-316 101q-119 -41 -171 -93q-52 -54 -52 -124zM768 774q0 240 -190 240q-109 0 -193 -107t-84 -284q1 -106 43 -173t149 -67t191 107t84 284z" />
    <glyph glyph-name="Hcircumflex" unicode="&#x124;" horiz-adv-x="1964" 
d="M1591 186q0 -95 135 -111q43 -5 97 -7l-8 -68h-668l8 68q129 5 175 27q88 43 97 143l64 528h-920l-59 -498q-6 -50 -6 -82q0 -66 55 -90t176 -28l-8 -68h-668l9 68q127 4 174 27q86 42 98 143l133 1091q6 50 6 82q0 93 -135 112q-43 5 -96 7l8 67h668l-8 -67
q-129 -5 -177 -28q-47 -23 -69 -56t-27 -86l-61 -502h919l58 471q6 50 6 82q-1 33 -17 57q-30 43 -95 51q-66 9 -120 11l8 67h668l-8 -67q-130 -5 -176 -28q-47 -23 -69 -56t-27 -86l-134 -1092q-6 -50 -6 -82zM1501 1683h-69l-248 281l-334 -281h-70l357 426h114z" />
    <glyph glyph-name="hcircumflex" unicode="&#x125;" horiz-adv-x="1292" 
d="M768 102q0 100 58 315t81 335t23 156t-9 56t-44 19q-115 0 -320 -308q-120 -183 -220 -433q-48 -121 -81 -242h-143q46 228 132 703q87 475 122 763l-158 60l2 33l299 100h41q-167 -1014 -266 -1340h8q203 502 457 698q96 75 198 75q131 0 131 -150q0 -124 -77 -418
q-77 -293 -77 -359q1 -66 52 -67q74 0 192 168l50 -33q-131 -255 -308 -253q-67 0 -105 36q-38 34 -38 86zM819 1683h-69l-248 281l-334 -281h-70l357 426h114z" />
    <glyph glyph-name="Hbar" unicode="&#x126;" horiz-adv-x="1964" 
d="M1591 186q0 -95 135 -111q43 -5 97 -7l-8 -68h-668l8 68q129 5 175 27q88 43 97 143l64 528h-920l-59 -498q-6 -50 -6 -82q0 -66 55 -90t176 -28l-8 -68h-668l9 68q127 4 174 27q86 42 98 143l111 905h-240l10 92h240l12 94q6 50 6 82q0 93 -135 112q-43 5 -96 7l8 67
h668l-8 -67q-129 -5 -177 -28q-47 -23 -69 -56t-27 -86l-16 -125h919l13 94q6 50 6 82q-1 33 -17 57q-30 43 -95 51q-66 9 -120 11l8 67h668l-8 -67q-130 -5 -176 -28q-47 -23 -69 -56t-27 -86l-17 -125h250l-12 -92h-248l-107 -875q-6 -50 -6 -82zM1503 858l35 285h-920
l-34 -285h919z" />
    <glyph glyph-name="hbar" unicode="&#x127;" horiz-adv-x="1292" 
d="M768 102q0 100 58 315t81 335t23 156t-9 56t-44 19q-115 0 -320 -308q-120 -183 -220 -433q-48 -121 -81 -242h-143q150 778 223 1239h-195l17 78h188l21 149l-158 60l2 33l299 100h41l-57 -342h383l-17 -78h-381q-112 -641 -194 -920h8q203 502 457 698q96 75 198 75
q131 0 131 -150q0 -124 -77 -418q-77 -293 -77 -359q1 -66 52 -67q74 0 192 168l50 -33q-131 -255 -308 -253q-67 0 -105 36q-38 34 -38 86z" />
    <glyph glyph-name="Itilde" unicode="&#x128;" horiz-adv-x="878" 
d="M506 186q0 -66 55 -90t176 -28l-8 -68h-668l9 68q127 4 174 27q86 42 98 143l133 1091q6 50 6 82q0 93 -135 112q-43 5 -96 7l8 67h668l-8 -67q-129 -5 -177 -28q-47 -23 -69 -56t-27 -86l-133 -1092q-6 -50 -6 -82zM731 1735q-65 0 -146 65q-32 25 -64 45q-33 21 -77 21
t-80 -26t-79 -91l-72 12q113 226 287 228q45 -1 80 -21q34 -20 66 -45t64 -45t76 -20t81 26q36 26 79 90l72 -12q-113 -227 -287 -227z" />
    <glyph glyph-name="itilde" unicode="&#x129;" horiz-adv-x="749" 
d="M227 108q-1 128 67 415q68 288 68 401q0 43 -44 43t-103 -52q-58 -52 -113 -135l-57 31q73 145 162 212t166 68t111 -35t34 -104q0 -98 -49 -316q-86 -381 -86 -480q0 -57 51 -58q72 0 193 168l49 -33q-131 -255 -307 -253q-68 0 -105 36t-37 92zM286 1380q-42 0 -76 -26
t-75 -90l-67 12q51 106 115 167q65 60 141 60t152 -65q30 -25 60 -45q30 -21 72 -21t75 26q34 26 75 91l67 -12q-51 -106 -115 -167q-65 -60 -155 -61q-61 0 -138 66q-30 25 -60 45q-29 20 -71 20z" />
    <glyph glyph-name="Imacron" unicode="&#x12a;" horiz-adv-x="878" 
d="M506 186q0 -66 55 -90t176 -28l-8 -68h-668l9 68q127 4 174 27q86 42 98 143l133 1091q6 50 6 82q0 93 -135 112q-43 5 -96 7l8 67h668l-8 -67q-129 -5 -177 -28q-47 -23 -69 -56t-27 -86l-133 -1092q-6 -50 -6 -82zM360 1909h541l-12 -107h-541z" />
    <glyph glyph-name="imacron" unicode="&#x12b;" horiz-adv-x="749" 
d="M221 1442h479l-12 -107h-479zM227 108q-1 128 67 415q68 288 68 401q0 43 -44 43t-103 -52q-58 -52 -113 -135l-57 31q73 145 162 212t166 68t111 -35t34 -104q0 -98 -49 -316q-86 -381 -86 -480q0 -57 51 -58q72 0 193 168l49 -33q-131 -255 -307 -253q-68 0 -105 36
t-37 92z" />
    <glyph glyph-name="Ibreve" unicode="&#x12c;" horiz-adv-x="878" 
d="M506 186q0 -66 55 -90t176 -28l-8 -68h-668l9 68q127 4 174 27q86 42 98 143l133 1091q6 50 6 82q0 93 -135 112q-43 5 -96 7l8 67h668l-8 -67q-129 -5 -177 -28q-47 -23 -69 -56t-27 -86l-133 -1092q-6 -50 -6 -82zM1026 2114q-52 -408 -390 -408q-331 0 -331 315
q0 43 6 93h76q0 -291 246 -291q175 0 266 151q33 55 51 140h76z" />
    <glyph glyph-name="ibreve" unicode="&#x12d;" horiz-adv-x="749" 
d="M227 108q-1 128 67 415q68 288 68 401q0 43 -44 43t-103 -52q-58 -52 -113 -135l-57 31q73 145 162 212t166 68t111 -35t34 -104q0 -98 -49 -316q-86 -381 -86 -480q0 -57 51 -58q72 0 193 168l49 -33q-131 -255 -307 -253q-68 0 -105 36t-37 92zM862 1638
q-52 -407 -387 -407q-334 0 -334 315q0 43 6 92h76q0 -290 246 -290q175 0 266 151q33 55 51 139h76z" />
    <glyph glyph-name="Iogonek" unicode="&#x12e;" horiz-adv-x="878" 
d="M422 -284q0 -64 41 -98t111 -34t143 31l12 -51q-82 -76 -219 -76t-196 109q-19 37 -19 86q0 117 73 191t189 126h-496l9 68q127 4 174 27q86 42 98 143l133 1091q6 50 6 82q0 93 -135 112q-43 5 -96 7l8 67h668l-8 -67q-129 -5 -177 -28q-47 -23 -69 -56t-27 -86
l-133 -1092q-6 -50 -6 -82q0 -66 55 -90t176 -28l-8 -68q-124 -37 -215 -105q-92 -68 -92 -179z" />
    <glyph glyph-name="iogonek" unicode="&#x12f;" horiz-adv-x="749" 
d="M385 176q0 -57 51 -57q27 0 77 41t118 106l41 -41q-92 -98 -172 -169t-140 -128t-95 -109q-34 -52 -34 -112q0 -123 154 -123q69 0 139 31l13 -51q-82 -76 -213 -76q-88 0 -152 50t-66 145q0 137 148 251q39 31 74 56q-100 18 -100 134t67 398q67 298 67 402q0 43 -44 43
t-103 -52q-58 -52 -113 -135l-57 31q73 145 162 212t166 68t111 -35t34 -100q0 -99 -66 -390q-66 -292 -67 -390zM596 1428q0 -48 -35 -88t-86 -40t-84 32t-33 81t35 88t86 39t84 -32t33 -80z" />
    <glyph glyph-name="Idotaccent" unicode="&#x130;" horiz-adv-x="878" 
d="M506 186q0 -66 55 -90t176 -28l-8 -68h-668l9 68q127 4 174 27q86 42 98 143l133 1091q6 50 6 82q0 93 -135 112q-43 5 -96 7l8 67h668l-8 -67q-129 -5 -177 -28q-47 -23 -69 -56t-27 -86l-133 -1092q-6 -50 -6 -82zM629 1743q-51 0 -84 32q-33 33 -33 81t35 88t86 38
q51 0 84 -32t33 -80q0 -49 -35 -88t-86 -39z" />
    <glyph glyph-name="dotlessi" unicode="&#x131;" horiz-adv-x="749" 
d="M227 108q-1 128 67 415q68 288 68 401q0 43 -44 43t-103 -52q-58 -52 -113 -135l-57 31q73 145 162 212t166 68t111 -35t34 -104q0 -98 -49 -316q-86 -381 -86 -480q0 -57 51 -58q72 0 193 168l49 -33q-131 -255 -307 -253q-68 0 -105 36t-37 92z" />
    <glyph glyph-name="IJ" unicode="&#x132;" horiz-adv-x="1892" 
d="M506 186q0 -66 55 -90t176 -28l-8 -68h-668l9 68q127 4 174 27q86 42 98 143l133 1091q6 50 6 82q0 93 -135 112q-43 5 -96 7l8 67h668l-8 -67q-129 -5 -177 -28q-47 -23 -69 -56t-27 -86l-133 -1092q-6 -50 -6 -82zM985 247q0 -67 44 -127t159 -60t183 74q68 75 91 274
l111 921q4 33 4 49v25q0 75 -63 101q-50 22 -168 26l8 67h667l-8 -67q-128 -4 -175 -28q-48 -23 -70 -56t-27 -86l-111 -918q-28 -229 -136 -346t-318 -116q-286 0 -363 160q-23 48 -22 102q0 109 90 151h133q-29 -79 -29 -146z" />
    <glyph glyph-name="ij" unicode="&#x133;" horiz-adv-x="1271" 
d="M227 108q-1 128 67 415q68 288 68 401q0 43 -44 43t-103 -52q-58 -52 -113 -135l-57 31q73 145 162 212t166 68t111 -35t34 -104q0 -98 -49 -316q-86 -381 -86 -480q0 -57 51 -58q72 0 193 168l49 -33q-131 -255 -307 -253q-68 0 -105 36t-37 92zM596 1428q0 -48 -35 -88
t-86 -40t-84 32t-33 81t35 88t86 39t84 -32t33 -80zM514 -240q0 -194 87 -194q46 0 77 24q62 47 107 237q24 97 46 245l113 719q12 78 12 127t-38 49q-97 0 -220 -187l-57 31q73 145 162 212t166 68t111 -35t34 -98t-10 -133l-80 -514q-69 -454 -168 -639
q-99 -184 -270 -184q-109 0 -162 47t-53 103q0 92 75 122h68zM1198 1428q0 -48 -35 -88t-86 -40t-84 32t-33 81t35 88t86 39t84 -32t33 -80z" />
    <glyph glyph-name="Jcircumflex" unicode="&#x134;" horiz-adv-x="1114" 
d="M12 242q0 108 90 151h134q-29 -78 -29 -146q0 -67 44 -127t159 -60t183 74q68 75 91 274l111 921q4 33 4 49v25q0 74 -56 98t-176 29l8 67h668l-8 -67q-130 -5 -176 -28q-47 -23 -69 -56t-27 -86l-111 -918q-28 -229 -136 -346t-319 -116q-289 0 -362 160q-23 48 -23 102
zM1268 1683h-70l-248 281l-334 -281h-69l356 426h115z" />
    <glyph glyph-name="jcircumflex" unicode="&#x135;" horiz-adv-x="636" 
d="M-82 -240q0 -194 87 -194q46 0 77 24q62 47 107 237q24 97 47 245l112 719q12 78 12 127t-38 49q-97 0 -220 -187l-57 31q139 279 353 281q54 0 86 -36q34 -36 34 -98t-10 -133l-80 -514q-69 -454 -168 -639q-99 -184 -270 -184q-109 0 -162 47t-53 103q0 92 75 122h68z
M782 1212h-69l-248 281l-334 -281h-70l357 426h114z" />
    <glyph glyph-name="Kcommaaccent" unicode="&#x136;" horiz-adv-x="1687" 
d="M733 -229q0 49 33 82q32 33 96 33t96 -45q32 -44 33 -96q0 -105 -79 -179t-218 -78l13 70q77 8 115 32t65 74h-64q-90 23 -90 107zM1288 1460q0 22 -9 37q-12 22 -161 33l8 67h555l-8 -67q-99 -4 -156 -32q-57 -27 -137 -101l-592 -545l445 -535q108 -130 169 -174
q60 -43 110 -59t112 -16l-8 -68h-293q-129 97 -250 246l-463 565l617 571q61 56 61 78zM506 186q0 -66 55 -90t176 -28l-8 -68h-668l9 68q127 4 174 27q86 42 98 143l133 1091q6 50 6 82q0 93 -135 112q-43 5 -96 7l8 67h668l-8 -67q-129 -5 -177 -28q-47 -23 -69 -56
t-27 -86l-133 -1092q-6 -50 -6 -82z" />
    <glyph glyph-name="kcommaaccent" unicode="&#x137;" horiz-adv-x="1206" 
d="M350 -229q0 49 33 82t97 33t96 -45q32 -44 32 -96q0 -105 -79 -179t-218 -78l13 70q76 8 114 32t66 74h-64q-90 23 -90 107zM844 1092q106 0 158 -52t53 -137q0 -229 -367 -399l123 -289q31 -73 51 -97t58 -24q95 0 204 168l52 -33q-142 -251 -318 -249q-66 0 -104 43
t-70 127l-125 315q-115 -33 -227 -57l-78 -408h-141q37 201 76 408q143 739 178 1058l-158 60l2 33l299 100h41q-78 -521 -154 -883q111 170 226 243t221 73zM778 983q-118 0 -276 -167q-55 -58 -123 -140l-37 -195q539 115 541 385q0 117 -105 117z" />
    <glyph glyph-name="kgreenlandic" unicode="&#x138;" horiz-adv-x="1312" 
d="M989 866q0 117 -104 117q-82 0 -175 -72t-229 -237l-35 -193q543 116 543 385zM950 1092q106 0 158 -52t53 -137q0 -228 -366 -399l123 -289q31 -73 51 -97t57 -24q94 0 205 168l51 -33q-142 -251 -317 -249q-66 0 -104 43t-70 127l-125 315q-107 -31 -232 -57l-72 -408
h-143l152 862q6 27 6 66t-43 39t-105 -53q-61 -53 -112 -134l-58 31q73 145 162 212t174 69q129 0 127 -131q0 -41 -24 -185q111 170 228 243q118 73 224 73z" />
    <glyph glyph-name="Lacute" unicode="&#x139;" horiz-adv-x="1478" 
d="M1128 2109l-448 -426h-68l297 426h219zM700 90h261q132 0 215 70t213 260h49l-127 -420h-1250l9 68q127 4 174 27q86 42 98 143l133 1091q6 50 6 82q0 93 -135 112q-43 5 -96 7l8 67h668l-8 -67q-129 -5 -177 -28q-47 -23 -69 -56t-27 -86l-127 -1038q-8 -82 -8 -133
q0 -99 190 -99z" />
    <glyph glyph-name="lacute" unicode="&#x13a;" horiz-adv-x="647" 
d="M932 2144l-449 -426h-67l297 426h219zM133 129q0 105 107 653t122 684l-157 60l2 33l287 100h41q-20 -232 -135 -809q-115 -578 -115 -694q0 -57 49 -58q76 0 194 168l47 -33q-126 -255 -305 -253q-137 -1 -137 149z" />
    <glyph glyph-name="Lcommaaccent" unicode="&#x13b;" horiz-adv-x="1478" 
d="M643 -229q0 49 33 82q32 33 96 33t96 -45q32 -44 33 -96q0 -105 -79 -179t-218 -78l12 70q76 8 115 32t66 74h-64q-90 23 -90 107zM700 90h261q132 0 215 70t213 260h49l-127 -420h-1250l9 68q127 4 174 27q86 42 98 143l133 1091q6 50 6 82q0 93 -135 112q-43 5 -96 7
l8 67h668l-8 -67q-129 -5 -177 -28q-47 -23 -69 -56t-27 -86l-127 -1038q-8 -82 -8 -133q0 -99 190 -99z" />
    <glyph glyph-name="lcommaaccent" unicode="&#x13c;" horiz-adv-x="647" 
d="M94 -229q0 49 33 82t97 33t96 -45q32 -44 32 -96q0 -105 -79 -179t-218 -78l13 70q76 8 114 32t66 74h-64q-90 23 -90 107zM133 129q0 105 107 653t122 684l-157 60l2 33l287 100h41q-20 -232 -135 -809q-115 -578 -115 -694q0 -57 49 -58q76 0 194 168l47 -33
q-126 -255 -305 -253q-137 -1 -137 149z" />
    <glyph glyph-name="Lcaron" unicode="&#x13d;" horiz-adv-x="1478" 
d="M1366 1597l-252 -426h-63l125 426h190zM700 90h261q132 0 215 70t213 260h49l-127 -420h-1250l9 68q127 4 174 27q86 42 98 143l133 1091q6 50 6 82q0 93 -135 112q-43 5 -96 7l8 67h668l-8 -67q-129 -5 -177 -28q-47 -23 -69 -56t-27 -86l-127 -1038q-8 -82 -8 -133
q0 -99 190 -99z" />
    <glyph glyph-name="lcaron" unicode="&#x13e;" horiz-adv-x="647" 
d="M897 1638l-252 -426h-63l125 426h190zM133 129q0 105 107 653t122 684l-157 60l2 33l287 100h41q-20 -232 -135 -809q-115 -578 -115 -694q0 -57 49 -58q76 0 194 168l47 -33q-126 -255 -305 -253q-137 -1 -137 149z" />
    <glyph glyph-name="Ldot" unicode="&#x13f;" horiz-adv-x="1478" 
d="M700 90h261q132 0 215 70t213 260h49l-127 -420h-1250l9 68q127 4 174 27q86 42 98 143l133 1091q6 50 6 82q0 93 -135 112q-43 5 -96 7l8 67h668l-8 -67q-129 -5 -177 -28q-47 -23 -69 -56t-27 -86l-127 -1038q-8 -82 -8 -133q0 -99 190 -99zM1106 819q0 53 38 92t91 39
t92 -39t39 -92t-39 -91t-92 -38t-91 38t-38 91z" />
    <glyph glyph-name="ldot" unicode="&#x140;" horiz-adv-x="724" 
d="M559 817q0 53 38 92t91 39t92 -39t39 -92t-39 -91t-92 -38t-91 38t-38 91zM133 129q0 105 107 653t122 684l-157 60l2 33l287 100h41q-20 -232 -135 -809q-115 -578 -115 -694q0 -57 49 -58q76 0 194 168l47 -33q-126 -255 -305 -253q-137 -1 -137 149z" />
    <glyph glyph-name="Lslash" unicode="&#x141;" horiz-adv-x="1478" 
d="M700 90h261q132 0 215 70t213 260h49l-127 -420h-1250l9 68q127 4 174 27q86 42 98 143l51 417l-258 -116l12 102l259 119l69 569q6 50 6 82q0 93 -135 112q-43 5 -96 7l8 67h668l-8 -67q-129 -5 -177 -28q-47 -23 -69 -56t-27 -86l-65 -524l438 200l-12 -102l-439 -203
l-49 -409q-8 -82 -8 -133q0 -99 190 -99z" />
    <glyph glyph-name="lslash" unicode="&#x142;" horiz-adv-x="667" 
d="M143 129q0 100 40 307t59 309l-154 -98l21 107l153 98q22 121 58 308q36 186 53 306l-158 60l2 33l287 100h41q-22 -223 -60 -417q-38 -195 -57 -298l215 139l-18 -104l-217 -139q-23 -115 -42 -224t-45 -252t-26 -204t49 -62q74 0 195 168l47 -33q-126 -255 -305 -253
q-138 -1 -138 149z" />
    <glyph glyph-name="Nacute" unicode="&#x143;" horiz-adv-x="1892" 
d="M1497 2109l-448 -426h-68l297 426h219zM1579 1404q0 40 -16 64q-29 43 -119 55q-43 5 -96 7l8 67h608l-8 -67q-130 -5 -176 -28t-68 -56t-29 -86l-165 -1360h-66l-872 1303l-127 -1035q-7 -40 -7 -77q0 -71 63 -98q47 -20 169 -25l-8 -68h-609l9 68q127 4 174 27
q86 42 98 143l141 1155q-71 93 -110 115q-38 22 -125 22l8 67h332l862 -1298l123 1030q6 35 6 75z" />
    <glyph glyph-name="nacute" unicode="&#x144;" horiz-adv-x="1396" 
d="M1253 1638l-448 -426h-68l297 426h219zM1016 -20q-142 0 -142 141q0 70 62 316q62 245 80 339q18 96 18 132t-9 56t-44 19q-73 0 -200 -146q-127 -151 -209 -313q-150 -296 -212 -524h-143l152 848q8 36 8 78t-43 41q-43 0 -105 -53q-61 -53 -112 -134l-58 31
q73 145 162 212t166 68q78 1 113 -35t35 -81t-29 -174l-117 -482h8q202 499 457 698q96 75 199 75q131 0 131 -150q0 -114 -54 -323q-54 -208 -76 -307q-24 -99 -24 -156t51 -58q72 0 193 168l49 -33q-131 -255 -307 -253z" />
    <glyph glyph-name="Ncommaaccent" unicode="&#x145;" horiz-adv-x="1892" 
d="M799 -229q0 49 32 82q33 33 97 33t96 -45q32 -44 33 -96t-19 -96q-41 -93 -149 -136q-55 -23 -129 -25l12 70q76 8 115 32t65 74h-63q-90 23 -90 107zM1579 1404q0 40 -16 64q-29 43 -119 55q-43 5 -96 7l8 67h608l-8 -67q-130 -5 -176 -28t-68 -56t-29 -86l-165 -1360
h-66l-872 1303l-127 -1035q-7 -40 -7 -77q0 -71 63 -98q47 -20 169 -25l-8 -68h-609l9 68q127 4 174 27q86 42 98 143l141 1155q-71 93 -110 115q-38 22 -125 22l8 67h332l862 -1298l123 1030q6 35 6 75z" />
    <glyph glyph-name="ncommaaccent" unicode="&#x146;" horiz-adv-x="1396" 
d="M467 -229q0 49 33 82q32 33 96 33t96 -45q32 -44 33 -96q0 -105 -79 -179t-218 -78l12 70q76 8 115 32t66 74h-64q-90 23 -90 107zM1016 -20q-142 0 -142 141q0 70 62 316q62 245 80 339q18 96 18 132t-9 56t-44 19q-73 0 -200 -146q-127 -151 -209 -313
q-150 -296 -212 -524h-143l152 848q8 36 8 78t-43 41q-43 0 -105 -53q-61 -53 -112 -134l-58 31q73 145 162 212t166 68q78 1 113 -35t35 -81t-29 -174l-117 -482h8q202 499 457 698q96 75 199 75q131 0 131 -150q0 -114 -54 -323q-54 -208 -76 -307q-24 -99 -24 -156
t51 -58q72 0 193 168l49 -33q-131 -255 -307 -253z" />
    <glyph glyph-name="Ncaron" unicode="&#x147;" horiz-adv-x="1892" 
d="M778 2109h70l248 -280l334 280h69l-356 -426h-115zM1579 1404q0 40 -16 64q-29 43 -119 55q-43 5 -96 7l8 67h608l-8 -67q-130 -5 -176 -28t-68 -56t-29 -86l-165 -1360h-66l-872 1303l-127 -1035q-7 -40 -7 -77q0 -71 63 -98q47 -20 169 -25l-8 -68h-609l9 68
q127 4 174 27q86 42 98 143l141 1155q-71 93 -110 115q-38 22 -125 22l8 67h332l862 -1298l123 1030q6 35 6 75z" />
    <glyph glyph-name="ncaron" unicode="&#x148;" horiz-adv-x="1396" 
d="M489 1638h70l248 -280l334 280h69l-356 -426h-115zM1016 -20q-142 0 -142 141q0 70 62 316q62 245 80 339q18 96 18 132t-9 56t-44 19q-73 0 -200 -146q-127 -151 -209 -313q-150 -296 -212 -524h-143l152 848q8 36 8 78t-43 41q-43 0 -105 -53q-61 -53 -112 -134l-58 31
q73 145 162 212t166 68q78 1 113 -35t35 -81t-29 -174l-117 -482h8q202 499 457 698q96 75 199 75q131 0 131 -150q0 -114 -54 -323q-54 -208 -76 -307q-24 -99 -24 -156t51 -58q72 0 193 168l49 -33q-131 -255 -307 -253z" />
    <glyph glyph-name="Eng" unicode="&#x14a;" horiz-adv-x="1892" 
d="M446 191q0 -71 63 -98q47 -20 169 -25l-8 -68h-609l9 68q127 4 174 27q86 42 98 143l141 1155q-71 93 -110 115q-38 22 -125 22l8 67h332l862 -1298l123 1030q6 34 6 75q0 40 -16 64q-29 43 -119 55q-43 5 -96 7l8 67h608l-8 -67q-130 -5 -176 -28t-68 -56t-29 -86
l-182 -1489q-31 -282 -213 -356q-63 -27 -152 -27q-162 0 -245 76q-62 58 -64 145q0 49 22 83t52 50h107q-16 -32 -16 -100t36 -122q37 -54 115 -54q119 0 175 70t81 237l24 168l-843 1262l-127 -1035q-7 -40 -7 -77z" />
    <glyph glyph-name="eng" unicode="&#x14b;" horiz-adv-x="1251" 
d="M541 -240q1 -194 87 -194q46 0 79 28q94 81 178 508l102 523q47 235 47 277t-9 62t-44 19q-73 0 -200 -146q-127 -151 -209 -313q-150 -296 -212 -524h-143l152 848q8 36 8 78t-43 41q-43 0 -105 -53q-61 -53 -112 -134l-58 31q73 145 162 212t166 68q78 1 113 -35
t35 -81t-29 -174l-117 -482h8q202 499 457 698q96 75 199 75q131 0 131 -150q0 -82 -14 -153q-14 -72 -20 -113q-7 -41 -13 -68l-95 -487q-96 -496 -289 -598q-65 -35 -157 -35t-146 47q-52 47 -52 103q-1 92 75 122h68z" />
    <glyph glyph-name="Omacron" unicode="&#x14c;" horiz-adv-x="1656" 
d="M768 1909h541l-13 -107h-540zM1419 888q0 289 -129 463q-129 173 -348 173q-152 0 -266 -71q-226 -141 -305 -449q-39 -147 -39 -295q0 -291 129 -463t369 -172q132 0 244 70q226 140 306 450q39 146 39 294zM812 -20q-314 0 -490 185q-175 185 -177 511q0 182 57 352
q117 354 419 511q153 79 319 79q314 0 490 -186t176 -510q0 -182 -57 -353q-117 -355 -419 -511q-152 -78 -318 -78z" />
    <glyph glyph-name="omacron" unicode="&#x14d;" horiz-adv-x="1048" 
d="M408 1442h540l-12 -107h-541zM453 68q160 0 260 177t100 421q0 336 -217 338q-82 0 -149 -50q-131 -99 -186 -324q-25 -108 -25 -245t53 -227t164 -90zM436 -20q-110 0 -174 30q-184 89 -184 361q0 127 38 256q80 272 281 400q102 65 213 65q191 0 275 -106t85 -260
q1 -153 -37 -282t-110 -232q-72 -104 -174 -168q-103 -64 -213 -64z" />
    <glyph glyph-name="Obreve" unicode="&#x14e;" horiz-adv-x="1656" 
d="M1425 2114q-52 -408 -387 -408t-333 315q0 43 6 93h75q0 -291 246 -291q253 0 318 291h75zM1419 888q0 289 -129 463q-129 173 -348 173q-152 0 -266 -71q-226 -141 -305 -449q-39 -147 -39 -295q0 -291 129 -463t369 -172q132 0 244 70q226 140 306 450q39 146 39 294z
M812 -20q-314 0 -490 185q-175 185 -177 511q0 182 57 352q117 354 419 511q153 79 319 79q314 0 490 -186t176 -510q0 -182 -57 -353q-117 -355 -419 -511q-152 -78 -318 -78z" />
    <glyph glyph-name="obreve" unicode="&#x14f;" horiz-adv-x="1048" 
d="M453 68q160 0 260 177t100 421q0 336 -217 338q-82 0 -149 -50q-131 -99 -186 -324q-25 -108 -25 -245t53 -227t164 -90zM436 -20q-110 0 -174 30q-184 89 -184 361q0 127 38 256q80 272 281 400q102 65 213 65q191 0 275 -106t85 -260q1 -153 -37 -282t-110 -232
q-72 -104 -174 -168q-103 -64 -213 -64zM1069 1638q-52 -407 -387 -407q-334 0 -334 315q0 43 6 92h76q0 -290 246 -290q175 0 266 151q33 55 51 139h76z" />
    <glyph glyph-name="Ohungarumlaut" unicode="&#x150;" horiz-adv-x="1656" 
d="M1419 888q0 289 -129 463q-129 173 -348 173q-152 0 -266 -71q-226 -141 -305 -449q-39 -147 -39 -295q0 -291 129 -463t369 -172q132 0 244 70q226 140 306 450q39 146 39 294zM812 -20q-314 0 -490 185q-175 185 -177 511q0 182 57 352q117 354 419 511q153 79 319 79
q314 0 490 -186t176 -510q0 -182 -57 -353q-117 -355 -419 -511q-152 -78 -318 -78zM1161 2109l-297 -426h-78l191 426h184zM1477 2109l-297 -426h-78l190 426h185z" />
    <glyph glyph-name="ohungarumlaut" unicode="&#x151;" horiz-adv-x="1048" 
d="M809 1638l-297 -426h-78l191 426h184zM1124 1638l-297 -426h-77l190 426h184zM453 68q160 0 260 177t100 421q0 336 -217 338q-82 0 -149 -50q-131 -99 -186 -324q-25 -108 -25 -245t53 -227t164 -90zM436 -20q-110 0 -174 30q-184 89 -184 361q0 127 38 256
q80 272 281 400q102 65 213 65q191 0 275 -106t85 -260q1 -153 -37 -282t-110 -232q-72 -104 -174 -168q-103 -64 -213 -64z" />
    <glyph glyph-name="OE" unicode="&#x152;" horiz-adv-x="2426" 
d="M764 -20q-119 0 -237 47q-119 47 -203 136q-178 187 -179 513q0 182 57 352q117 354 419 511q152 79 342 79q98 0 176 -21h1243l-39 -362h-41q-47 157 -109 214q-61 58 -196 58h-656q125 -88 195 -235t70 -350l-2 -64h272q78 0 120 55t72 160h56l-64 -518h-55
q-6 105 -36 159t-107 54h-267q-44 -330 -255 -554q-69 -73 -152 -124h651q82 0 135 12q96 22 184 138q44 57 105 149h53l-118 -389h-1229q-86 -20 -205 -20zM1419 888q0 289 -129 463q-129 173 -348 173q-152 0 -266 -71q-226 -141 -305 -449q-39 -147 -39 -295
q0 -291 129 -463t369 -172q132 0 244 70q226 140 306 450q39 146 39 294z" />
    <glyph glyph-name="oe" unicode="&#x153;" horiz-adv-x="1665" 
d="M78 371q0 127 38 256q80 272 281 400q103 65 233 65q239 0 310 -222q171 220 410 222q108 0 176 -50t68 -143q0 -94 -48 -161q-47 -67 -156 -136t-458 -188v-21q0 -238 137 -295q41 -16 88 -16q127 0 210 64t151 167l53 -37q-69 -135 -183 -216t-255 -80q-252 0 -326 221
q-162 -221 -391 -221q-169 0 -253 107q-85 107 -85 284zM453 68q160 0 260 177t100 421q0 336 -217 338q-82 0 -149 -50q-131 -99 -186 -324q-25 -108 -25 -245t53 -227t164 -90zM1440 870q0 58 -34 96t-108 38q-137 0 -235 -153t-125 -359q267 99 354 161q86 62 117 110
t31 107z" />
    <glyph glyph-name="Racute" unicode="&#x154;" horiz-adv-x="1673" 
d="M1264 1190q0 317 -379 317h-221l-84 -684h254q316 0 400 197q30 70 30 170zM506 186q0 -66 55 -90t176 -28l-8 -68h-668l9 68q127 4 174 27q86 42 98 143l133 1091q6 50 6 82q0 93 -135 112q-43 5 -96 7l8 67h633q275 0 417 -99t142 -286q0 -222 -151 -341t-371 -132
l274 -383q172 -245 304 -277q46 -11 104 -11l-8 -68h-312q-144 133 -250 291l-307 444h-164l-57 -467q-6 -50 -6 -82zM1376 2109l-448 -426h-68l297 426h219z" />
    <glyph glyph-name="racute" unicode="&#x155;" horiz-adv-x="1021" 
d="M1114 1638l-448 -426h-68l297 426h219zM891 848q0 86 -57 86q-84 0 -221 -270q-138 -270 -253 -664h-143l152 848q8 36 8 78t-43 41q-43 0 -105 -53q-61 -53 -112 -134l-58 31q78 156 169 218q91 63 164 63t105 -36q31 -36 31 -83t-28 -172l-109 -482h8q90 246 171 414
q172 357 348 359q121 0 120 -113q0 -45 -28 -80t-58 -51h-61z" />
    <glyph glyph-name="Rcommaaccent" unicode="&#x156;" horiz-adv-x="1673" 
d="M672 -229q0 49 33 82t97 33t96 -45q32 -44 32 -96t-20 -96q-41 -93 -148 -136q-55 -23 -129 -25l12 70q76 8 115 32t65 74h-63q-90 23 -90 107zM1264 1190q0 317 -379 317h-221l-84 -684h254q316 0 400 197q30 70 30 170zM506 186q0 -66 55 -90t176 -28l-8 -68h-668l9 68
q127 4 174 27q86 42 98 143l133 1091q6 50 6 82q0 93 -135 112q-43 5 -96 7l8 67h633q275 0 417 -99t142 -286q0 -222 -151 -341t-371 -132l274 -383q172 -245 304 -277q46 -11 104 -11l-8 -68h-312q-144 133 -250 291l-307 444h-164l-57 -467q-6 -50 -6 -82z" />
    <glyph glyph-name="rcommaaccent" unicode="&#x157;" horiz-adv-x="1028" 
d="M139 -229q0 49 33 82q32 33 96 33t97 -45q61 -81 17 -183t-153 -145q-55 -23 -129 -25l13 70q77 8 115 32t65 74h-64q-90 23 -90 107zM897 848q0 86 -57 86q-85 0 -221 -270t-252 -664h-144l152 848q8 36 8 78t-43 41q-43 0 -105 -53q-61 -53 -112 -134l-57 31
q78 156 168 218q91 63 164 63t105 -36t32 -81t-29 -174l-109 -482h9q90 246 171 414t170 263t177 96q121 0 120 -113q0 -45 -28 -80t-58 -51h-61z" />
    <glyph glyph-name="Rcaron" unicode="&#x158;" horiz-adv-x="1673" 
d="M584 2109h69l248 -280l334 280h70l-357 -426h-114zM1264 1190q0 317 -379 317h-221l-84 -684h254q316 0 400 197q30 70 30 170zM506 186q0 -66 55 -90t176 -28l-8 -68h-668l9 68q127 4 174 27q86 42 98 143l133 1091q6 50 6 82q0 93 -135 112q-43 5 -96 7l8 67h633
q275 0 417 -99t142 -286q0 -222 -151 -341t-371 -132l274 -383q172 -245 304 -277q46 -11 104 -11l-8 -68h-312q-144 133 -250 291l-307 444h-164l-57 -467q-6 -50 -6 -82z" />
    <glyph glyph-name="rcaron" unicode="&#x159;" horiz-adv-x="1021" 
d="M330 1638h69l248 -280l334 280h70l-357 -426h-114zM891 848q0 86 -57 86q-84 0 -221 -270q-138 -270 -253 -664h-143l152 848q8 36 8 78t-43 41q-43 0 -105 -53q-61 -53 -112 -134l-58 31q78 156 169 218q91 63 164 63t105 -36q31 -36 31 -83t-28 -172l-109 -482h8
q90 246 171 414q172 357 348 359q121 0 120 -113q0 -45 -28 -80t-58 -51h-61z" />
    <glyph glyph-name="Sacute" unicode="&#x15a;" horiz-adv-x="1261" 
d="M739 1618q265 0 441 -129l-41 -326h-47q-25 177 -119 269q-95 92 -245 92t-230 -76t-80 -205q0 -160 160 -261q52 -34 136 -80q209 -115 293 -208q115 -125 113 -286q0 -204 -146 -316t-382 -112q-154 0 -281 44t-207 113l35 375h51q51 -343 267 -416q68 -23 149 -22
q353 0 355 305q0 129 -97 224q-48 46 -116 88t-154 90q-172 96 -248 193t-78 238q0 183 129 294q128 112 342 112zM1225 2109l-449 -426h-67l297 426h219z" />
    <glyph glyph-name="sacute" unicode="&#x15b;" horiz-adv-x="839" 
d="M1022 1638l-449 -426h-67l297 426h219zM31 177q0 83 75 108h46q16 -102 72 -165t150 -63t133 41q40 42 40 104q0 99 -93 215q-40 48 -118 126q-150 149 -150 275t86 200t228 74t211 -52q68 -52 67 -131q0 -33 -17 -59t-46 -37h-53q-10 80 -64 136q-54 57 -132 57
q-76 0 -112 -36t-37 -89q0 -53 27 -103q43 -79 154 -194q180 -188 180 -321q0 -134 -95 -209q-95 -74 -245 -74t-229 57q-78 57 -78 140z" />
    <glyph glyph-name="Scircumflex" unicode="&#x15c;" horiz-adv-x="1261" 
d="M739 1618q265 0 441 -129l-41 -326h-47q-25 177 -119 269q-95 92 -245 92t-230 -76t-80 -205q0 -160 160 -261q52 -34 136 -80q209 -115 293 -208q115 -125 113 -286q0 -204 -146 -316t-382 -112q-154 0 -281 44t-207 113l35 375h51q51 -343 267 -416q68 -23 149 -22
q353 0 355 305q0 129 -97 224q-48 46 -116 88t-154 90q-172 96 -248 193t-78 238q0 183 129 294q128 112 342 112zM1145 1683h-70l-248 281l-333 -281h-70l356 426h115z" />
    <glyph glyph-name="scircumflex" unicode="&#x15d;" horiz-adv-x="839" 
d="M895 1212h-70l-247 281l-334 -281h-70l356 426h115zM31 177q0 83 75 108h46q16 -102 72 -165t150 -63t133 41q40 42 40 104q0 99 -93 215q-40 48 -118 126q-150 149 -150 275t86 200t228 74t211 -52q68 -52 67 -131q0 -33 -17 -59t-46 -37h-53q-10 80 -64 136
q-54 57 -132 57q-76 0 -112 -36t-37 -89q0 -53 27 -103q43 -79 154 -194q180 -188 180 -321q0 -134 -95 -209q-95 -74 -245 -74t-229 57q-78 57 -78 140z" />
    <glyph glyph-name="Scedilla" unicode="&#x15e;" horiz-adv-x="1261" 
d="M739 1618q265 0 441 -129l-41 -326h-47q-25 177 -119 269q-95 92 -245 92t-230 -76t-80 -205q0 -160 160 -261q52 -34 136 -80q209 -115 293 -208q115 -125 113 -286q0 -204 -146 -316t-382 -112h-27q-12 0 -26 2l-33 -68q157 -22 210 -125q19 -37 19 -86
q-1 -109 -69 -162t-147 -53q-140 0 -224 82l39 45q75 -49 164 -49q45 0 84 24t39 84q0 130 -224 152l84 160q-234 28 -377 151l35 375h51q51 -343 267 -416q68 -23 149 -22q353 0 355 305q0 129 -97 224q-48 46 -116 88t-154 90q-172 96 -248 193t-78 238q0 183 129 294
q128 112 342 112z" />
    <glyph glyph-name="scedilla" unicode="&#x15f;" horiz-adv-x="839" 
d="M31 168q0 91 75 117h46q16 -102 72 -165t150 -63t133 41q40 42 40 104q0 99 -93 215q-40 48 -118 126q-150 149 -150 275t86 200t228 74t211 -52q68 -52 67 -131q0 -33 -17 -59t-46 -37h-53q-10 80 -64 136q-54 57 -132 57q-76 0 -112 -36t-37 -89q0 -53 27 -103
q43 -79 154 -194q180 -188 180 -321q0 -134 -95 -209t-249 -74h-6l-33 -66q157 -22 210 -125q19 -37 19 -86q0 -109 -68 -162t-148 -53q-140 0 -224 82l39 45q75 -49 164 -49q45 0 84 24t39 84q0 130 -224 152l82 158q-117 12 -177 65t-60 119z" />
    <glyph glyph-name="Scaron" unicode="&#x160;" horiz-adv-x="1261" 
d="M739 1618q265 0 441 -129l-41 -326h-47q-25 177 -119 269q-95 92 -245 92t-230 -76t-80 -205q0 -160 160 -261q52 -34 136 -80q209 -115 293 -208q115 -125 113 -286q0 -204 -146 -316t-382 -112q-154 0 -281 44t-207 113l35 375h51q51 -343 267 -416q68 -23 149 -22
q353 0 355 305q0 129 -97 224q-48 46 -116 88t-154 90q-172 96 -248 193t-78 238q0 183 129 294q128 112 342 112zM459 2109h69l248 -280l334 280h70l-357 -426h-114z" />
    <glyph glyph-name="scaron" unicode="&#x161;" horiz-adv-x="839" 
d="M229 1638h70l248 -280l334 280h69l-356 -426h-115zM31 177q0 83 75 108h46q16 -102 72 -165t150 -63t133 41q40 42 40 104q0 99 -93 215q-40 48 -118 126q-150 149 -150 275t86 200t228 74t211 -52q68 -52 67 -131q0 -33 -17 -59t-46 -37h-53q-10 80 -64 136
q-54 57 -132 57q-76 0 -112 -36t-37 -89q0 -53 27 -103q43 -79 154 -194q180 -188 180 -321q0 -134 -95 -209q-95 -74 -245 -74t-229 57q-78 57 -78 140z" />
    <glyph glyph-name="Tcommaaccent" unicode="&#x162;" horiz-adv-x="1523" 
d="M563 -229q0 49 33 82q32 33 96 33t96 -45q32 -44 33 -96q0 -105 -79 -179t-218 -78l13 70q77 8 115 32t65 74h-64q-90 23 -90 107zM670 1511q-193 0 -280 -67q-48 -37 -89 -97t-96 -153h-51l84 403h1343l-14 -403h-43q-33 92 -58 154t-59 97q-35 36 -87 51t-140 15h-195
l-151 -1243q-7 -58 -7 -86q0 -62 55 -86t177 -28l-8 -68h-668l8 68q128 5 175 27q86 42 98 143l155 1273h-149z" />
    <glyph glyph-name="tcommaaccent" unicode="&#x163;" horiz-adv-x="806" 
d="M186 -229q0 49 33 82t97 33t96 -45q61 -81 17 -183t-153 -145q-55 -23 -129 -25l13 70q76 8 114 32t66 74h-64q-90 23 -90 107zM307 152q0 -66 55 -66q66 0 146 66t143 163l56 -36q-126 -207 -280 -276q-54 -24 -112 -23q-147 0 -147 149q0 51 12 129l123 725h-149l12 55
q92 41 162 109t141 153h35l-41 -229h282l-16 -88h-283l-124 -713q-15 -88 -15 -118z" />
    <glyph glyph-name="Tcaron" unicode="&#x164;" horiz-adv-x="1523" 
d="M625 2109h69l248 -280l334 280h70l-357 -426h-115zM670 1511q-193 0 -280 -67q-48 -37 -89 -97t-96 -153h-51l84 403h1343l-14 -403h-43q-33 92 -58 154t-59 97q-35 36 -87 51t-140 15h-195l-151 -1243q-7 -58 -7 -86q0 -62 55 -86t177 -28l-8 -68h-668l8 68
q128 5 175 27q86 42 98 143l155 1273h-149z" />
    <glyph glyph-name="tcaron" unicode="&#x165;" horiz-adv-x="806" 
d="M903 1583l-252 -426h-63l125 426h190zM307 152q0 -66 55 -66q66 0 146 66t143 163l56 -36q-126 -207 -280 -276q-54 -24 -112 -23q-147 0 -147 149q0 51 12 129l123 725h-149l12 55q92 41 162 109t141 153h35l-41 -229h282l-16 -88h-283l-124 -713q-15 -88 -15 -118z" />
    <glyph glyph-name="Tbar" unicode="&#x166;" horiz-adv-x="1523" 
d="M670 1511q-193 0 -280 -67q-48 -37 -89 -97t-96 -153h-51l84 403h1343l-14 -403h-43q-33 92 -58 154t-59 97q-35 36 -87 51t-140 15h-195l-86 -698h354l-10 -96h-356l-53 -449q-7 -58 -7 -86q0 -62 55 -86t177 -28l-8 -68h-668l8 68q128 5 175 27q86 42 98 143l57 479
h-346l12 96h346l86 698h-149z" />
    <glyph glyph-name="tbar" unicode="&#x167;" horiz-adv-x="806" 
d="M307 152q0 -66 55 -66q66 0 146 66t143 163l56 -36q-126 -207 -280 -276q-54 -24 -112 -23q-147 0 -147 149q0 51 12 129l66 389h-146l17 88h143l43 248h-149l12 55q92 41 162 109t141 153h35l-41 -229h282l-16 -88h-283l-43 -248h289l-16 -88h-289l-65 -377
q-15 -88 -15 -118z" />
    <glyph glyph-name="Utilde" unicode="&#x168;" horiz-adv-x="1753" 
d="M1237 1735q-65 0 -146 65q-32 25 -64 45q-32 21 -77 21t-81 -26t-78 -91l-72 12q113 226 287 228q46 -1 80 -21t66 -45t64 -45t76 -20q45 0 81 26t79 90l72 -12q-113 -227 -287 -227zM391 1411q0 93 -135 112q-43 5 -96 7l8 67h668l-9 -67q-129 -5 -175 -28t-68 -56
t-29 -86l-90 -717q-12 -102 -12 -181q-1 -79 31 -151q61 -139 223 -190q78 -25 170 -25q247 0 373 134t155 376l86 723q6 34 6 75q0 40 -16 64q-29 43 -119 55q-43 5 -96 7l8 67h608l-8 -67q-130 -5 -176 -28q-47 -23 -69 -56t-27 -86l-97 -795q-32 -277 -204 -432
t-433 -153q-415 0 -537 273q-42 93 -42 220q0 57 14 178l82 678q6 49 6 82z" />
    <glyph glyph-name="utilde" unicode="&#x169;" horiz-adv-x="1337" 
d="M831 112q0 62 37 214t109 426h-8q-139 -343 -231 -483q-93 -140 -183 -215t-197 -74q-72 0 -110 45t-39 144q0 99 76 391q76 293 75 364q0 43 -44 43t-103 -52q-58 -52 -113 -135l-57 31q73 145 162 212t166 68q79 1 113 -35t34 -103t-80 -372q-78 -316 -79 -404
q-1 -89 69 -89q122 0 286 291t290 692h147q-160 -752 -160 -915q0 -57 51 -58q68 0 193 168l47 -33q-131 -255 -307 -253q-68 0 -106 36q-38 34 -38 96zM626 1380q-44 0 -80 -26t-79 -90l-72 12q114 227 287 227q65 0 146 -65q32 -25 64 -45q32 -21 77 -21t81 26t78 91
l72 -12q-113 -226 -287 -228q-45 1 -79 21t-67 45q-32 25 -64 45q-33 20 -77 20z" />
    <glyph glyph-name="Umacron" unicode="&#x16a;" horiz-adv-x="1753" 
d="M829 1909h541l-12 -107h-541zM391 1411q0 93 -135 112q-43 5 -96 7l8 67h668l-9 -67q-129 -5 -175 -28t-68 -56t-29 -86l-90 -717q-12 -102 -12 -181q-1 -79 31 -151q61 -139 223 -190q78 -25 170 -25q247 0 373 134t155 376l86 723q6 34 6 75q0 40 -16 64
q-29 43 -119 55q-43 5 -96 7l8 67h608l-8 -67q-130 -5 -176 -28q-47 -23 -69 -56t-27 -86l-97 -795q-32 -277 -204 -432t-433 -153q-415 0 -537 273q-42 93 -42 220q0 57 14 178l82 678q6 49 6 82z" />
    <glyph glyph-name="umacron" unicode="&#x16b;" horiz-adv-x="1337" 
d="M831 112q0 62 37 214t109 426h-8q-139 -343 -231 -483q-93 -140 -183 -215t-197 -74q-72 0 -110 45t-39 144q0 99 76 391q76 293 75 364q0 43 -44 43t-103 -52q-58 -52 -113 -135l-57 31q73 145 162 212t166 68q79 1 113 -35t34 -103t-80 -372q-78 -316 -79 -404
q-1 -89 69 -89q122 0 286 291t290 692h147q-160 -752 -160 -915q0 -57 51 -58q68 0 193 168l47 -33q-131 -255 -307 -253q-68 0 -106 36q-38 34 -38 96zM539 1442h540l-12 -107h-541z" />
    <glyph glyph-name="Ubreve" unicode="&#x16c;" horiz-adv-x="1753" 
d="M1493 2114q-52 -408 -390 -408q-331 0 -331 315q0 43 6 93h76q0 -291 246 -291q175 0 266 151q33 55 51 140h76zM391 1411q0 93 -135 112q-43 5 -96 7l8 67h668l-9 -67q-129 -5 -175 -28t-68 -56t-29 -86l-90 -717q-12 -102 -12 -181q-1 -79 31 -151q61 -139 223 -190
q78 -25 170 -25q247 0 373 134t155 376l86 723q6 34 6 75q0 40 -16 64q-29 43 -119 55q-43 5 -96 7l8 67h608l-8 -67q-130 -5 -176 -28q-47 -23 -69 -56t-27 -86l-97 -795q-32 -277 -204 -432t-433 -153q-415 0 -537 273q-42 93 -42 220q0 57 14 178l82 678q6 49 6 82z" />
    <glyph glyph-name="ubreve" unicode="&#x16d;" horiz-adv-x="1337" 
d="M831 112q0 62 37 214t109 426h-8q-139 -343 -231 -483q-93 -140 -183 -215t-197 -74q-72 0 -110 45t-39 144q0 99 76 391q76 293 75 364q0 43 -44 43t-103 -52q-58 -52 -113 -135l-57 31q73 145 162 212t166 68q79 1 113 -35t34 -103t-80 -372q-78 -316 -79 -404
q-1 -89 69 -89q122 0 286 291t290 692h147q-160 -752 -160 -915q0 -57 51 -58q68 0 193 168l47 -33q-131 -255 -307 -253q-68 0 -106 36q-38 34 -38 96zM545 1638q0 -290 246 -290q175 0 266 151q33 55 51 139h76q-26 -195 -122 -301t-268 -106q-331 0 -331 315q0 43 6 92
h76z" />
    <glyph glyph-name="Uring" unicode="&#x16e;" horiz-adv-x="1753" 
d="M391 1411q0 93 -135 112q-43 5 -96 7l8 67h668l-9 -67q-129 -5 -175 -28t-68 -56t-29 -86l-90 -717q-12 -102 -12 -181q-1 -79 31 -151q61 -139 223 -190q78 -25 170 -25q247 0 373 134t155 376l86 723q6 34 6 75q0 40 -16 64q-29 43 -119 55q-43 5 -96 7l8 67h608
l-8 -67q-130 -5 -176 -28q-47 -23 -69 -56t-27 -86l-97 -795q-32 -277 -204 -432t-433 -153q-415 0 -537 273q-42 93 -42 220q0 57 14 178l82 678q6 49 6 82zM1077 1743q76 0 111 54t35 126q0 123 -111 123q-76 0 -111 -54t-34 -126q0 -123 110 -123zM1114 2126
q104 0 156 -58t53 -156q0 -100 -72 -174t-176 -75q-104 0 -156 57q-53 57 -53 157q0 101 72 175t176 74z" />
    <glyph glyph-name="uring" unicode="&#x16f;" horiz-adv-x="1337" 
d="M676 1391q0 -123 110 -123q76 0 111 54t35 126q0 123 -111 123q-77 0 -111 -54t-34 -126zM824 1651q104 1 156 -57t52 -158t-72 -174t-176 -74t-156 57t-52 157t71 174q73 75 177 75zM831 112q0 62 37 214t109 426h-8q-139 -343 -231 -483q-93 -140 -183 -215t-197 -74
q-72 0 -110 45t-39 144q0 99 76 391q76 293 75 364q0 43 -44 43t-103 -52q-58 -52 -113 -135l-57 31q73 145 162 212t166 68q79 1 113 -35t34 -103t-80 -372q-78 -316 -79 -404q-1 -89 69 -89q122 0 286 291t290 692h147q-160 -752 -160 -915q0 -57 51 -58q68 0 193 168
l47 -33q-131 -255 -307 -253q-68 0 -106 36q-38 34 -38 96z" />
    <glyph glyph-name="Uhungarumlaut" unicode="&#x170;" horiz-adv-x="1753" 
d="M391 1411q0 93 -135 112q-43 5 -96 7l8 67h668l-9 -67q-129 -5 -175 -28t-68 -56t-29 -86l-90 -717q-12 -102 -12 -181q-1 -79 31 -151q61 -139 223 -190q78 -25 170 -25q247 0 373 134t155 376l86 723q6 34 6 75q0 40 -16 64q-29 43 -119 55q-43 5 -96 7l8 67h608
l-8 -67q-130 -5 -176 -28q-47 -23 -69 -56t-27 -86l-97 -795q-32 -277 -204 -432t-433 -153q-415 0 -537 273q-42 93 -42 220q0 57 14 178l82 678q6 49 6 82zM1245 2109l-297 -426h-78l191 426h184zM1561 2109l-297 -426h-78l190 426h185z" />
    <glyph glyph-name="uhungarumlaut" unicode="&#x171;" horiz-adv-x="1337" 
d="M831 112q0 62 37 214t109 426h-8q-139 -343 -231 -483q-93 -140 -183 -215t-197 -74q-72 0 -110 45t-39 144q0 99 76 391q76 293 75 364q0 43 -44 43t-103 -52q-58 -52 -113 -135l-57 31q73 145 162 212t166 68q79 1 113 -35t34 -103t-80 -372q-78 -316 -79 -404
q-1 -89 69 -89q122 0 286 291t290 692h147q-160 -752 -160 -915q0 -57 51 -58q68 0 193 168l47 -33q-131 -255 -307 -253q-68 0 -106 36q-38 34 -38 96zM920 1638l-297 -426h-78l190 426h185zM1235 1638l-297 -426h-78l191 426h184z" />
    <glyph glyph-name="Uogonek" unicode="&#x172;" horiz-adv-x="1753" 
d="M729 -285q0 -63 41 -97t111 -34t143 31l12 -51q-82 -76 -220 -76t-194 109q-19 37 -20 86q0 106 60 177t161 122q-249 8 -391 130q-143 122 -143 361q0 57 14 178l82 678q6 50 6 82q0 93 -135 112q-43 5 -96 7l8 67h668l-9 -67q-129 -5 -175 -28t-68 -56t-29 -86
l-90 -717q-12 -102 -12 -181q-1 -79 31 -151q61 -139 223 -190q78 -25 170 -25q247 0 373 134t155 376l86 723q6 34 6 75q0 40 -16 64q-29 43 -119 55q-43 5 -96 7l8 67h608l-8 -67q-130 -5 -176 -28q-47 -23 -69 -56t-27 -86l-97 -795q-29 -238 -157 -384t-332 -187
q-287 -90 -287 -279z" />
    <glyph glyph-name="uogonek" unicode="&#x173;" horiz-adv-x="1337" 
d="M991 170q0 -51 38 -51t88 41t118 106l41 -41q-92 -98 -172 -169t-140 -128t-94 -109t-34 -112q0 -123 153 -123q69 0 139 31l13 -51q-82 -76 -213 -76q-88 0 -152 50t-65 145q0 138 147 251q39 31 74 56q-100 18 -101 129q0 55 37 207t109 426h-8q-139 -343 -231 -483
q-93 -140 -183 -215t-197 -74q-72 0 -110 45t-39 144q0 99 76 391q76 293 75 364q0 43 -44 43t-103 -52q-58 -52 -113 -135l-57 31q73 145 162 212t166 68q79 1 113 -35t34 -103t-80 -372q-78 -316 -79 -404q-1 -89 69 -89q122 0 286 291t290 692h147q-160 -752 -160 -901z
" />
    <glyph glyph-name="Wcircumflex" unicode="&#x174;" horiz-adv-x="2293" 
d="M1286 1438q0 -47 12 -90l271 -1088l497 1038q46 95 47 128t-14 58q-25 41 -205 46l9 67h512l-9 -67q-57 -6 -94 -22t-59 -64l-723 -1469h-39l-277 1074l-528 -1074h-39l-340 1469q-20 84 -133 86l8 67h553l-8 -67q-127 -4 -185 -24t-58 -61q0 -40 12 -97l245 -1069
l441 897l-68 268q-12 45 -43 64t-90 22l8 67h549l-8 -67q-128 -4 -186 -24t-58 -68zM1614 1683h-70l-248 281l-333 -281h-70l356 426h115z" />
    <glyph glyph-name="wcircumflex" unicode="&#x175;" horiz-adv-x="1677" 
d="M1288 1212h-69l-248 281l-334 -281h-70l357 426h114zM1473 823q-1 76 -49 111t-126 35v47q40 74 139 75t139 -55t40 -142q0 -170 -156 -426t-364 -488h-80q-55 576 -101 737h-8q-91 -308 -407 -737h-84q-81 710 -108 808q-28 98 -44 134t-61 36t-84 -43t-84 -114l-55 30
q107 214 216 249q152 49 211 -97q71 -200 110 -654q9 -105 13 -188q124 166 196 317q134 276 134 408q0 52 -26 108t-54 85q69 52 135 25q65 -23 99 -162q52 -223 85 -463t38 -324q221 260 307 523q29 89 29 165z" />
    <glyph glyph-name="Ycircumflex" unicode="&#x176;" horiz-adv-x="1556" 
d="M846 219v-24q0 -75 55 -99t174 -28l-8 -68h-668l9 68q127 4 174 27q86 42 98 143l51 428l-424 780q-23 43 -51 61q-29 18 -82 23l8 67h574l-8 -67q-132 0 -182 -22t-50 -67t27 -91l311 -588l457 577q67 86 41 138q-26 53 -199 53l8 67h516l-8 -67q-53 -6 -85 -22t-68 -62
l-619 -774l-47 -404q-4 -33 -4 -49zM1348 1683h-70l-248 281l-334 -281h-69l356 426h115z" />
    <glyph glyph-name="ycircumflex" unicode="&#x177;" horiz-adv-x="1136" 
d="M920 680q0 158 -56 224q-56 67 -159 67v45q46 76 147 76q100 0 146 -71t46 -165q0 -281 -145 -584q-55 -115 -149 -266q-266 -427 -543 -498q-83 -20 -151 -20q-196 0 -261 103q-20 34 -20 76t21 73q22 31 57 41h55q25 -189 205 -191q117 0 209 50t184 159
q-20 230 -84 548q-63 318 -117 482q-15 59 -35 95t-65 34q-45 0 -84 -43t-84 -114l-57 30q106 213 218 249q153 50 216 -95q61 -153 125 -485q63 -332 79 -563q135 217 219 401q83 184 83 342zM973 1212h-70l-248 281l-333 -281h-70l356 426h115z" />
    <glyph glyph-name="Ydieresis" unicode="&#x178;" horiz-adv-x="1556" 
d="M846 219v-24q0 -75 55 -99t174 -28l-8 -68h-668l9 68q127 4 174 27q86 42 98 143l51 428l-424 780q-23 43 -51 61q-29 18 -82 23l8 67h574l-8 -67q-132 0 -182 -22t-50 -67t27 -91l311 -588l457 577q67 86 41 138q-26 53 -199 53l8 67h516l-8 -67q-53 -6 -85 -22t-68 -62
l-619 -774l-47 -404q-4 -33 -4 -49zM784 1747q-51 0 -84 32q-32 32 -32 81t34 88t86 39t84 -32t33 -81q0 -49 -35 -88t-86 -39zM1194 1747q-51 0 -84 32t-33 81t35 88t86 39t84 -32t33 -81t-35 -88t-86 -39z" />
    <glyph glyph-name="Zacute" unicode="&#x179;" horiz-adv-x="1476" 
d="M872 90q76 0 125 8t95 37t96 86q51 57 131 156h45l-117 -377h-1198l4 41l1184 1466h-551q-140 0 -218 -56t-157 -206h-45l51 352h1166l-4 -43l-1188 -1464h581zM1352 2109l-449 -426h-67l297 426h219z" />
    <glyph glyph-name="zacute" unicode="&#x17a;" horiz-adv-x="1118" 
d="M1110 1638l-448 -426h-68l297 426h219zM25 57q0 77 43 141t155 146l672 494q-93 3 -211 40q-120 38 -184 54t-127 16q-105 0 -105 -84q0 -58 62 -88l-25 -57q-47 18 -82 56t-35 99q0 104 66 160t182 58q68 0 126 -18t120 -41q169 -66 297 -77v113q12 23 39 23
q61 0 61 -77t-46 -138t-154 -144l-695 -510q67 23 136 23t123 -20q53 -20 105 -46q134 -65 226 -65q136 0 135 94q0 33 -17 52t-46 42l28 49q45 -24 78 -60t33 -117q1 -81 -65 -138t-172 -57t-176 24q-71 24 -132 52q-61 30 -118 54q-56 24 -114 24t-83 -19v-113
q-13 -22 -41 -22q-59 0 -59 77z" />
    <glyph glyph-name="Zdotaccent" unicode="&#x17b;" horiz-adv-x="1476" 
d="M907 1743q-51 0 -84 32q-33 33 -33 81t35 88q35 38 86 38t84 -32t33 -80q0 -49 -35 -88t-86 -39zM872 90q76 0 125 8t95 37t96 86q51 57 131 156h45l-117 -377h-1198l4 41l1184 1466h-551q-140 0 -218 -56t-157 -206h-45l51 352h1166l-4 -43l-1188 -1464h581z" />
    <glyph glyph-name="zdotaccent" unicode="&#x17c;" horiz-adv-x="1118" 
d="M25 57q0 77 43 141t155 146l672 494q-93 3 -211 40q-120 38 -184 54t-127 16q-105 0 -105 -84q0 -58 62 -88l-25 -57q-47 18 -82 56t-35 99q0 104 66 160t182 58q68 0 126 -18t120 -41q169 -66 297 -77v113q12 23 39 23q61 0 61 -77t-46 -138t-154 -144l-695 -510
q67 23 136 23t123 -20q53 -20 105 -46q134 -65 226 -65q136 0 135 94q0 33 -17 52t-46 42l28 49q45 -24 78 -60t33 -117q1 -81 -65 -138t-172 -57t-176 24q-71 24 -132 52q-61 30 -118 54q-56 24 -114 24t-83 -19v-113q-13 -22 -41 -22q-59 0 -59 77zM700 1286q-51 0 -84 32
q-32 32 -32 81t34 88t86 39t84 -32t33 -81q0 -49 -35 -88t-86 -39z" />
    <glyph glyph-name="Zcaron" unicode="&#x17d;" horiz-adv-x="1476" 
d="M586 2109h69l248 -280l334 280h70l-357 -426h-114zM872 90q76 0 125 8t95 37t96 86q51 57 131 156h45l-117 -377h-1198l4 41l1184 1466h-551q-140 0 -218 -56t-157 -206h-45l51 352h1166l-4 -43l-1188 -1464h581z" />
    <glyph glyph-name="zcaron" unicode="&#x17e;" horiz-adv-x="1118" 
d="M371 1638h69l248 -280l334 280h70l-357 -426h-114zM25 57q0 77 43 141t155 146l672 494q-93 3 -211 40q-120 38 -184 54t-127 16q-105 0 -105 -84q0 -58 62 -88l-25 -57q-47 18 -82 56t-35 99q0 104 66 160t182 58q68 0 126 -18t120 -41q169 -66 297 -77v113q12 23 39 23
q61 0 61 -77t-46 -138t-154 -144l-695 -510q67 23 136 23t123 -20q53 -20 105 -46q134 -65 226 -65q136 0 135 94q0 33 -17 52t-46 42l28 49q45 -24 78 -60t33 -117q1 -81 -65 -138t-172 -57t-176 24q-71 24 -132 52q-61 30 -118 54q-56 24 -114 24t-83 -19v-113
q-13 -22 -41 -22q-59 0 -59 77z" />
    <glyph glyph-name="florin" unicode="&#x192;" horiz-adv-x="1067" 
d="M969 1422q0 46 -27 75t-80 29q-94 0 -148 -78t-93 -256l-68 -305h315l-12 -78h-321l-279 -1251h-158l279 1251h-203l10 78h211l64 287q53 231 161 337t283 107q104 0 171 -44t67 -124t-60 -113h-120q8 39 8 85z" />
    <glyph glyph-name="Scommaaccent" unicode="&#x218;" horiz-adv-x="1261" 
d="M377 -229q0 49 33 82q32 33 96 33t96 -45q32 -44 33 -96t-19 -96q-41 -93 -149 -136q-55 -23 -129 -25l12 70q76 8 115 32t65 74h-63q-90 23 -90 107zM739 1618q265 0 441 -129l-41 -326h-47q-25 177 -119 269q-95 92 -245 92t-230 -76t-80 -205q0 -160 160 -261
q52 -34 136 -80q209 -115 293 -208q115 -125 113 -286q0 -204 -146 -316t-382 -112q-154 0 -281 44t-207 113l35 375h51q51 -343 267 -416q68 -23 149 -22q353 0 355 305q0 129 -97 224q-48 46 -116 88t-154 90q-172 96 -248 193t-78 238q0 183 129 294q128 112 342 112z
" />
    <glyph glyph-name="scommaaccent" unicode="&#x219;" horiz-adv-x="839" 
d="M236 -229q0 49 32 82t96 33t97 -45q33 -44 33 -96t-20 -96q-41 -93 -148 -136q-55 -23 -129 -25l12 70q76 8 115 32t65 74h-63q-90 23 -90 107zM31 177q0 83 75 108h46q16 -102 72 -165t150 -63t133 41q40 42 40 104q0 99 -93 215q-40 48 -118 126q-150 149 -150 275
t86 200t228 74t211 -52q68 -52 67 -131q0 -33 -17 -59t-46 -37h-53q-10 80 -64 136q-54 57 -132 57q-76 0 -112 -36t-37 -89q0 -53 27 -103q43 -79 154 -194q180 -188 180 -321q0 -134 -95 -209q-95 -74 -245 -74t-229 57q-78 57 -78 140z" />
    <glyph glyph-name="dotlessj" unicode="&#x237;" horiz-adv-x="636" 
d="M-82 -240q0 -194 87 -194q46 0 77 24q62 47 107 237q24 97 47 245l112 719q12 78 12 127t-38 49q-97 0 -220 -187l-57 31q139 279 353 281q54 0 86 -36q34 -36 34 -98t-10 -133l-80 -514q-69 -454 -168 -639q-99 -184 -270 -184q-109 0 -162 47t-53 103q0 92 75 122h68z
" />
    <glyph glyph-name="circumflex" unicode="&#x2c6;" horiz-adv-x="1228" 
d="M975 1212h-70l-248 281l-333 -281h-70l356 426h115z" />
    <glyph glyph-name="caron" unicode="&#x2c7;" horiz-adv-x="1228" 
d="M254 1638h70l247 -280l334 280h70l-357 -426h-114z" />
    <glyph glyph-name="breve" unicode="&#x2d8;" horiz-adv-x="1228" 
d="M336 1638q0 -290 246 -290q175 0 266 151q33 55 51 139h76q-25 -195 -121 -301t-269 -106q-331 0 -331 315q0 43 6 92h76z" />
    <glyph glyph-name="dotaccent" unicode="&#x2d9;" horiz-adv-x="1228" 
d="M610 1286q-51 0 -84 32q-32 32 -32 81t34 88q35 39 86 39t84 -32t33 -81t-35 -88t-86 -39z" />
    <glyph glyph-name="ring" unicode="&#x2da;" horiz-adv-x="1228" 
d="M487 1391q0 -123 111 -123q76 0 111 54q34 54 34 126q0 123 -110 123q-76 0 -111 -54t-35 -126zM635 1651q105 1 157 -57t52 -158t-72 -174t-176 -74t-157 57q-52 57 -52 157t72 174q72 75 176 75z" />
    <glyph glyph-name="ogonek" unicode="&#x2db;" horiz-adv-x="1228" 
d="M524 -281q0 -67 41 -101t112 -34t142 31l12 -51q-82 -76 -213 -76q-89 0 -154 50t-66 136q-1 85 31 141t86 100q93 76 290 140l26 -55q-307 -93 -307 -281z" />
    <glyph glyph-name="tilde" unicode="&#x2dc;" horiz-adv-x="1228" 
d="M442 1380q-44 0 -81 -25q-36 -26 -78 -91l-72 12q114 227 287 227q65 0 146 -65q32 -25 64 -45q32 -21 76 -21t81 26q36 26 79 91l72 -12q-113 -226 -287 -228q-45 1 -80 21t-67 45t-63 45q-33 20 -77 20z" />
    <glyph glyph-name="hungarumlaut" unicode="&#x2dd;" horiz-adv-x="1228" 
d="M645 1638l-297 -426h-78l191 426h184zM961 1638l-297 -426h-78l190 426h185z" />
    <glyph glyph-name="uni0300" unicode="&#x300;" horiz-adv-x="1228" 
d="M664 2109l163 -426h-71l-330 426h238z" />
    <glyph glyph-name="uni0301" unicode="&#x301;" horiz-adv-x="1228" 
d="M881 2109l-463 -426h-68l256 426h275z" />
    <glyph glyph-name="uni0302" unicode="&#x302;" horiz-adv-x="1228" 
d="M979 1683h-74l-256 271l-321 -271h-78l348 426h139z" />
    <glyph glyph-name="uni0303" unicode="&#x303;" horiz-adv-x="1228" 
d="M785 1898q44 0 76 28t77 95l86 -10q-120 -241 -291 -239q-70 0 -155 64q-33 24 -63 44q-29 20 -73 20t-76 -28q-32 -29 -77 -96l-86 10q120 241 291 239q74 0 155 -63q33 -24 63 -44t73 -20z" />
    <glyph glyph-name="uni0304" unicode="&#x304;" horiz-adv-x="1228" 
d="M348 1974h549l-16 -112h-549z" />
    <glyph glyph-name="uni0305" unicode="&#x305;" horiz-adv-x="1228" 
d="M334 2109q0 -290 246 -290q175 0 266 151q33 55 51 139h84q-25 -195 -124 -299t-292 -104q-319 0 -319 311q0 43 6 92h82z" />
    <glyph glyph-name="uni0306" unicode="&#x306;" horiz-adv-x="1228" 
d="M893 1683q0 291 -246 291q-175 0 -266 -151q-33 -55 -51 -140h-84q25 195 124 299t292 105q319 0 319 -311q0 -43 -6 -93h-82z" />
    <glyph glyph-name="uni0307" unicode="&#x307;" horiz-adv-x="1228" 
d="M608 1769q-53 0 -90 35t-37 88t42 91t95 38t91 -34q37 -35 37 -87t-43 -92q-42 -40 -95 -39z" />
    <glyph glyph-name="uni0308" unicode="&#x308;" horiz-adv-x="1228" 
d="M410 1769q-53 0 -91 35q-37 35 -37 88t43 91q42 38 95 38q53 -1 90 -35t37 -86t-42 -92t-95 -39zM807 1769q-53 0 -90 35t-37 88t42 91t95 38q53 -1 90 -35t37 -86t-42 -92t-95 -39z" />
    <glyph glyph-name="uni0309" unicode="&#x309;" horiz-adv-x="1228" 
d="M631 2046q-76 0 -112 -54t-36 -116q0 -130 115 -129q76 0 112 54t35 124q0 121 -114 121zM586 1663q-94 0 -149 57q-54 57 -54 128q0 196 157 261q48 21 122 21t130 -57t56 -129q0 -192 -157 -261q-48 -20 -105 -20z" />
    <glyph glyph-name="uni030A" unicode="&#x30a;" horiz-adv-x="1228" 
d="M647 2109l-297 -426h-86l191 426h192zM963 2109l-297 -426h-86l190 426h193z" />
    <glyph glyph-name="uni030B" unicode="&#x30b;" horiz-adv-x="1228" 
d="M827 2109l82 -426h-78l-196 426h192zM512 2109l84 -426h-80l-194 426h190z" />
    <glyph glyph-name="uni030C" unicode="&#x30c;" horiz-adv-x="1228" 
d="M250 2109h74l256 -270l321 270h78l-348 -426h-139z" />
    <glyph glyph-name="uni0312" unicode="&#x312;" horiz-adv-x="1228" 
d="M725 1339q0 -49 -33 -82q-32 -33 -96 -33t-96 45q-32 44 -33 96q0 105 79 179t218 78l-12 -70q-76 -8 -115 -32t-66 -74h64q90 -23 90 -107z" />
    <glyph glyph-name="Wgrave" unicode="&#x1e80;" horiz-adv-x="2293" 
d="M1286 1438q0 -47 12 -90l271 -1088l497 1038q46 95 47 128t-14 58q-25 41 -205 46l9 67h512l-9 -67q-57 -6 -94 -22t-59 -64l-723 -1469h-39l-277 1074l-528 -1074h-39l-340 1469q-20 84 -133 86l8 67h553l-8 -67q-127 -4 -185 -24t-58 -61q0 -40 12 -97l245 -1069
l441 897l-68 268q-12 45 -43 64t-90 22l8 67h549l-8 -67q-128 -4 -186 -24t-58 -68zM1077 2109l172 -426h-67l-305 426h200z" />
    <glyph glyph-name="wgrave" unicode="&#x1e81;" horiz-adv-x="1677" 
d="M1473 823q-1 76 -49 111t-126 35v47q40 74 139 75t139 -55t40 -142q0 -170 -156 -426t-364 -488h-80q-55 576 -101 737h-8q-91 -308 -407 -737h-84q-81 710 -108 808q-28 98 -44 134t-61 36t-84 -43t-84 -114l-55 30q107 214 216 249q152 49 211 -97q71 -200 110 -654
q9 -105 13 -188q124 166 196 317q134 276 134 408q0 52 -26 108t-54 85q69 52 135 25q65 -23 99 -162q52 -223 85 -463t38 -324q221 260 307 523q29 89 29 165zM772 1638l172 -426h-67l-306 426h201z" />
    <glyph glyph-name="Wacute" unicode="&#x1e82;" horiz-adv-x="2293" 
d="M1286 1438q0 -47 12 -90l271 -1088l497 1038q46 95 47 128t-14 58q-25 41 -205 46l9 67h512l-9 -67q-57 -6 -94 -22t-59 -64l-723 -1469h-39l-277 1074l-528 -1074h-39l-340 1469q-20 84 -133 86l8 67h553l-8 -67q-127 -4 -185 -24t-58 -61q0 -40 12 -97l245 -1069
l441 897l-68 268q-12 45 -43 64t-90 22l8 67h549l-8 -67q-128 -4 -186 -24t-58 -68zM1751 2109l-448 -426h-68l297 426h219z" />
    <glyph glyph-name="wacute" unicode="&#x1e83;" horiz-adv-x="1677" 
d="M1473 823q-1 76 -49 111t-126 35v47q40 74 139 75t139 -55t40 -142q0 -170 -156 -426t-364 -488h-80q-55 576 -101 737h-8q-91 -308 -407 -737h-84q-81 710 -108 808q-28 98 -44 134t-61 36t-84 -43t-84 -114l-55 30q107 214 216 249q152 49 211 -97q71 -200 110 -654
q9 -105 13 -188q124 166 196 317q134 276 134 408q0 52 -26 108t-54 85q69 52 135 25q65 -23 99 -162q52 -223 85 -463t38 -324q221 260 307 523q29 89 29 165zM1401 1638l-449 -426h-67l297 426h219z" />
    <glyph glyph-name="Wdieresis" unicode="&#x1e84;" horiz-adv-x="2293" 
d="M1286 1438q0 -47 12 -90l271 -1088l497 1038q46 95 47 128t-14 58q-25 41 -205 46l9 67h512l-9 -67q-57 -6 -94 -22t-59 -64l-723 -1469h-39l-277 1074l-528 -1074h-39l-340 1469q-20 84 -133 86l8 67h553l-8 -67q-127 -4 -185 -24t-58 -61q0 -40 12 -97l245 -1069
l441 897l-68 268q-12 45 -43 64t-90 22l8 67h549l-8 -67q-128 -4 -186 -24t-58 -68zM1069 1747q-51 0 -84 32t-33 81t35 88t86 39t84 -32t33 -81t-35 -88t-86 -39zM1479 1747q-51 0 -84 32t-33 81t35 88t86 39t84 -32t33 -81t-36 -88q-34 -39 -85 -39z" />
    <glyph glyph-name="wdieresis" unicode="&#x1e85;" horiz-adv-x="1677" 
d="M1473 823q-1 76 -49 111t-126 35v47q40 74 139 75t139 -55t40 -142q0 -170 -156 -426t-364 -488h-80q-55 576 -101 737h-8q-91 -308 -407 -737h-84q-81 710 -108 808q-28 98 -44 134t-61 36t-84 -43t-84 -114l-55 30q107 214 216 249q152 49 211 -97q71 -200 110 -654
q9 -105 13 -188q124 166 196 317q134 276 134 408q0 52 -26 108t-54 85q69 52 135 25q65 -23 99 -162q52 -223 85 -463t38 -324q221 260 307 523q29 89 29 165zM768 1286q-51 0 -84 32t-33 81t35 88t86 39t84 -32t33 -81t-35 -88t-86 -39zM1178 1286q-51 0 -84 32t-33 81
t35 88t86 39t84 -32q32 -32 32 -81t-34 -88t-86 -39z" />
    <glyph glyph-name="Eszett" unicode="&#x1e9e;" horiz-adv-x="1781" 
d="M1128 1499q-236 0 -382 -122t-177 -363l-90 -746q-6 -50 -6 -82q0 -95 135 -111q43 -5 97 -7l-9 -68h-667l8 68q127 4 174 27q88 43 98 143l101 813q35 281 226 424t509 143q151 0 271 -39t188 -98l-5 -43l-407 -477l90 -52q94 -55 172 -105q246 -158 246 -396
q0 -202 -132 -315t-335 -113q-104 0 -185 33q-148 60 -221 124l35 375h51q50 -442 330 -438q121 0 210 85t88 214t-97 225q-67 67 -270 184l-62 35q-41 20 -79 51q-39 31 -52 45l6 41l424 492q-127 53 -283 53z" />
    <glyph glyph-name="enspace" unicode="&#x2002;" horiz-adv-x="1024" 
 />
    <glyph glyph-name="emspace" unicode="&#x2003;" horiz-adv-x="2048" 
 />
    <glyph glyph-name="threeperemspace" unicode="&#x2004;" horiz-adv-x="681" 
 />
    <glyph glyph-name="fourperemspace" unicode="&#x2005;" horiz-adv-x="512" 
 />
    <glyph glyph-name="sixperemspace" unicode="&#x2006;" horiz-adv-x="342" 
 />
    <glyph glyph-name="figurespace" unicode="&#x2007;" 
 />
    <glyph glyph-name="punctuationspace" unicode="&#x2008;" horiz-adv-x="573" 
 />
    <glyph glyph-name="thinspace" unicode="&#x2009;" horiz-adv-x="409" 
 />
    <glyph glyph-name="hairspace" unicode="&#x200a;" horiz-adv-x="204" 
 />
    <glyph glyph-name="zerowidthspace" unicode="&#x200b;" horiz-adv-x="0" 
 />
    <glyph glyph-name="figuredash" unicode="&#x2012;" 
d="M127 633l16 119h1229l-16 -119h-1229z" />
    <glyph glyph-name="endash" unicode="&#x2013;" horiz-adv-x="1024" 
d="M127 633l16 119h820l-17 -119h-819z" />
    <glyph glyph-name="emdash" unicode="&#x2014;" horiz-adv-x="2048" 
d="M127 633l16 119h1844l-17 -119h-1843z" />
    <glyph glyph-name="uni2015" unicode="&#x2015;" horiz-adv-x="2867" 
d="M127 633l16 119h2663l-17 -119h-2662z" />
    <glyph glyph-name="doublebar" unicode="&#x2016;" horiz-adv-x="776" 
d="M229 -248h-106l237 1948h107zM479 -248h-106l237 1948h107z" />
    <glyph glyph-name="quoteleft" unicode="&#x2018;" horiz-adv-x="653" 
d="M543 1238q0 -52 -37 -85t-86 -33q-118 0 -152 116q-8 32 -8 84t31 114q31 61 85 109q112 100 300 120l-14 -78q-123 -20 -206 -86q-83 -68 -81 -141h76q92 -22 92 -120z" />
    <glyph glyph-name="quoteright" unicode="&#x2019;" horiz-adv-x="653" 
d="M493 1651q114 0 151 -117q9 -32 9 -84q-1 -52 -31 -113t-84 -109q-117 -104 -300 -120l14 78q116 15 202 84q85 68 85 143h-76q-93 23 -93 120q0 52 38 85q37 33 85 33z" />
    <glyph glyph-name="quotesinglbase" unicode="&#x201a;" horiz-adv-x="653" 
d="M186 130q0 52 37 85t85 33q115 0 152 -117q9 -33 9 -84t-31 -113t-85 -109q-117 -104 -300 -120l15 78q115 15 202 84q86 69 84 143h-75q-93 23 -93 120z" />
    <glyph glyph-name="reversequoteleft" unicode="&#x201b;" horiz-adv-x="653" 
d="M373 1413q0 -77 84 -144t202 -83l15 -78q-183 16 -299 120q-117 104 -117 240q0 77 35 125q37 56 106 57q68 1 105 -32t37 -85q0 -97 -92 -120h-76z" />
    <glyph glyph-name="quotedblleft" unicode="&#x201c;" horiz-adv-x="1062" 
d="M543 1238q0 -52 -37 -85t-86 -33q-118 0 -152 116q-8 32 -8 84t32 114q32 61 87 109q114 100 297 120l-14 -78q-123 -20 -206 -86q-83 -68 -81 -141h76q92 -22 92 -120zM829 1120q-117 0 -151 116q-8 32 -8 84t30 114q65 127 216 188q77 31 169 41l-14 -78
q-123 -20 -206 -86q-81 -66 -81 -141h76q92 -23 92 -120q0 -52 -37 -85t-86 -33z" />
    <glyph glyph-name="quotedblright" unicode="&#x201d;" horiz-adv-x="1062" 
d="M780 1535q0 52 37 85t85 33q115 0 152 -117q9 -32 9 -84t-32 -113t-87 -109q-119 -104 -297 -120l15 78q115 15 202 84q86 69 84 143h-76q-92 22 -92 120zM493 1653q114 0 151 -117q9 -32 9 -84q-1 -52 -31 -113t-84 -109q-117 -104 -300 -120l14 78q116 15 202 84
q85 68 85 143h-76q-93 23 -93 120q0 52 38 85q37 33 85 33z" />
    <glyph glyph-name="quotedblbase" unicode="&#x201e;" horiz-adv-x="1062" 
d="M596 130q0 52 37 85t85 33t77 -16q80 -43 84 -166q0 -137 -119 -241t-297 -120l14 78q116 15 202 84q85 68 85 143h-76q-92 22 -92 120zM186 130q0 52 37 85t85 33q115 0 152 -117q9 -33 9 -84t-31 -113t-85 -109q-117 -104 -300 -120l15 78q115 15 202 84q86 69 84 143
h-75q-93 23 -93 120z" />
    <glyph glyph-name="reversequotedblleft" unicode="&#x201f;" horiz-adv-x="1062" 
d="M373 1415q0 -77 84 -144t202 -83l15 -78q-178 16 -297 120t-119 240q0 77 35 125q37 56 106 57q68 1 105 -32t37 -85q0 -97 -92 -120h-76zM950 1530q0 -93 -92 -115h-76q0 -75 84 -143t203 -84l14 -78q-183 16 -300 120t-116 235q1 185 161 187q48 0 85 -32
q37 -33 37 -90z" />
    <glyph glyph-name="dagger" unicode="&#x2020;" horiz-adv-x="1406" 
d="M913 1597l15 -47l-135 -526l532 70l49 -21l-18 -145l-53 -21l-517 70l17 -459l-193 -1030h-63l61 1030l127 459l-532 -70l-49 21l18 145l53 21l516 -70l-8 526l27 47h153z" />
    <glyph glyph-name="daggerdbl" unicode="&#x2021;" horiz-adv-x="1406" 
d="M735 977l-532 -70l-49 21l18 145l53 21l516 -70l-8 526l27 47h153l15 -47l-135 -526l532 70l49 -21l-18 -145l-53 -21l-517 70l23 -426l-127 -422l532 70l50 -21l-19 -145l-53 -21l-516 70l8 -526l-27 -48h-153l-15 48l136 526l-533 -70l-49 21l18 145l54 21l516 -70
l-17 422z" />
    <glyph glyph-name="bullet" unicode="&#x2022;" horiz-adv-x="788" 
d="M428 895q89 0 151 -62t62 -152t-63 -150t-151 -60q-89 -1 -150 61q-60 62 -60 150t61 151q61 62 150 62z" />
    <glyph glyph-name="ellipsis" unicode="&#x2026;" horiz-adv-x="2048" 
d="M199 109q0 53 38 92t91 39t92 -39t39 -92t-39 -91t-92 -38t-91 38t-38 91zM893 109q0 53 38 92t91 39t92 -39t39 -92t-39 -91t-92 -38t-91 38t-38 91zM1589 109q0 53 38 92t91 39t92 -39t39 -92t-39 -91t-92 -38t-91 38t-38 91z" />
    <glyph glyph-name="perthousand" unicode="&#x2030;" horiz-adv-x="2949" 
d="M510 0h-115l1237 1597h115zM611 1618q174 0 269 -94t95 -281t-101 -331t-276 -144q-174 0 -269 94t-95 282t101 331q102 143 276 143zM827 1290q0 240 -202 244q-129 0 -194 -151q-50 -116 -50 -287t104 -225q39 -19 105 -19q121 0 187 150q50 116 50 288zM1761 502
q0 243 -202 243q-128 0 -194 -150q-50 -116 -50 -288t104 -224q39 -19 105 -19t112 42q124 115 125 396zM1814 735q95 -94 95 -281t-102 -331q-102 -145 -289 -143q-160 0 -255 94t-95 281t101 330q102 144 276 144t269 -94zM2638 502q0 243 -203 243q-130 0 -193 -150
q-48 -112 -51 -288q0 -241 203 -244q129 0 194 151q50 116 50 288zM2690 735q95 -94 95 -281t-102 -332q-102 -144 -289 -142q-160 0 -255 94t-95 281t101 331q101 143 276 143q174 0 269 -94z" />
    <glyph glyph-name="minute" unicode="&#x2032;" horiz-adv-x="350" 
d="M412 1597l-156 -512h-66l62 512h160z" />
    <glyph glyph-name="second" unicode="&#x2033;" horiz-adv-x="647" 
d="M412 1597l-156 -512h-66l62 512h160zM711 1597l-156 -512h-66l62 512h160z" />
    <glyph glyph-name="tripleprime" unicode="&#x2034;" horiz-adv-x="993" 
d="M231 1073l11 524h194l-117 -524h-88zM543 1073l10 524h195l-117 -524h-88zM854 1073l10 524h195l-117 -524h-88z" />
    <glyph glyph-name="guilsinglleft" unicode="&#x2039;" horiz-adv-x="628" 
d="M133 571l393 390h76l-311 -400l213 -399h-76l-297 389z" />
    <glyph glyph-name="guilsinglright" unicode="&#x203a;" horiz-adv-x="628" 
d="M539 551l-396 -389h-75l311 399l-213 400h76l299 -390z" />
    <glyph glyph-name="interrobang" unicode="&#x203d;" horiz-adv-x="1081" 
d="M414 603q0 85 35 138t94 97l12 331l10 95h176l-10 -95l-80 -264l25 15q131 70 202 148q70 78 70 196q0 117 -73 190t-203 73q-258 2 -258 -222q0 -37 10 -82h-154q-38 44 -38 113q-1 69 34 122q104 158 411 160q192 1 309 -96q116 -96 116 -258t-93 -270t-240 -178
t-197 -141t-50 -190v-73h-51q-57 106 -57 191zM334 109q0 53 38 92t91 39t92 -39t39 -92t-39 -91t-92 -38t-91 38t-38 91z" />
    <glyph glyph-name="fraction" unicode="&#x2044;" horiz-adv-x="579" 
d="M942 1597h115l-1309 -1597h-115z" />
    <glyph glyph-name="uni2070" unicode="&#x2070;" horiz-adv-x="903" 
d="M478 662q143 0 222 207q60 151 60 362t-101 286q-35 25 -87 25q-98 -1 -170 -104q-84 -123 -107 -344q-6 -57 -6 -115q0 -140 46 -228q47 -89 143 -89zM486 594q-173 0 -262 118t-89 319t106 376q123 201 341 203q154 0 244 -119q89 -119 87 -297q0 -98 -25 -204
q-57 -230 -217 -338q-85 -58 -185 -58z" />
    <glyph glyph-name="uni2074" unicode="&#x2074;" horiz-adv-x="878" 
d="M578 936l55 461l-440 -461h385zM537 606l30 258h-489l4 54l643 679h70l-80 -661h162l-11 -72h-161l-31 -258h-137z" />
    <glyph glyph-name="uni2075" unicode="&#x2075;" horiz-adv-x="796" 
d="M244 820q0 -56 40 -110t135 -54t152 58q57 60 57 150q1 229 -249 266q-74 12 -158 13l109 454h291q53 -1 83 11t56 57h63l-84 -197h-374l-48 -217q191 0 318 -84t127 -238t-97 -246q-97 -91 -252 -90q-156 1 -242 73q-69 56 -71 143q0 43 23 72t53 41h80
q-12 -46 -12 -102z" />
    <glyph glyph-name="uni2076" unicode="&#x2076;" horiz-adv-x="821" 
d="M303 1141q89 90 223 90q134 1 212 -79t79 -224q0 -144 -103 -240t-257 -95q-155 1 -245 109q-91 108 -89 259q0 228 179 405t501 244l16 -49q-291 -78 -436 -271q-51 -68 -80 -149zM672 918q0 112 -54 174t-155 61q-100 0 -178 -72q-40 -202 32 -332q52 -90 153 -90
t152 74q50 73 50 185z" />
    <glyph glyph-name="uni2077" unicode="&#x2077;" horiz-adv-x="776" 
d="M362 1464q-63 0 -99 -34t-70 -87h-52l103 254h610l-4 -36l-518 -955h-144l537 858h-363z" />
    <glyph glyph-name="uni2078" unicode="&#x2078;" horiz-adv-x="821" 
d="M373 1122q-142 76 -142 238t172 228q55 22 127 22q139 0 218 -65t79 -167q0 -173 -231 -237l39 -25q162 -96 162 -225q0 -202 -193 -274q-63 -23 -144 -23q-156 1 -249 76q-94 76 -93 185t75 174t180 93zM254 851q0 -81 55 -137t147 -56t148 48q58 50 58 147t-121 169
l-121 72q-96 -46 -131 -104t-35 -139zM533 1546q-81 0 -125 -44t-46 -118q0 -102 103 -163l90 -54q76 39 110 88q33 49 33 121t-42 121t-123 49z" />
    <glyph glyph-name="uni2079" unicode="&#x2079;" horiz-adv-x="821" 
d="M135 1257q0 161 103 256t260 95q158 0 246 -107q89 -107 87 -260q0 -229 -182 -406t-499 -243l-17 49q410 119 516 418q-94 -90 -226 -89q-131 1 -209 80q-77 80 -79 207zM680 1240q0 210 -102 279q-37 24 -91 23q-104 0 -154 -73t-50 -185q1 -112 55 -174
q54 -61 152 -61t176 69q14 56 14 122z" />
    <glyph glyph-name="uni207A" unicode="&#x207a;" horiz-adv-x="897" 
d="M457 1028h-301l10 80h301l37 305h90l-37 -305h301l-10 -80h-301l-37 -309h-90z" />
    <glyph glyph-name="uni207B" unicode="&#x207b;" horiz-adv-x="897" 
d="M150 1028l10 80h692l-10 -80h-692z" />
    <glyph glyph-name="uni207C" unicode="&#x207c;" horiz-adv-x="897" 
d="M141 936l11 82h692l-10 -82h-693zM164 1118l8 80h692l-8 -80h-692z" />
    <glyph glyph-name="uni207D" unicode="&#x207d;" horiz-adv-x="501" 
d="M260 985q0 -251 195 -465l-60 -51q-111 109 -169 233t-58 310q0 184 93 362t286 320l43 -64q-157 -141 -218 -246q-60 -104 -86 -195t-26 -204z" />
    <glyph glyph-name="uni207E" unicode="&#x207e;" horiz-adv-x="501" 
d="M465 1178q0 -429 -379 -709l-43 63q156 140 217 246q62 105 87 196q26 90 26 222q0 224 -195 446l58 52q229 -225 229 -516z" />
    <glyph glyph-name="n.superior" unicode="&#x207f;" horiz-adv-x="1005" 
d="M684 809q0 52 53 268t53 268q1 52 -30 54q-76 0 -205 -204t-211 -474h-131l102 590q7 24 7 51q0 33 -31 33q-53 0 -135 -121l-45 26q100 191 247 191q57 0 81 -28t24 -68t-21 -115l-82 -334h7q238 545 462 545q102 0 103 -113q0 -77 -53 -286t-53 -251q-1 -42 32 -42
q48 0 125 106l43 -26q-103 -172 -222 -172q-120 0 -120 102z" />
    <glyph glyph-name="uni2080" unicode="&#x2080;" horiz-adv-x="903" 
d="M639 263q59 149 59 361t-100 286q-35 26 -87 26t-95 -29q-144 -97 -183 -420q-6 -57 -6 -115q0 -136 47 -226q47 -91 143 -91q143 0 222 208zM426 -12q-177 0 -266 119q-88 119 -86 296q0 225 105 398q123 201 341 203q156 0 244 -118t88 -298q0 -98 -26 -204
q-58 -233 -216 -339q-84 -57 -184 -57z" />
    <glyph glyph-name="uni2081" unicode="&#x2081;" horiz-adv-x="694" 
d="M420 132q0 -26 15 -39q36 -31 200 -38l-6 -55h-606l4 55q132 5 175 18q42 13 61 31t24 52l78 641h-248l4 47l76 12q112 17 173 46t122 102h34l-102 -826q-4 -20 -4 -46z" />
    <glyph glyph-name="uni2082" unicode="&#x2082;" horiz-adv-x="784" 
d="M397 115q101 0 135 19q57 31 117 128h45l-80 -262h-637l5 29q180 160 292 263q208 192 250 305q20 56 20 132t-46 119q-48 43 -110 43q-136 0 -216 -81q-25 -24 -49 -50l-33 28q53 92 133 154t209 62t200 -68q70 -68 70 -166t-38 -172t-108 -146q-69 -72 -164 -153
q-95 -80 -208 -184h213z" />
    <glyph glyph-name="uni2083" unicode="&#x2083;" horiz-adv-x="802" 
d="M420 903q-72 0 -129 -39t-109 -102l-35 33q125 206 332 209q117 0 177 -56t60 -148q0 -93 -82 -161q-53 -43 -159 -78q115 -14 178 -85t63 -163t-32 -151q-63 -113 -203 -155q-67 -19 -141 -19t-133 19q-112 36 -151 119q-17 38 -17 78q1 40 23 70t53 41h78
q-11 -63 -11 -88q0 -70 41 -125t137 -55q96 -1 152 61t55 164q0 102 -52 161q-52 58 -142 59q-27 0 -90 -13l-13 43q204 64 273 167q25 38 25 92t-38 88t-110 34z" />
    <glyph glyph-name="uni2084" unicode="&#x2084;" horiz-adv-x="878" 
d="M516 330l55 461l-440 -461h385zM475 0l31 258h-490l4 53l644 680h69l-80 -661h162l-10 -72h-162l-31 -258h-137z" />
    <glyph glyph-name="uni2085" unicode="&#x2085;" horiz-adv-x="796" 
d="M700 319q0 -80 -26 -140q-52 -122 -181 -169q-65 -22 -146 -22t-140 20q-168 57 -168 195q1 43 23 71t53 41h80q-13 -47 -13 -103t40 -109q40 -54 135 -54q95 -1 153 59t57 150q0 225 -250 266q-74 12 -157 13l108 454h291q53 0 83 11t56 57h64l-84 -197h-375l-47 -217
q301 -1 407 -183q37 -64 37 -143z" />
    <glyph glyph-name="uni2086" unicode="&#x2086;" horiz-adv-x="821" 
d="M242 535q90 90 224 90t210 -78q77 -78 79 -223q1 -144 -102 -241t-257 -96t-245 107q-90 106 -90 260q0 228 180 406t500 244l17 -50q-296 -79 -436 -270q-51 -68 -80 -149zM211 352q0 -204 104 -274q37 -25 91 -25q104 0 154 74t50 185t-54 173q-55 62 -154 62t-179 -72
q-12 -61 -12 -123z" />
    <glyph glyph-name="uni2087" unicode="&#x2087;" horiz-adv-x="776" 
d="M301 858q-63 0 -99 -34t-71 -87h-51l102 254h611l-5 -37l-518 -954h-143l537 858h-363z" />
    <glyph glyph-name="uni2088" unicode="&#x2088;" horiz-adv-x="821" 
d="M766 772q0 -173 -231 -237l38 -25q162 -96 162 -225q0 -133 -91 -216t-246 -82q-154 1 -248 77q-93 76 -93 185t74 174t180 93q-141 81 -141 227q0 173 172 239q55 22 127 22q139 0 218 -65t79 -167zM600 246q0 97 -121 170l-121 71q-96 -45 -131 -103t-35 -139t56 -137
q55 -56 146 -56t149 48q57 49 57 146zM637 770q0 72 -42 121t-123 49t-126 -44t-45 -118q0 -102 102 -164l91 -53q76 39 110 88t33 121z" />
    <glyph glyph-name="uni2089" unicode="&#x2089;" horiz-adv-x="821" 
d="M177 908q103 95 261 94t246 -107t86 -260q0 -228 -181 -406t-501 -243l-16 49q410 119 516 418q-94 -90 -225 -89t-210 81t-79 224t103 239zM618 634q0 212 -102 278q-37 24 -90 24q-104 0 -154 -73t-51 -185q1 -112 55 -174t152 -62t176 70q14 56 14 122z" />
    <glyph glyph-name="uni208A" unicode="&#x208a;" horiz-adv-x="897" 
d="M395 422h-301l10 80h302l36 305h90l-36 -305h301l-11 -80h-301l-36 -309h-91z" />
    <glyph glyph-name="uni208B" unicode="&#x208b;" horiz-adv-x="897" 
d="M88 422l10 80h693l-11 -80h-692z" />
    <glyph glyph-name="uni208C" unicode="&#x208c;" horiz-adv-x="897" 
d="M80 330l10 82h692l-10 -82h-692zM102 512l9 80h692l-8 -80h-693z" />
    <glyph glyph-name="uni208D" unicode="&#x208d;" horiz-adv-x="501" 
d="M106 379q0 430 379 708l43 -63q-159 -143 -245 -293t-84 -352q0 -252 194 -465l-59 -51q-228 224 -228 516z" />
    <glyph glyph-name="uni208E" unicode="&#x208e;" horiz-adv-x="501" 
d="M403 544q0 -184 -94 -362t-284 -319l-43 63q159 143 245 293t84 352q0 150 -57 262t-137 203l57 51q111 -109 170 -233q59 -126 59 -310z" />
    <glyph glyph-name="Euro" unicode="&#x20ac;" horiz-adv-x="1556" 
d="M1076 1618q265 0 440 -148l-31 -323h-51q-29 199 -126 288q-98 89 -220 89t-208 -44q-240 -124 -325 -509h662l-48 -86h-630q-13 -91 -17 -166h578l-49 -86h-529q4 -269 116 -415t290 -146t289 96t192 305h59l-75 -369q-169 -124 -448 -124t-443 173t-168 480h-201l12 86
h191q4 85 20 166h-190l10 86h199q71 274 253 461q183 186 448 186z" />
    <glyph glyph-name="afii61289" unicode="&#x2113;" horiz-adv-x="755" 
d="M432 -20q-116 0 -189 59t-73 188v226q-16 -16 -115 -82v129q25 18 56 38t55 44v553q0 357 164 431q49 22 106 21q109 0 167 -74q59 -74 59 -202q0 -127 -34 -239q-67 -221 -202 -394q-63 -82 -125 -139v-263q0 -98 34 -135t116 -37t135 23l16 -125q-54 -22 -170 -22z
M438 1468q-137 0 -137 -313v-448q100 108 171 274q71 165 72 326t-106 161z" />
    <glyph glyph-name="numero" unicode="&#x2116;" horiz-adv-x="2904" 
d="M1864 106h766l-15 -106h-766zM154 160q0 -86 65 -84q127 0 158 260l127 1057q-71 92 -110 114q-40 23 -126 23l8 67h334l822 -1292l114 965q20 166 93 257t225 91q114 0 158 -44t44 -96q0 -88 -73 -130h-131q12 69 12 90q0 84 -66 84q-127 0 -157 -260l-154 -1262h-65
l-832 1303l-119 -975q-20 -166 -93 -257t-224 -91q-115 0 -159 44t-44 96q0 88 74 130h131q-12 -69 -12 -90zM2261 406q137 0 221 162t82 354q0 130 -42 204t-118 74t-130 -45t-93 -119t-59 -166t-20 -204t41 -186q42 -74 118 -74zM2264 332q-96 0 -154 26q-164 75 -164 315
q0 239 124 409q60 84 148 138t184 54q313 0 318 -340q0 -111 -32 -218q-67 -227 -240 -331q-88 -53 -184 -53z" />
    <glyph glyph-name="published" unicode="&#x2117;" horiz-adv-x="1822" 
d="M131 799q0 169 65 319q132 305 435 435q149 65 319 65t320 -65q305 -132 435 -435q65 -150 65 -320t-66 -319q-131 -305 -434 -435q-150 -64 -320 -64t-320 64q-304 131 -434 435q-65 150 -65 320zM193 798q0 -157 59 -294q58 -136 162 -240t241 -164t294 -59
q157 0 295 59q282 120 405 404q59 137 59 294t-59 295q-120 281 -405 404q-138 59 -295 59t-294 -59t-240 -163t-163 -241q-60 -138 -59 -295zM1032 1288q375 0 375 -258q0 -141 -100 -228t-281 -87h-178l-17 -156q-8 -55 -8 -99t41 -62t152 -21l-10 -51h-521l4 51
q74 -1 126 21t61 87l69 574q9 52 9 94q0 84 -160 84l8 51h430zM983 782q131 0 198 58t67 168t-53 161q-52 51 -175 52h-109l-53 -439h125z" />
    <glyph glyph-name="servicemark" unicode="&#x2120;" horiz-adv-x="1765" 
d="M276 1159q40 -192 174 -192q150 0 150 108q0 51 -35 83t-116 71t-121 83t-39 122q0 78 58 128q57 48 145 48q133 0 229 -72l-21 -147h-34q-23 163 -170 163q-49 0 -81 -28t-32 -74q0 -47 27 -70q26 -24 102 -62t131 -85t55 -134t-71 -139q-71 -51 -174 -51
q-146 0 -226 78l13 170h36zM944 1014q0 -20 15 -27q15 -8 69 -12l-6 -49h-242l6 49q76 4 84 45l115 473q0 25 -13 38t-61 17l7 49h192q4 -34 8 -51l139 -479l263 479q7 15 14 51h176l-6 -49q-44 -4 -62 -17t-24 -38l10 -473q0 -25 18 -33t58 -12l-6 -49h-285l6 49
q49 4 73 10t24 29l-3 194q0 56 -1 110t-1 87l-266 -479h-57l-156 506l-76 -345q-12 -53 -12 -73z" />
    <glyph glyph-name="trademark" unicode="&#x2122;" horiz-adv-x="1843" 
d="M1022 1014q0 -20 15 -27q15 -8 69 -12l-6 -49h-242l6 49q76 4 84 45l115 473q0 25 -13 38t-61 17l6 49h193q4 -34 8 -51l139 -479l262 479q9 18 15 51h176l-6 -49q-44 -4 -62 -17t-24 -38l10 -473q0 -25 17 -33t59 -12l-6 -49h-285l6 49q49 4 73 10t23 29l-2 194
q0 56 -1 110t-1 87l-266 -479h-57l-156 506l-76 -345q-12 -53 -12 -73zM569 1028v-4q0 -29 25 -37t72 -12l-4 -49h-332l6 49q47 4 78 14t35 45l59 502h-82q-59 0 -87 -24q-27 -24 -73 -103h-47l37 188h637l-6 -188h-45q-31 82 -52 104q-21 23 -81 23h-80l-56 -479l-2 -19
q-2 -6 -2 -10z" />
    <glyph glyph-name="estimated" unicode="&#x212e;" horiz-adv-x="1658" 
d="M31 794q0 374 222 598q214 220 573 221q360 1 580 -221q222 -228 222 -597v-52h-1356q21 -446 312 -605q104 -56 246 -58q276 -4 443 116t191 343h133q-88 -562 -777 -562q-167 -1 -314 57q-298 116 -417 422q-58 151 -58 338zM828 1511q-272 0 -418 -204
q-127 -177 -136 -459h1112q-20 452 -308 607q-104 56 -250 56z" />
    <glyph glyph-name="uni2153" unicode="&#x2153;" horiz-adv-x="1984" 
d="M1749 776q0 59 -37 93q-38 34 -110 34t-129 -39t-109 -102l-35 33q125 206 332 209q117 0 177 -56t60 -148q0 -93 -82 -161q-53 -43 -159 -78q115 -14 178 -85t63 -163t-32 -151q-62 -112 -203 -155q-67 -19 -141 -19q-146 0 -223 64q-78 64 -78 147q1 45 23 75t52 41h78
q-10 -58 -10 -88q0 -70 41 -125t137 -55q96 -1 152 61t55 164q0 102 -52 161q-52 58 -143 59q-27 0 -90 -13l-12 43q297 94 297 254zM481 738q-1 -26 15 -39q36 -30 200 -37l-6 -56h-606l4 56q131 5 174 17q42 13 62 31t24 52l78 641h-248l4 47l76 12q161 24 235 86
q30 25 60 62h35l-103 -826q-4 -20 -4 -46zM1673 1597h115l-1309 -1597h-114z" />
    <glyph glyph-name="uni2154" unicode="&#x2154;" horiz-adv-x="1996" 
d="M1614 903q-72 0 -129 -39t-109 -102l-35 33q125 206 332 209q117 0 177 -56t60 -148q0 -93 -82 -161q-53 -43 -159 -78q115 -14 178 -85t63 -163t-32 -151q-63 -113 -203 -155q-67 -19 -141 -19t-133 19q-112 36 -151 119q-17 38 -17 78q1 40 23 70t53 41h77
q-10 -58 -10 -88q0 -70 41 -125t137 -55q96 -1 152 61t55 164q0 102 -52 161q-52 58 -142 59q-27 0 -90 -13l-13 43q204 64 273 167q25 38 25 92t-38 88t-110 34zM459 721q101 0 145 25t107 122h45l-80 -262h-637l4 29q180 160 292 263q209 192 251 305q20 56 20 132
t-47 119t-129 43t-134 -32q-51 -32 -112 -99l-32 29q53 92 133 153q81 62 209 62t199 -68t71 -166t-39 -172q-65 -124 -271 -299q-95 -80 -208 -184h213zM1686 1597h114l-1308 -1597h-115z" />
    <glyph glyph-name="uni2155" unicode="&#x2155;" horiz-adv-x="1998" 
d="M481 738q-1 -26 15 -39q36 -30 200 -37l-6 -56h-606l4 56q131 5 174 17q42 13 62 31t24 52l78 641h-248l4 47l76 12q161 24 235 86q30 25 60 62h35l-103 -826q-4 -20 -4 -46zM1673 1597h115l-1309 -1597h-114zM1903 319q0 -80 -26 -140q-53 -123 -182 -169
q-65 -22 -146 -22t-140 20q-168 57 -168 195q0 43 23 71t53 41h80q-13 -47 -13 -103t40 -109q40 -54 136 -54q96 -1 152 59q57 60 57 150q0 226 -249 266q-74 12 -158 13l108 454h291q53 0 83 11t57 57h63l-84 -197h-375l-47 -217q300 -1 408 -183q38 -64 37 -143z" />
    <glyph glyph-name="uni2156" unicode="&#x2156;" horiz-adv-x="2011" 
d="M459 721q101 0 145 25t107 122h45l-80 -262h-637l4 29q180 160 292 263q209 192 251 305q20 56 20 132t-47 119t-129 43t-134 -32q-51 -32 -112 -99l-32 29q53 92 133 153q81 62 209 62t199 -68t71 -166t-39 -172q-65 -124 -271 -299q-95 -80 -208 -184h213zM1686 1597
h114l-1308 -1597h-115zM1915 319q0 -150 -97 -242q-97 -91 -252 -90t-233 64t-80 152q0 43 23 71t53 41h80q-12 -47 -12 -103t40 -109q40 -54 135 -54q95 -1 152 59q58 60 58 150q1 158 -121 224q-97 53 -287 55l109 454h291q53 0 83 11t56 57h63l-84 -197h-374l-48 -217
q302 -1 408 -183q37 -64 37 -143z" />
    <glyph glyph-name="uni2157" unicode="&#x2157;" horiz-adv-x="2011" 
d="M629 1387q0 55 -37 89t-110 34q-124 -1 -238 -142l-35 33q125 206 332 209q117 0 177 -56t60 -149q0 -94 -83 -160q-52 -42 -158 -78q115 -14 178 -85t63 -163t-33 -151q-63 -112 -202 -155q-67 -19 -141 -19q-150 0 -224 64q-75 64 -78 147q0 45 23 75t53 42h78
q-10 -58 -10 -88q0 -70 41 -125t137 -55t151 60q55 62 55 164t-51 161q-52 58 -143 59q-36 0 -90 -13l-12 43q204 66 272 168q24 38 25 91zM1688 1597h114l-1308 -1597h-115zM1915 319q0 -150 -97 -242q-97 -91 -252 -90t-233 64t-80 152q0 43 23 71t53 41h80
q-12 -47 -12 -103t40 -109q40 -54 135 -54q95 -1 152 59q58 60 58 150q1 158 -121 224q-97 53 -287 55l109 454h291q53 0 83 11t56 57h63l-84 -197h-374l-48 -217q302 -1 408 -183q37 -64 37 -143z" />
    <glyph glyph-name="uni2158" unicode="&#x2158;" horiz-adv-x="2039" 
d="M578 936l55 461l-440 -461h385zM537 606l30 258h-489l4 54l643 679h70l-80 -661h162l-11 -72h-161l-31 -258h-137zM1714 1597h115l-1309 -1597h-114zM1944 319q0 -80 -26 -140q-53 -123 -182 -169q-65 -22 -146 -22t-140 20q-168 57 -168 195q0 43 23 71t53 41h80
q-12 -47 -12 -103t39 -109q40 -54 135 -54q94 -1 152 59t58 150q0 226 -249 266q-74 12 -158 13l108 454h291q53 0 83 11t57 57h63l-84 -197h-375l-47 -217q299 -1 407 -183q38 -64 38 -143z" />
    <glyph glyph-name="uni2159" unicode="&#x2159;" horiz-adv-x="1921" 
d="M1370 535q90 90 224 90q134 1 212 -79t78 -224t-103 -240t-257 -95q-155 1 -246 108q-90 107 -88 259q0 227 179 405t501 245l16 -50q-292 -78 -436 -270q-51 -68 -80 -149zM1673 1597h115l-1309 -1597h-114zM481 738q-1 -26 15 -39q36 -30 200 -37l-6 -56h-606l4 56
q131 5 174 17q42 13 62 31t24 52l78 641h-248l4 47l76 12q161 24 235 86q30 25 60 62h35l-103 -826q-4 -20 -4 -46zM1739 312q-1 111 -55 173t-153 62t-179 -72q-39 -200 32 -333q51 -89 153 -89q101 0 152 74q50 74 50 185z" />
    <glyph glyph-name="uni215A" unicode="&#x215a;" horiz-adv-x="1900" 
d="M1350 535q90 90 224 90t210 -78q77 -78 79 -223q1 -144 -102 -241t-257 -96t-245 107q-90 106 -90 260q0 228 180 406t500 244l17 -50q-296 -79 -436 -270q-51 -68 -80 -149zM244 820q0 -56 40 -110t135 -54t152 58q57 60 57 150q1 229 -249 266q-74 12 -158 13l109 454
h291q53 -1 83 11t56 57h63l-84 -197h-374l-48 -217q191 0 318 -84t127 -238t-97 -246q-97 -91 -252 -90q-156 1 -242 73q-69 56 -71 143q0 43 23 72t53 41h80q-12 -46 -12 -102zM1653 1597h114l-1308 -1597h-115zM1319 352q0 -204 104 -274q37 -25 90 -25q104 0 155 74
q50 74 50 185t-54 173q-55 62 -154 62t-179 -72q-12 -61 -12 -123z" />
    <glyph glyph-name="uni215B" unicode="&#x215b;" horiz-adv-x="2023" 
d="M1968 772q0 -173 -231 -237l39 -25q161 -95 161 -225q0 -133 -91 -216t-246 -82q-154 1 -248 77t-93 185t74 174q74 65 180 93q-141 81 -141 227q0 173 172 239q55 22 127 22q139 0 218 -65t79 -167zM1395 245q0 -81 55 -137t146 -56t149 48q57 49 57 146t-121 170
l-120 71q-96 -45 -131 -103t-35 -139zM1839 770q0 72 -42 121t-123 49t-126 -44t-45 -118q0 -102 103 -164l90 -53q76 39 110 88t33 121zM481 738q-1 -26 15 -39q36 -30 200 -37l-6 -56h-606l4 56q131 5 174 17q42 13 62 31t24 52l78 641h-248l4 47l76 12q161 24 235 86
q30 25 60 62h35l-103 -826q-4 -20 -4 -46zM1673 1597h115l-1309 -1597h-114z" />
    <glyph glyph-name="uni215C" unicode="&#x215c;" horiz-adv-x="2035" 
d="M1384 743q0 173 172 239q55 22 127 22q139 0 218 -65t79 -167q0 -173 -231 -237l39 -25q162 -96 162 -225q0 -202 -193 -274q-63 -23 -144 -23q-156 1 -249 76q-94 76 -93 185t75 174t180 93q-142 76 -142 227zM1407 245q0 -81 55 -137q54 -56 146 -56t149 48
q57 49 57 146t-120 170l-121 71q-96 -45 -131 -103t-35 -139zM1686 940q-82 0 -126 -44t-44 -118q0 -102 102 -164l90 -53q76 39 110 88t34 121t-43 121q-42 49 -123 49zM629 1387q0 55 -37 89t-110 34q-124 -1 -238 -142l-35 33q125 206 332 209q117 0 177 -56t60 -149
q0 -94 -83 -160q-52 -42 -158 -78q115 -14 178 -85t63 -163t-33 -151q-63 -112 -202 -155q-67 -19 -141 -19q-150 0 -224 64q-75 64 -78 147q0 45 23 75t53 42h78q-10 -58 -10 -88q0 -70 41 -125t137 -55t151 60q55 62 55 164t-51 161q-52 58 -143 59q-36 0 -90 -13l-12 43
q204 66 272 168q24 38 25 91zM1688 1597h114l-1308 -1597h-115z" />
    <glyph glyph-name="uni215D" unicode="&#x215d;" horiz-adv-x="2000" 
d="M244 820q0 -56 40 -110t135 -54t152 58q57 60 57 150q1 229 -249 266q-74 12 -158 13l109 454h291q53 -1 83 11t56 57h63l-84 -197h-374l-48 -217q191 0 318 -84t127 -238t-97 -246q-97 -91 -252 -90q-156 1 -242 73q-69 56 -71 143q0 43 23 72t53 41h80
q-12 -46 -12 -102zM1653 1597h114l-1308 -1597h-115zM1946 772q0 -172 -232 -237l39 -25q162 -96 162 -225q0 -202 -193 -274q-63 -23 -144 -23q-154 1 -247 76q-94 75 -94 184q0 110 74 175t180 93q-143 82 -141 227q0 174 172 239q55 22 127 22q139 0 218 -65t79 -167z
M1372 245q0 -81 55 -137t147 -56t148 48q58 49 58 146t-121 170l-121 71q-96 -45 -131 -103t-35 -139zM1817 770q0 72 -42 121t-123 49t-126 -44t-45 -118q0 -102 102 -164l90 -53q76 39 110 88t34 121z" />
    <glyph glyph-name="uni215E" unicode="&#x215e;" horiz-adv-x="1757" 
d="M362 1464q-63 0 -99 -34t-70 -87h-52l103 254h610l-4 -36l-518 -955h-144l537 858h-363zM1702 772q0 -172 -232 -237l39 -25q162 -96 162 -225q0 -133 -91 -216t-246 -82q-154 1 -247 76q-94 75 -94 185t74 175t180 93q-141 81 -141 227q0 173 172 239q55 22 127 22
q139 0 218 -65t79 -167zM1128 245q0 -81 56 -137t146 -56q91 0 149 48q57 49 57 146t-121 170l-121 71q-96 -45 -131 -103t-35 -139zM1573 770q0 72 -42 121t-123 49t-126 -44t-45 -118q0 -102 102 -164l91 -53q76 39 110 88t33 121zM1407 1597h115l-1309 -1597h-115z" />
    <glyph glyph-name="uni215F" unicode="&#x215f;" horiz-adv-x="1345" 
d="M481 738q-1 -26 15 -39q36 -30 200 -37l-6 -56h-606l4 56q131 5 174 17q42 13 62 31t24 52l78 641h-248l4 47l76 12q161 24 235 86q30 25 60 62h35l-103 -826q-4 -20 -4 -46zM1673 1597h115l-1309 -1597h-114z" />
    <glyph glyph-name="arrowleft" unicode="&#x2190;" horiz-adv-x="1761" 
d="M1702 842v-86h-1309l533 -443v-106l-842 579v25l842 580v-107l-533 -442h1309z" />
    <glyph glyph-name="arrowup" unicode="&#x2191;" horiz-adv-x="1761" 
d="M924 0h-86v1329l-443 -553h-106l579 842h25l580 -842h-107l-442 553v-1329z" />
    <glyph glyph-name="arrowright" unicode="&#x2192;" horiz-adv-x="1761" 
d="M84 756v86h1309l-533 442v107l842 -580v-25l-842 -579v106l533 443h-1309z" />
    <glyph glyph-name="arrowdown" unicode="&#x2193;" horiz-adv-x="1761" 
d="M838 1597h86v-1329l442 553h107l-580 -841h-25l-579 841h106l443 -553v1329z" />
    <glyph glyph-name="uni2196" unicode="&#x2196;" horiz-adv-x="1761" 
d="M59 1599l17 19l1005 -186l-75 -76l-691 78l928 -938l-61 -62l-924 938l61 -702l-75 -76z" />
    <glyph glyph-name="uni2197" unicode="&#x2197;" horiz-adv-x="1761" 
d="M1518 594l-76 76l61 702l-923 -938l-62 62l928 938l-690 -78l-76 76l1006 186l16 -19z" />
    <glyph glyph-name="uni2198" unicode="&#x2198;" horiz-adv-x="1761" 
d="M1702 -2l-16 -18l-1006 186l76 76l690 -78l-928 938l62 61l923 -938l-61 703l76 76z" />
    <glyph glyph-name="uni2199" unicode="&#x2199;" horiz-adv-x="1761" 
d="M244 1004l75 -76l-63 -703l926 938l61 -61l-928 -938l691 78l75 -76l-1005 -186l-17 18z" />
    <glyph glyph-name="partialdiff" unicode="&#x2202;" horiz-adv-x="1259" 
d="M572 72q83 0 158 46t129 120q112 153 112 344t-77 306t-218 113q-177 0 -292 -157q-116 -157 -116 -385q0 -78 19 -148q37 -145 147 -207q55 -32 138 -32zM231 1507q135 111 373 111q138 0 248 -71q300 -193 301 -777q0 -343 -165 -567q-165 -223 -431 -223
q-202 0 -327 128q-124 128 -124 370q0 243 157 428t413 186q217 0 311 -177q-4 266 -137 441q-133 176 -340 176q-150 0 -254 -64z" />
    <glyph glyph-name="Delta" unicode="&#x2206;" horiz-adv-x="1669" 
d="M49 76l895 1521h86l537 -1521l-8 -76h-1518zM924 1384l-756 -1292h1198z" />
    <glyph glyph-name="product" unicode="&#x220f;" horiz-adv-x="1953" 
d="M506 186q0 -66 55 -90t176 -28l-8 -68h-668l9 68q127 4 174 27q86 42 98 143l133 1091q6 50 6 82q0 93 -135 112q-43 5 -96 7l8 67h1743l-8 -67q-129 -5 -177 -28q-46 -23 -68 -56t-28 -86l-133 -1092q-6 -50 -6 -82q0 -95 135 -111q43 -5 96 -7l-8 -68h-667l8 68
q127 4 174 27q88 43 98 143l158 1269h-909l-154 -1239q-6 -50 -6 -82z" />
    <glyph glyph-name="summation" unicode="&#x2211;" horiz-adv-x="1349" 
d="M971 1507h-563l550 -639l-8 -57l-762 -674h615q80 0 130 6t89 31t77 72t95 127h51l-98 -373h-1122l14 129l741 666l-557 657l23 145h1093l-39 -364h-40q-48 159 -88 203q-40 43 -86 57t-115 14z" />
    <glyph glyph-name="minus" unicode="&#x2212;" 
d="M141 532l15 105h1106l-15 -105h-1106z" />
    <glyph glyph-name="radical" unicode="&#x221a;" horiz-adv-x="1587" 
d="M1642 1565h109l-1110 -1565h-127l-100 963h-224l11 73l370 62l88 -932z" />
    <glyph glyph-name="infinity" unicode="&#x221e;" horiz-adv-x="1783" 
d="M440 887q-99 0 -161 -73t-62 -180q-1 -108 63 -160t169 -52q203 0 382 217l-186 162q-61 53 -107 69t-98 17zM433 315q-230 0 -314 167q-29 58 -29 148t31 164q60 146 210 201q71 27 157 27t153 -36q66 -36 137 -97l152 -133q139 191 326 257q117 41 251 5
q135 -36 191 -151q28 -58 28 -147q-1 -182 -113 -288t-278 -104q-93 0 -159 36t-138 97l-151 133q-94 -129 -213 -204q-118 -75 -241 -75zM1376 463q101 0 162 73t61 180q0 108 -63 160t-168 52q-203 0 -383 -217l186 -162q61 -53 107 -69t98 -17z" />
    <glyph glyph-name="integral" unicode="&#x222b;" horiz-adv-x="1261" 
d="M-57 -210q1 -56 31 -91t102 -35t136 77q65 77 105 261l252 1131q49 223 167 354t315 131q116 0 178 -60q63 -60 63 -121q0 -102 -71 -132h-125q16 33 16 89t-31 91t-103 35t-136 -77t-105 -261l-252 -1131q-49 -223 -167 -354t-314 -131q-115 0 -177 59q-63 59 -64 120
q-2 103 71 134h125q-16 -33 -16 -89z" />
    <glyph glyph-name="approxequal" unicode="&#x2248;" 
d="M461 874q88 0 151 -24q62 -24 120 -50q58 -28 116 -50t153 -23q94 0 177 45q37 20 59 47l43 -71q-59 -66 -175 -101q-60 -18 -146 -18q-87 1 -149 23t-118 50t-115 51q-58 24 -151 23t-178 -47q-37 -20 -60 -45l-45 72q111 118 318 118zM848 426q58 -22 153 -23
q94 0 177 46q37 20 59 47l43 -72q-57 -65 -175 -100q-60 -18 -146 -18q-87 0 -149 22t-118 50t-115 52q-58 24 -148 23q-90 0 -181 -47q-37 -20 -60 -46l-45 72q109 117 318 119q88 0 151 -24q62 -23 120 -51t116 -50z" />
    <glyph glyph-name="notequal" unicode="&#x2260;" 
d="M516 383h-375l15 102h432l157 197h-567l15 104h624l154 189h123l-154 -189h358l-14 -104h-416l-157 -197h557l-15 -102h-614l-152 -188h-122z" />
    <glyph glyph-name="equivalence" unicode="&#x2261;" 
d="M152 246l12 96h1106l-13 -96h-1105zM276 1255l13 97h1106l-13 -97h-1106zM215 754l10 94h1106l-10 -94h-1106z" />
    <glyph glyph-name="lessequal" unicode="&#x2264;" 
d="M115 367l14 106l1065 -346l-16 -104zM547 627l678 -215l-15 -115l-1060 352l18 158l1149 346l-17 -117l-731 -209l-327 -100z" />
    <glyph glyph-name="greaterequal" unicode="&#x2265;" 
d="M1223 727l-305 100l-682 209l16 117l1063 -346l-21 -158l-1149 -352l15 115l733 215zM111 23l18 110l1147 346l-16 -112z" />
    <glyph glyph-name="squaremultiply" unicode="&#x22a0;" horiz-adv-x="1998" 
d="M201 1597h1597v-1597h-1597v1597zM338 1468v-1339h1323v1339h-1323zM903 799l-461 461l97 96l460 -461l459 461l98 -96l-460 -461l460 -461l-98 -96l-459 460l-460 -460l-97 96z" />
    <glyph glyph-name="house" unicode="&#x2302;" horiz-adv-x="1740" 
d="M143 0v922l727 696l727 -696v-922h-1454z" />
    <glyph glyph-name="blacksquare" unicode="&#x25a0;" horiz-adv-x="1998" 
d="M1798 0h-1597v1597h1597v-1597z" />
    <glyph glyph-name="blacksquare" unicode="&#xe740;" horiz-adv-x="1998" 
d="M1798 0h-1597v1597h1597v-1597z" />
    <glyph glyph-name="whitesquare" unicode="&#x25a1;" horiz-adv-x="1998" 
d="M201 1597h1597v-1597h-1597v1597zM338 1468v-1339h1323v1339h-1323z" />
    <glyph glyph-name="blacksmallsquare" unicode="&#x25aa;" horiz-adv-x="1486" 
d="M1286 0h-1085v1085h1085v-1085z" />
    <glyph glyph-name="whitesmallsquare" unicode="&#x25ab;" horiz-adv-x="1486" 
d="M201 1085h1085v-1085h-1085v1085zM338 956v-827h811v827h-811z" />
    <glyph glyph-name="triagup" unicode="&#x25b2;" horiz-adv-x="1638" 
d="M20 0l799 1384l799 -1384h-1598z" />
    <glyph glyph-name="triagrt" unicode="&#x25ba;" horiz-adv-x="1638" 
d="M70 1597l1384 -798l-1384 -799v1597z" />
    <glyph glyph-name="triagdn" unicode="&#x25bc;" horiz-adv-x="1638" 
d="M1618 1597l-799 -1384l-799 1384h1598z" />
    <glyph glyph-name="triaglf" unicode="&#x25c4;" horiz-adv-x="1638" 
d="M1454 0l-1384 799l1384 798v-1597z" />
    <glyph glyph-name="lozenge" unicode="&#x25ca;" horiz-adv-x="1843" 
d="M1575 805l-516 663l-686 -673l516 -664zM221 799l854 819l654 -819l-855 -819z" />
    <glyph glyph-name="whitecircle" unicode="&#x25cb;" horiz-adv-x="1998" 
d="M180 799q0 169 65 319q132 305 435 435q150 65 320 65t319 -65q305 -132 435 -435q65 -150 65 -320t-65 -319q-132 -305 -435 -435q-150 -64 -320 -64q-169 0 -319 64q-304 131 -435 435q-65 150 -65 320zM1669 799q0 141 -52 265t-143 217q-194 198 -475 200
q-141 1 -263 -53t-212 -147t-142 -217t-52 -265q0 -280 194 -483q90 -93 213 -146t263 -53t262 53q248 107 355 364q52 124 52 265z" />
    <glyph glyph-name="whitecircle" unicode="&#x25ef;" horiz-adv-x="1998" 
d="M180 799q0 169 65 319q132 305 435 435q150 65 320 65t319 -65q305 -132 435 -435q65 -150 65 -320t-65 -319q-132 -305 -435 -435q-150 -64 -320 -64q-169 0 -319 64q-304 131 -435 435q-65 150 -65 320zM1669 799q0 141 -52 265t-143 217q-194 198 -475 200
q-141 1 -263 -53t-212 -147t-142 -217t-52 -265q0 -280 194 -483q90 -93 213 -146t263 -53t262 53q248 107 355 364q52 124 52 265z" />
    <glyph glyph-name="bullseye" unicode="&#x25ce;" horiz-adv-x="1966" 
d="M164 799q0 169 64 319q131 305 436 435q150 65 320 65t319 -65q305 -132 435 -435q64 -150 64 -320t-64 -319q-131 -305 -435 -435q-150 -64 -320 -64q-169 0 -319 64q-305 132 -436 435q-64 150 -64 320zM676 799q0 63 24 119q49 114 163 163q55 25 119 25
q125 0 218 -90q92 -92 91 -218t-92 -217t-217 -90t-216 91t-90 217zM484 300q163 -163 394 -163t395 162q165 162 165 394q0 231 -164 395q-164 165 -395 165q-232 0 -395 -163q-162 -164 -162 -395t162 -395z" />
    <glyph glyph-name="blackcircle" unicode="&#x25cf;" horiz-adv-x="1998" 
d="M180 799q0 169 65 319q132 305 435 435q150 65 320 65t319 -65q305 -132 435 -435q65 -150 65 -320t-65 -319q-132 -305 -435 -435q-150 -64 -320 -64q-169 0 -319 64q-304 131 -435 435q-65 150 -65 320z" />
    <glyph glyph-name="uni25E2" unicode="&#x25e2;" horiz-adv-x="1638" 
d="M1184 1544l413 -1544l-1544 414z" />
    <glyph glyph-name="uni25E3" unicode="&#x25e3;" horiz-adv-x="1638" 
d="M1585 414l-1544 -414l414 1544z" />
    <glyph glyph-name="uni25E4" unicode="&#x25e4;" horiz-adv-x="1638" 
d="M455 53l-414 1544l1544 -413z" />
    <glyph glyph-name="uni25E5" unicode="&#x25e5;" horiz-adv-x="1638" 
d="M53 1184l1544 413l-413 -1544z" />
    <glyph glyph-name="uni2605" unicode="&#x2605;" horiz-adv-x="1802" 
d="M369 -20l202 628l-532 387h659l203 627l203 -627h659l-532 -387l203 -628l-533 389z" />
    <glyph glyph-name="ballotboxwithx" unicode="&#x2612;" horiz-adv-x="1454" 
d="M184 1085h1086v-1085h-1086v1085zM328 950v-815h798v815h-798zM635 543l-266 264l94 94l264 -266l264 266l94 -94l-266 -264l266 -264l-94 -95l-264 267l-264 -267l-94 95z" />
    <glyph glyph-name="uni263C" unicode="&#x263c;" horiz-adv-x="1966" 
d="M1456 737l318 -149l-351 30l271 -229l-332 121l201 -289l-289 201l119 -332l-228 266l31 -348l-152 318l-61 -346l-61 346l-152 -318l31 348l-228 -266l119 332l-289 -201l201 289l-332 -121l271 229l-350 -30l317 149l-346 62l346 61l-317 150l350 -31l-271 229
l332 -121l-201 289l289 -200l-119 331l228 -266l-31 348l152 -317l61 346l61 -346l152 317l-31 -348l228 266l-119 -331l289 200l-201 -289l332 121l-271 -229l351 31l-318 -150l346 -61z" />
    <glyph glyph-name="uni263E" unicode="&#x263e;" horiz-adv-x="1966" 
d="M1256 1491q-115 0 -236 -54q-121 -55 -211 -149t-142 -220q-53 -126 -53 -269t52 -269q107 -259 354 -369q221 -99 455 -24q-218 -159 -492 -157q-169 0 -319 64q-305 132 -436 435q-65 150 -64 320q0 169 64 319q131 305 436 435q150 65 302 65q285 0 509 -158
q-104 31 -219 31z" />
    <glyph glyph-name="spade" unicode="&#x2660;" horiz-adv-x="1843" 
d="M1737 686q0 -152 -106 -256t-250 -103t-250 95t-164 235l-6 -2q23 -302 101 -505q28 -74 66 -150h-413q75 145 113 300t55 355l-6 2q-97 -226 -271 -302q-63 -27 -139 -27q-151 1 -256 103q-105 103 -105 253q0 202 208 372q60 48 135 96q199 127 399 369q47 58 72 97h4
q108 -168 320 -352q75 -66 150 -114t135 -96q208 -166 208 -370z" />
    <glyph glyph-name="club" unicode="&#x2663;" horiz-adv-x="1843" 
d="M1378 1052q161 2 260 -103q99 -104 99 -260q0 -155 -106 -259t-250 -103t-250 95t-164 235l-6 -2q23 -302 101 -505q28 -74 66 -150h-413q75 145 113 300t55 355l-6 2q-97 -226 -271 -302q-63 -27 -139 -27q-151 1 -256 103q-105 103 -105 258t100 260q100 104 257 104
q81 0 172 -47l4 4q-78 114 -78 254t104 247t257 107t257 -108q103 -108 103 -247q0 -140 -78 -253l4 -4q88 45 170 46z" />
    <glyph glyph-name="heart" unicode="&#x2665;" horiz-adv-x="1843" 
d="M106 1220q0 163 107 280q107 118 285 118q252 0 364 -200q33 -58 56 -122h8q54 149 137 225q108 97 284 97t283 -119t107 -303q0 -139 -115 -329q-76 -125 -189 -252q-114 -127 -279 -329t-230 -306h-4q-77 119 -236 313q-160 194 -271 318t-209 286q-98 160 -98 323z
" />
    <glyph glyph-name="diamond" unicode="&#x2666;" horiz-adv-x="1843" 
d="M920 -20q-274 439 -750 819q340 268 597 601q85 110 153 218h4q280 -449 749 -819q-340 -268 -597 -601q-85 -110 -152 -218h-4z" />
    <glyph glyph-name="musicflatsign" unicode="&#x266d;" horiz-adv-x="983" 
d="M561 1112q350 0 350 -377q0 -284 -238 -522q-214 -210 -534 -299v1765h107v-755q41 79 131 134q89 54 184 54zM788 717q0 279 -241 276q-116 0 -205 -94q-90 -94 -96 -197v-632q341 124 485 397q57 109 57 250z" />
    <glyph glyph-name="musicsharpsign" unicode="&#x266f;" horiz-adv-x="954" 
d="M727 0h-104v543l-291 -234v-514h-105v430l-186 -149v162l186 151v420l-186 -150v162l186 152v624h105v-542l291 233v514h104v-430l186 150v-162l-186 -152v-420l186 150v-162l-186 -151v-625zM332 471l291 234v421l-291 -235v-420z" />
    <glyph glyph-name="uni267B" unicode="&#x267b;" horiz-adv-x="1966" 
d="M1276 84v-100l-232 278l232 277v-101h297q81 0 143 54q29 23 51 53l2 -4l-196 -342q-38 -60 -75 -87q-36 -28 -105 -28h-117zM377 250l-197 344q-34 70 -39 110q-6 40 31 101l57 100l-86 49l357 64l121 -340l-84 49q-39 -70 -84 -144t-73 -127q-44 -83 1 -206h-4z
M827 1597h396q102 0 147 -43q20 -18 41 -53l57 -100l88 49l-124 -340l-355 64l84 49l-147 256q-35 63 -117 98q-35 14 -70 18v2zM547 1468q20 34 67 63q87 52 200 21q48 -12 86 -38t54 -54l-237 -411l-307 176zM637 84q-50 0 -90 27q-87 50 -117 156q-29 106 8 171h475v-354
h-276zM1812 751q0 -101 -78 -180t-151 -79l-237 411l305 176l141 -239q20 -35 20 -89z" />
    <glyph glyph-name="uni267C" unicode="&#x267c;" horiz-adv-x="1966" 
d="M1802 797q0 -171 -64 -319q-132 -304 -434 -434q-148 -64 -318 -64t-320 64q-307 133 -438 434q-64 148 -64 318t64 320q132 306 438 437q150 65 320 65t318 -65t259 -177t175 -260q64 -149 64 -319zM535 1133l237 -138l184 320q-26 49 -108 70q-118 29 -186 -39
q-14 -14 -21 -25zM1157 1421h-307v-2q97 -13 145 -90l115 -199l-66 -38l275 -50l96 265l-67 -39l-45 78q-31 53 -66 64t-80 11zM918 248v274h-369q-26 -50 -12 -108q33 -136 134 -161q19 -5 31 -5h216zM512 377q-37 99 6 172l115 199l65 -39l-94 264l-276 -49l67 -39
l-45 -78q-34 -53 -24 -89t30 -75l154 -266h2zM1605 686q17 36 17 78q0 41 -16 70l-109 186l-237 -137l184 -320q25 0 56 16q70 32 105 107zM1206 522v78l-180 -215l180 -215v78h90q63 0 90 26t50 62l153 266l-2 2q-62 -79 -151 -82h-230z" />
    <glyph glyph-name="uni267D" unicode="&#x267d;" horiz-adv-x="1966" 
d="M1802 797q0 -171 -64 -319q-132 -304 -434 -434q-148 -64 -318 -64t-320 64q-307 133 -438 434q-64 148 -64 318t64 320q132 306 438 437q150 65 320 65t318 -65t259 -177t175 -260q64 -149 64 -319zM1761 797q0 162 -60 304q-122 288 -413 415q-141 61 -303 61t-304 -61
q-289 -124 -415 -415q-61 -142 -61 -304t61 -303q125 -289 415 -413q142 -61 304 -61t303 60q289 124 413 414q60 141 60 303zM641 1321q18 29 53 49q68 38 152 17q84 -22 110 -72l-184 -320l-237 138zM850 1421h307q45 0 80 -11t66 -64l45 -78l67 39l-96 -265l-275 50
l66 38l-115 199q-28 45 -90 76q-27 10 -55 14v2zM702 248q-30 0 -68 20q-72 39 -92 122q-19 83 7 132h369v-274h-216zM510 377l-154 266q-20 39 -29 75t23 89l45 78l-67 39l276 49l94 -264l-65 39l-115 -199q-43 -75 -6 -172h-2zM1622 765q0 -83 -59 -141t-119 -61l-184 320
l237 137l109 -186q16 -27 16 -69zM1436 522q87 0 151 82l2 -2l-153 -266q-23 -37 -50 -63t-90 -25h-90v-78l-180 215l180 215v-78h230z" />
    <glyph glyph-name="mediumwhitecircle" unicode="&#x26aa;" horiz-adv-x="1454" 
d="M329 941q165 165 398 165t398 -165t165 -397t-164 -398t-398 -166q-233 0 -399 164q-165 164 -165 398t165 399zM1149 543q0 88 -33 166t-90 135t-134 91t-165 34t-165 -34t-134 -91t-90 -135t-33 -166t33 -166t90 -135t134 -91t165 -34t165 34t134 91t90 135t33 166z
" />
    <glyph glyph-name="mediumblackcircle" unicode="&#x26ab;" horiz-adv-x="1454" 
d="M329 941q165 165 398 165t398 -165t165 -397t-164 -398t-398 -166q-233 0 -399 164q-165 164 -165 398t165 399z" />
    <glyph glyph-name="anglebracketleft" unicode="&#x3008;" horiz-adv-x="763" 
d="M188 727l482 975h102l-479 -983l239 -967h-96z" />
    <glyph glyph-name="anglebracketright" unicode="&#x3009;" horiz-adv-x="763" 
d="M666 727l-482 -975h-102l479 983l-239 967h96z" />
    <glyph glyph-name="ytilde.school" unicode="&#xe160;" horiz-adv-x="1245" 
d="M41 -279q0 87 86 127h63q0 -137 60 -213t184 -75q171 0 269 146t157 439l125 607h-8q-139 -343 -231 -483q-93 -140 -182 -215t-195 -74q-72 0 -111 45t-39 138q1 93 53 300t75 305q24 98 24 148t-39 51q-50 0 -110 -53t-111 -134l-58 31q73 145 162 212t166 68
q78 1 113 -35t34 -94t-30 -180q-29 -121 -62 -253q-67 -270 -67 -356q0 -85 69 -85q63 0 141 84q148 162 303 537q73 176 130 362h149l-160 -946q-108 -637 -579 -637q-252 0 -349 131q-32 43 -32 102zM626 1380q-44 0 -80 -26t-79 -90l-72 12q114 227 287 227q65 0 146 -65
q32 -25 64 -45q32 -21 77 -21t81 26t78 91l72 -12q-113 -226 -287 -228q-45 1 -79 21t-67 45q-32 25 -64 45q-33 20 -77 20z" />
    <glyph glyph-name="g.school" unicode="&#xe161;" horiz-adv-x="1185" 
d="M332 -20q-244 0 -244 311q0 146 54 290q112 300 348 441q116 70 237 70q63 0 125 -29t92 -88l148 135h53l-72 -227l-143 -801q-86 -469 -379 -564q-91 -30 -177 -30q-173 0 -281 63q-109 63 -107 170q0 85 86 127h65q-1 -135 57 -212t181 -76q171 0 267 141t149 414
l79 415h-8q-58 -140 -164 -287t-193 -205t-173 -58zM930 903q-53 117 -208 117q-83 0 -171 -66q-178 -133 -258 -401q-39 -127 -39 -250q0 -225 123 -225q106 0 262 205t251 472q28 79 40 148z" />
    <glyph glyph-name="gcircumflex.school" unicode="&#xe163;" horiz-adv-x="1185" 
d="M1085 1212h-69l-248 281l-334 -281h-69l356 426h115zM332 -20q-244 0 -244 311q0 146 54 290q112 300 348 441q116 70 237 70q63 0 125 -29t92 -88l148 135h53l-72 -227l-143 -801q-86 -469 -379 -564q-91 -30 -177 -30q-173 0 -281 63q-109 63 -107 170q0 85 86 127h65
q-1 -135 57 -212t181 -76q171 0 267 141t149 414l79 415h-8q-58 -140 -164 -287t-193 -205t-173 -58zM930 903q-53 117 -208 117q-83 0 -171 -66q-178 -133 -258 -401q-39 -127 -39 -250q0 -225 123 -225q106 0 262 205t251 472q28 79 40 148z" />
    <glyph glyph-name="gbreve.school" unicode="&#xe166;" horiz-adv-x="1185" 
d="M332 -20q-244 0 -244 311q0 146 54 290q112 300 348 441q116 70 237 70q63 0 125 -29t92 -88l148 135h53l-72 -227l-143 -801q-86 -469 -379 -564q-91 -30 -177 -30q-173 0 -281 63q-109 63 -107 170q0 85 86 127h65q-1 -135 57 -212t181 -76q171 0 267 141t149 414
l79 415h-8q-58 -140 -164 -287t-193 -205t-173 -58zM930 903q-53 117 -208 117q-83 0 -171 -66q-178 -133 -258 -401q-39 -127 -39 -250q0 -225 123 -225q106 0 262 205t251 472q28 79 40 148zM506 1638q0 -290 246 -290q175 0 266 151q33 55 51 139h76q-25 -195 -121 -301
t-269 -106q-331 0 -331 315q0 43 6 92h76z" />
    <glyph glyph-name="gdotaccent.school" unicode="&#xe167;" horiz-adv-x="1185" 
d="M754 1286q-51 0 -84 32t-33 81t35 88t86 39t84 -32q32 -32 32 -81t-34 -88t-86 -39zM332 -20q-244 0 -244 311q0 146 54 290q112 300 348 441q116 70 237 70q63 0 125 -29t92 -88l148 135h53l-72 -227l-143 -801q-86 -469 -379 -564q-91 -30 -177 -30q-173 0 -281 63
q-109 63 -107 170q0 85 86 127h65q-1 -135 57 -212t181 -76q171 0 267 141t149 414l79 415h-8q-58 -140 -164 -287t-193 -205t-173 -58zM930 903q-53 117 -208 117q-83 0 -171 -66q-178 -133 -258 -401q-39 -127 -39 -250q0 -225 123 -225q106 0 262 205t251 472
q28 79 40 148z" />
    <glyph glyph-name="gcommaaccent.school" unicode="&#xe168;" horiz-adv-x="1185" 
d="M891 1339q0 -49 -33 -82q-32 -33 -96 -33t-96 45q-32 44 -33 96q0 105 79 179t218 78l-12 -70q-76 -8 -115 -32t-66 -74h64q90 -23 90 -107zM332 -20q-244 0 -244 311q0 146 54 290q112 300 348 441q116 70 237 70q63 0 125 -29t92 -88l148 135h53l-72 -227l-143 -801
q-86 -469 -379 -564q-91 -30 -177 -30q-173 0 -281 63q-109 63 -107 170q0 85 86 127h65q-1 -135 57 -212t181 -76q171 0 267 141t149 414l79 415h-8q-58 -140 -164 -287t-193 -205t-173 -58zM930 903q-53 117 -208 117q-83 0 -171 -66q-178 -133 -258 -401
q-39 -127 -39 -250q0 -225 123 -225q106 0 262 205t251 472q28 79 40 148z" />
    <glyph glyph-name="y.school" unicode="&#xe16b;" horiz-adv-x="1245" 
d="M41 -279q0 87 86 127h63q0 -137 60 -213t184 -75q171 0 269 146t157 439l125 607h-8q-139 -343 -231 -483q-93 -140 -182 -215t-195 -74q-72 0 -111 45t-39 138q1 93 53 300t75 305q24 98 24 148t-39 51q-50 0 -110 -53t-111 -134l-58 31q73 145 162 212t166 68
q78 1 113 -35t34 -94t-30 -180q-29 -121 -62 -253q-67 -270 -67 -356q0 -85 69 -85q63 0 141 84q148 162 303 537q73 176 130 362h149l-160 -946q-108 -637 -579 -637q-252 0 -349 131q-32 43 -32 102z" />
    <glyph glyph-name="ygrave.school" unicode="&#xe16c;" horiz-adv-x="1245" 
d="M41 -279q0 87 86 127h63q0 -137 60 -213t184 -75q171 0 269 146t157 439l125 607h-8q-139 -343 -231 -483q-93 -140 -182 -215t-195 -74q-72 0 -111 45t-39 138q1 93 53 300t75 305q24 98 24 148t-39 51q-50 0 -110 -53t-111 -134l-58 31q73 145 162 212t166 68
q78 1 113 -35t34 -94t-30 -180q-29 -121 -62 -253q-67 -270 -67 -356q0 -85 69 -85q63 0 141 84q148 162 303 537q73 176 130 362h149l-160 -946q-108 -637 -579 -637q-252 0 -349 131q-32 43 -32 102zM645 1638l172 -426h-67l-306 426h201z" />
    <glyph glyph-name="yacute.school" unicode="&#xe16d;" horiz-adv-x="1245" 
d="M41 -279q0 87 86 127h63q0 -137 60 -213t184 -75q171 0 269 146t157 439l125 607h-8q-139 -343 -231 -483q-93 -140 -182 -215t-195 -74q-72 0 -111 45t-39 138q1 93 53 300t75 305q24 98 24 148t-39 51q-50 0 -110 -53t-111 -134l-58 31q73 145 162 212t166 68
q78 1 113 -35t34 -94t-30 -180q-29 -121 -62 -253q-67 -270 -67 -356q0 -85 69 -85q63 0 141 84q148 162 303 537q73 176 130 362h149l-160 -946q-108 -637 -579 -637q-252 0 -349 131q-32 43 -32 102zM1231 1638l-449 -426h-67l297 426h219z" />
    <glyph glyph-name="ycircumflex.school" unicode="&#xe16e;" horiz-adv-x="1245" 
d="M1157 1212h-70l-247 281l-334 -281h-70l357 426h114zM41 -279q0 87 86 127h63q0 -137 60 -213t184 -75q171 0 269 146t157 439l125 607h-8q-139 -343 -231 -483q-93 -140 -182 -215t-195 -74q-72 0 -111 45t-39 138q1 93 53 300t75 305q24 98 24 148t-39 51
q-50 0 -110 -53t-111 -134l-58 31q73 145 162 212t166 68q78 1 113 -35t34 -94t-30 -180q-29 -121 -62 -253q-67 -270 -67 -356q0 -85 69 -85q63 0 141 84q148 162 303 537q73 176 130 362h149l-160 -946q-108 -637 -579 -637q-252 0 -349 131q-32 43 -32 102z" />
    <glyph glyph-name="ydieresis.school" unicode="&#xe16f;" horiz-adv-x="1245" 
d="M600 1286q-51 0 -84 32t-33 81t35 88t86 39t84 -32t33 -81t-35 -88t-86 -39zM1010 1286q-51 0 -84 32t-33 81t35 88t86 39t84 -32q32 -32 32 -81t-34 -88t-86 -39zM41 -279q0 87 86 127h63q0 -137 60 -213t184 -75q171 0 269 146t157 439l125 607h-8q-139 -343 -231 -483
q-93 -140 -182 -215t-195 -74q-72 0 -111 45t-39 138q1 93 53 300t75 305q24 98 24 148t-39 51q-50 0 -110 -53t-111 -134l-58 31q73 145 162 212t166 68q78 1 113 -35t34 -94t-30 -180q-29 -121 -62 -253q-67 -270 -67 -356q0 -85 69 -85q63 0 141 84q148 162 303 537
q73 176 130 362h149l-160 -946q-108 -637 -579 -637q-252 0 -349 131q-32 43 -32 102z" />
    <glyph glyph-name="ymacron.school" unicode="&#xe171;" horiz-adv-x="1245" 
d="M41 -279q0 87 86 127h63q0 -137 60 -213t184 -75q171 0 269 146t157 439l125 607h-8q-139 -343 -231 -483q-93 -140 -182 -215t-195 -74q-72 0 -111 45t-39 138q1 93 53 300t75 305q24 98 24 148t-39 51q-50 0 -110 -53t-111 -134l-58 31q73 145 162 212t166 68
q78 1 113 -35t34 -94t-30 -180q-29 -121 -62 -253q-67 -270 -67 -356q0 -85 69 -85q63 0 141 84q148 162 303 537q73 176 130 362h149l-160 -946q-108 -637 -579 -637q-252 0 -349 131q-32 43 -32 102zM541 1442h540l-12 -107h-541z" />
    <glyph glyph-name="cordinal" unicode="&#xe181;" horiz-adv-x="671" 
d="M408 791q74 0 127 44t100 107l45 -29q-74 -137 -204 -188q-46 -18 -104 -18q-115 0 -180 76t-65 186q0 217 120 370q120 152 302 152q86 0 130 -40t44 -92t-51 -79h-62q-10 139 -110 139q-105 0 -171 -129q-59 -112 -60 -247q-1 -136 32 -194t107 -58z" />
    <glyph glyph-name="p.smcp" unicode="&#xe200;" horiz-adv-x="1175" 
d="M700 1141q445 0 445 -305q0 -174 -120 -270t-331 -97h-221l-22 -190q-11 -74 -11 -110t10 -53t46 -32q35 -15 166 -21l-11 -63h-590l9 63q98 0 150 25t63 98l84 670l6 72q4 31 4 49q0 53 -44 76t-143 24l9 64h501zM969 831q0 226 -273 228h-149l-62 -508h170
q156 1 235 65t79 215z" />
    <glyph glyph-name="p.smcp" unicode="&#xf770;" horiz-adv-x="1175" 
d="M700 1141q445 0 445 -305q0 -174 -120 -270t-331 -97h-221l-22 -190q-11 -74 -11 -110t10 -53t46 -32q35 -15 166 -21l-11 -63h-590l9 63q98 0 150 25t63 98l84 670l6 72q4 31 4 49q0 53 -44 76t-143 24l9 64h501zM969 831q0 226 -273 228h-149l-62 -508h170
q156 1 235 65t79 215z" />
    <glyph glyph-name="a.smcp" unicode="&#xe201;" horiz-adv-x="1323" 
d="M920 82q50 16 49 58q0 42 -21 104l-39 129h-536l-90 -146q-37 -65 -37 -100t38 -49t124 -15l-11 -63h-407l8 63q38 1 66 9t49 43l583 946l-32 96h165l320 -1042q10 -35 41 -43t61 -9l-8 -63h-473l10 63q90 3 140 19zM424 455h461l-152 499z" />
    <glyph glyph-name="a.smcp" unicode="&#xf761;" horiz-adv-x="1323" 
d="M920 82q50 16 49 58q0 42 -21 104l-39 129h-536l-90 -146q-37 -65 -37 -100t38 -49t124 -15l-11 -63h-407l8 63q38 1 66 9t49 43l583 946l-32 96h165l320 -1042q10 -35 41 -43t61 -9l-8 -63h-473l10 63q90 3 140 19zM424 455h461l-152 499z" />
    <glyph glyph-name="b.smcp" unicode="&#xe202;" horiz-adv-x="1257" 
d="M963 334q0 219 -297 219h-183l-34 -287q-9 -56 -9 -105q0 -47 35 -63t98 -16h86q139 0 222 61q82 61 82 191zM637 635q247 0 307 129q23 47 23 119q0 176 -234 176h-186l-51 -424h141zM754 1141q174 -1 277 -63t103 -199t-117 -214q-94 -62 -255 -71q168 -8 266 -72
t98 -186q0 -168 -133 -252t-344 -84h-588l9 63q98 0 150 25t63 98l84 670l6 72q4 31 4 49q0 53 -44 76t-143 24l9 64h555z" />
    <glyph glyph-name="b.smcp" unicode="&#xf762;" horiz-adv-x="1257" 
d="M963 334q0 219 -297 219h-183l-34 -287q-9 -56 -9 -105q0 -47 35 -63t98 -16h86q139 0 222 61q82 61 82 191zM637 635q247 0 307 129q23 47 23 119q0 176 -234 176h-186l-51 -424h141zM754 1141q174 -1 277 -63t103 -199t-117 -214q-94 -62 -255 -71q168 -8 266 -72
t98 -186q0 -168 -133 -252t-344 -84h-588l9 63q98 0 150 25t63 98l84 670l6 72q4 31 4 49q0 53 -44 76t-143 24l9 64h555z" />
    <glyph glyph-name="c.smcp" unicode="&#xe203;" horiz-adv-x="1263" 
d="M1081 80q-183 -100 -415 -100t-385 142q-152 142 -152 393t165 440q81 93 200 149t267 57q147 0 245 -35t170 -82l-31 -262h-41q-23 145 -113 219t-218 74q-233 0 -359 -172q-111 -152 -111 -371t104 -343q104 -125 264 -124q159 1 265 82q85 68 168 220h55z" />
    <glyph glyph-name="c.smcp" unicode="&#xf763;" horiz-adv-x="1263" 
d="M1081 80q-183 -100 -415 -100t-385 142q-152 142 -152 393t165 440q81 93 200 149t267 57q147 0 245 -35t170 -82l-31 -262h-41q-23 145 -113 219t-218 74q-233 0 -359 -172q-111 -152 -111 -371t104 -343q104 -125 264 -124q159 1 265 82q85 68 168 220h55z" />
    <glyph glyph-name="d.smcp" unicode="&#xe204;" horiz-adv-x="1363" 
d="M440 162q0 -46 34 -64t97 -18h56q237 0 363 144t126 417q0 217 -106 318t-312 102h-151l-98 -801q-9 -83 -9 -98zM377 977q0 53 -44 76t-143 24l9 64h514q268 0 422 -124t153 -360q0 -306 -178 -482q-178 -175 -481 -175h-568l9 63q98 0 150 25t63 98l84 670l6 72
q4 31 4 49z" />
    <glyph glyph-name="d.smcp" unicode="&#xf764;" horiz-adv-x="1363" 
d="M440 162q0 -46 34 -64t97 -18h56q237 0 363 144t126 417q0 217 -106 318t-312 102h-151l-98 -801q-9 -83 -9 -98zM377 977q0 53 -44 76t-143 24l9 64h514q268 0 422 -124t153 -360q0 -306 -178 -482q-178 -175 -481 -175h-568l9 63q98 0 150 25t63 98l84 670l6 72
q4 31 4 49z" />
    <glyph glyph-name="e.smcp" unicode="&#xe205;" horiz-adv-x="1277" 
d="M868 1059h-321l-53 -426h251q119 0 152 149h59l-51 -381h-57q0 152 -113 152h-252l-34 -291q-9 -83 -9 -98q0 -46 33 -64t92 -18h189q111 0 184 52q74 52 164 185h45l-100 -319h-986l9 63q98 0 150 25t63 98l84 670l6 72q4 31 4 49q0 53 -44 76t-143 24l9 64h983
l-35 -264h-43q-24 116 -71 149q-46 33 -165 33z" />
    <glyph glyph-name="e.smcp" unicode="&#xf765;" horiz-adv-x="1277" 
d="M868 1059h-321l-53 -426h251q119 0 152 149h59l-51 -381h-57q0 152 -113 152h-252l-34 -291q-9 -83 -9 -98q0 -46 33 -64t92 -18h189q111 0 184 52q74 52 164 185h45l-100 -319h-986l9 63q98 0 150 25t63 98l84 670l6 72q4 31 4 49q0 53 -44 76t-143 24l9 64h983
l-35 -264h-43q-24 116 -71 149q-46 33 -165 33z" />
    <glyph glyph-name="f.smcp" unicode="&#xe206;" horiz-adv-x="1181" 
d="M840 1059h-293l-58 -467h242q117 0 154 149h51l-53 -379h-49q0 150 -113 150h-242l-28 -233q-11 -74 -11 -110t10 -53t46 -32q35 -15 166 -21l-11 -63h-590l9 63q98 0 150 25t63 98l84 670l6 72q4 31 4 49q0 53 -44 76t-143 24l9 64h962l-31 -264h-53q-23 115 -75 149
q-52 33 -162 33z" />
    <glyph glyph-name="f.smcp" unicode="&#xf766;" horiz-adv-x="1181" 
d="M840 1059h-293l-58 -467h242q117 0 154 149h51l-53 -379h-49q0 150 -113 150h-242l-28 -233q-11 -74 -11 -110t10 -53t46 -32q35 -15 166 -21l-11 -63h-590l9 63q98 0 150 25t63 98l84 670l6 72q4 31 4 49q0 53 -44 76t-143 24l9 64h962l-31 -264h-53q-23 115 -75 149
q-52 33 -162 33z" />
    </font>
</defs>
</svg>
